<svg xmlns="http://www.w3.org/2000/svg" viewBox="0 0 500 500"><g id="freepik--Chart--inject-8"><rect x="64.48" y="372.53" width="75.82" height="75.32" style="fill:#52B2E7"></rect><rect x="64.48" y="372.53" width="22.34" height="75.32" style="opacity:0.1"></rect><rect x="162.89" y="337.88" width="75.82" height="109.97" style="fill:#52B2E7"></rect><rect x="162.89" y="337.88" width="22.34" height="109.97" style="opacity:0.1"></rect><rect x="261.29" y="303.22" width="75.82" height="144.62" style="fill:#52B2E7"></rect><rect x="261.29" y="303.22" width="22.34" height="144.62" style="opacity:0.1"></rect><rect x="359.7" y="268.57" width="75.82" height="179.28" style="fill:#52B2E7"></rect><rect x="359.7" y="268.57" width="22.34" height="179.28" style="opacity:0.1"></rect></g><g id="freepik--Arrow--inject-8"><path d="M64.37,275.81c1.85,0,4-.05,6-.1s4.09-.13,6.14-.23c4.11-.17,8.22-.41,12.34-.69,8.24-.53,16.48-1.3,24.71-2.17q24.7-2.67,49.22-7.13t48.62-10.73q24.09-6.36,47.62-14.69a490.23,490.23,0,0,0,46.1-19A417.64,417.64,0,0,0,349,197.22l10.54-6.72,10.24-7.19c3.46-2.33,6.72-4.94,10-7.49l4.94-3.84,2.48-1.92,2.38-2,9.5-8.17c1.62-1.32,3.08-2.82,4.6-4.25l4.54-4.33,4.54-4.34c1.5-1.46,2.88-3,4.32-4.55l8.59-9.17.57.48-8.16,9.6c-1.38,1.59-2.69,3.24-4.13,4.77l-4.35,4.57-4.35,4.58c-1.46,1.51-2.86,3.09-4.42,4.5l-9.18,8.69-2.3,2.17-2.4,2.05-4.81,4.11c-3.21,2.74-6.37,5.53-9.76,8.05l-10,7.77L352,201.86a422.21,422.21,0,0,1-43.32,26.33,503.22,503.22,0,0,1-46,21.57q-23.52,9.62-47.8,17.28t-49.08,13.32q-24.79,5.75-50,9.7c-8.4,1.29-16.82,2.49-25.29,3.45-4.24.49-8.48.94-12.75,1.33-2.13.2-4.27.37-6.41.54s-4.26.31-6.6.43Z" style="fill:#52B2E7"></path><polygon points="428.77 145.14 423.86 135.9 413.8 133.03 435.63 121.33 428.77 145.14" style="fill:#52B2E7"></polygon></g><g id="freepik--Plants--inject-8"><path d="M404.45,262.91H390.13s-1.11-3.23,3-15.67,6.68-24.18,1.15-36.39-9.14-27.38-3.17-42.68c6.75-17.28,8.61-17-.17-41.62-.77-2.15,0-2.24,1-.86s7.53,17.66,8.3,22.12c0,0,6.29-10.45,8.6-10.6s1.51.25,0,2c-10.8,12.46-16.74,32.71-17.05,42.69s4.92,20.73,4.92,20.73,7.06-10.75,11.67-15.2,7.68-11.21,5.22-17.2,7.73,2.92.87,12.74c0,0,10.34-2,12.8,2.15s-6.76-4.91-15.82,3.23a42.31,42.31,0,0,0-11.83,17.81s8.83,20.09,6,31.33C401.08,255.77,404.45,262.91,404.45,262.91Z" style="fill:#52B2E7"></path><path d="M404.45,262.91H390.13s-1.11-3.23,3-15.67,6.68-24.18,1.15-36.39-9.14-27.38-3.17-42.68c6.75-17.28,8.61-17-.17-41.62-.77-2.15,0-2.24,1-.86s7.53,17.66,8.3,22.12c0,0,6.29-10.45,8.6-10.6s1.51.25,0,2c-10.8,12.46-16.74,32.71-17.05,42.69s4.92,20.73,4.92,20.73,7.06-10.75,11.67-15.2,7.68-11.21,5.22-17.2,7.73,2.92.87,12.74c0,0,10.34-2,12.8,2.15s-6.76-4.91-15.82,3.23a42.31,42.31,0,0,0-11.83,17.81s8.83,20.09,6,31.33C401.08,255.77,404.45,262.91,404.45,262.91Z" style="opacity:0.5"></path><path d="M401.65,203.66s12.85-3.55,19.82,9C421.47,212.7,408.37,215.1,401.65,203.66Z" style="fill:#37474f"></path><path d="M370.13,134.84s11.78-6.25,21.31,4.53C391.44,139.37,379.16,144.55,370.13,134.84Z" style="fill:#37474f"></path><path d="M404.92,200.2a12.24,12.24,0,0,1,15-1.6S412.94,204.64,404.92,200.2Z" style="fill:#37474f"></path><path d="M399.12,135.81A12.22,12.22,0,0,1,410,125.4S408.18,134.43,399.12,135.81Z" style="fill:#37474f"></path><path d="M373.12,167.18a12.23,12.23,0,0,1,13.28,7.09S377.26,175.35,373.12,167.18Z" style="fill:#37474f"></path><polygon points="380.98 229.54 381.79 239.18 384.28 268.57 410.94 268.57 413.43 239.18 414.24 229.54 380.98 229.54" style="fill:#455a64"></polygon><polygon points="380.98 229.54 381.79 239.18 413.43 239.18 414.24 229.54 380.98 229.54" style="fill:#263238"></polygon><rect x="378.36" y="225.67" width="38.5" height="9.25" transform="translate(795.22 460.59) rotate(180)" style="fill:#455a64"></rect><path d="M291.26,295h16.56s-10.57-14.73-13-22.63c-3.54-11.69,2.64-23,11.05-29.24,3.82-2.84,7.75,1.31,13.28,0,6.81-1.64,6.65-7.34,6.38-7.9s-1.22,5-4.48,6.06c-7.48,2.51-10-3.15-16.72-.86a38.42,38.42,0,0,0,.11-7.17c-.31-4,3.87-15.64,15-14.45,1.43.16.56-.82-2.06-1a13.44,13.44,0,0,0-5.4,1,11.15,11.15,0,0,0,2.57-5.81c.26-3.24,2.21-5.25,2-5.76s-1.86.62-2.58,4c0,0-1.64,5.3-3.6,7s-6,6.39-7,11c0,0-.29-2.87-.78-8.39-.36-4.05-2.83-7.31-3.45-7.05s2.37,3.81,2.52,7.61-.57,7.92.17,11.08c1.2,5.05-.07,10.57-2.48,13.35s-8.69,8.45-9,18.63S293.83,290.75,291.26,295Z" style="fill:#52B2E7"></path><g style="opacity:0.5"><path d="M291.26,295h16.56s-10.57-14.73-13-22.63c-3.54-11.69,2.64-23,11.05-29.24,3.82-2.84,7.75,1.31,13.28,0,6.81-1.64,6.65-7.34,6.38-7.9s-1.22,5-4.48,6.06c-7.48,2.51-10-3.15-16.72-.86a38.42,38.42,0,0,0,.11-7.17c-.31-4,3.87-15.64,15-14.45,1.43.16.56-.82-2.06-1a13.44,13.44,0,0,0-5.4,1,11.15,11.15,0,0,0,2.57-5.81c.26-3.24,2.21-5.25,2-5.76s-1.86.62-2.58,4c0,0-1.64,5.3-3.6,7s-6,6.39-7,11c0,0-.29-2.87-.78-8.39-.36-4.05-2.83-7.31-3.45-7.05s2.37,3.81,2.52,7.61-.57,7.92.17,11.08c1.2,5.05-.07,10.57-2.48,13.35s-8.69,8.45-9,18.63S293.83,290.75,291.26,295Z"></path></g><path d="M301.25,238.63s-11.38,1.83-16.17-9.65C285.08,229,296.57,228.17,301.25,238.63Z" style="fill:#37474f"></path><path d="M300.56,241.29a10.56,10.56,0,0,1-12.38,4S293,239,300.56,241.29Z" style="fill:#37474f"></path><path d="M335.7,247.29a10.56,10.56,0,0,1-11.8-5.47S331.73,240.44,335.7,247.29Z" style="fill:#37474f"></path><path d="M311.71,214.78a10.57,10.57,0,0,1-8.62-9.75S310.82,206.91,311.71,214.78Z" style="fill:#37474f"></path><polygon points="283.93 264.33 284.74 273.97 287.23 303.36 313.9 303.36 316.38 273.97 317.2 264.33 283.93 264.33" style="fill:#455a64"></polygon><polygon points="283.93 264.33 284.74 273.97 316.38 273.97 317.2 264.33 283.93 264.33" style="fill:#263238"></polygon><rect x="281.32" y="260.46" width="38.5" height="9.25" transform="translate(601.13 530.17) rotate(180)" style="fill:#455a64"></rect><path d="M189.27,327h13.42s-8.57-11.94-10.5-18.34c-2.87-9.47,2.14-18.63,8.95-23.69,3.1-2.3,6.28,1.06,10.76,0,5.52-1.34,5.39-6,5.17-6.41s-1,4-3.63,4.92c-6.06,2-8.12-2.56-13.55-.7A44.38,44.38,0,0,1,200,277c.55-6.82,6.13-11.75,6.13-11.75a9.08,9.08,0,0,0,2.08-4.71c.21-2.63,1.79-4.25,1.62-4.67s-1.5.5-2.08,3.25c0,0-1.33,4.29-2.92,5.67s-4.86,5.18-5.69,8.89c0,0-1.31,11.19-3.27,13.45s-7,6.84-7.29,15.09S191.35,323.6,189.27,327Z" style="fill:#52B2E7"></path><g style="opacity:0.5"><path d="M189.27,327h13.42s-8.57-11.94-10.5-18.34c-2.87-9.47,2.14-18.63,8.95-23.69,3.1-2.3,6.28,1.06,10.76,0,5.52-1.34,5.39-6,5.17-6.41s-1,4-3.63,4.92c-6.06,2-8.12-2.56-13.55-.7A44.38,44.38,0,0,1,200,277c.55-6.82,6.13-11.75,6.13-11.75a9.08,9.08,0,0,0,2.08-4.71c.21-2.63,1.79-4.25,1.62-4.67s-1.5.5-2.08,3.25c0,0-1.33,4.29-2.92,5.67s-4.86,5.18-5.69,8.89c0,0-1.31,11.19-3.27,13.45s-7,6.84-7.29,15.09S191.35,323.6,189.27,327Z"></path></g><path d="M197.63,277.12a10.56,10.56,0,0,1-10-8.36S195.58,269.47,197.63,277.12Z" style="fill:#37474f"></path><path d="M228.28,273a10.58,10.58,0,0,1-11.13,6.74S220.37,272.43,228.28,273Z" style="fill:#37474f"></path><path d="M208.67,256.05a10.56,10.56,0,0,1-5.57-11.76S210,248.24,208.67,256.05Z" style="fill:#37474f"></path><polygon points="178.65 298.85 179.46 308.49 181.95 337.88 208.61 337.88 211.1 308.49 211.91 298.85 178.65 298.85" style="fill:#455a64"></polygon><polygon points="178.65 298.85 179.46 308.49 211.1 308.49 211.91 298.85 178.65 298.85" style="fill:#263238"></polygon><rect x="176.03" y="294.98" width="38.5" height="9.25" transform="translate(390.56 599.21) rotate(180)" style="fill:#455a64"></rect><path d="M98.11,349.39h10.6s-6.77-9.44-8.3-14.5c-2.26-7.48,2.58-15.82,6.69-18.43,2.58-1.62,5.35.55,8.89-.31,4.36-1,4.26-4.7,4.09-5.06s-.78,3.18-2.87,3.88c-4.79,1.61-6.42-2-10.71-.55,0,0,.16-5.78-4.3-8.45-.8-.48,1.84,2.27,2.54,5.52a6.77,6.77,0,0,1-1.43,6.34c-1.53,1.8-5.56,5.41-5.76,11.94S99.75,346.69,98.11,349.39Z" style="fill:#52B2E7"></path><g style="opacity:0.5"><path d="M98.11,349.39h10.6s-6.77-9.44-8.3-14.5c-2.26-7.48,2.58-15.82,6.69-18.43,2.58-1.62,5.35.55,8.89-.31,4.36-1,4.26-4.7,4.09-5.06s-.78,3.18-2.87,3.88c-4.79,1.61-6.42-2-10.71-.55,0,0,.16-5.78-4.3-8.45-.8-.48,1.84,2.27,2.54,5.52a6.77,6.77,0,0,1-1.43,6.34c-1.53,1.8-5.56,5.41-5.76,11.94S99.75,346.69,98.11,349.39Z"></path></g><polygon points="85.76 333.5 86.57 343.14 89.06 372.53 115.72 372.53 118.21 343.14 119.02 333.5 85.76 333.5" style="fill:#455a64"></polygon><polygon points="85.76 333.5 86.57 343.14 118.21 343.14 119.02 333.5 85.76 333.5" style="fill:#263238"></polygon><rect x="83.14" y="329.63" width="38.5" height="9.25" transform="translate(204.78 668.51) rotate(180)" style="fill:#455a64"></rect></g><g id="freepik--Character--inject-8"><path d="M263.43,96.67c0,.1.15.09.15,0,.14-4.72,4.79-7.86,4.64-12.67a11.22,11.22,0,0,0-2.11-5.89,32.2,32.2,0,0,0-2.68-3.16l-.38-.52A23.12,23.12,0,0,1,260.87,71a13.26,13.26,0,0,1-1.13-4.49c-.31-3-.41-6-2.48-8.32a12.91,12.91,0,0,0-6.72-3.7c-5.66-1.38-12.4-.39-16.15,4.46a10.8,10.8,0,0,0-1.56,2.82A12.43,12.43,0,0,0,228.55,68c-.88,3.4,1.39,6.18,1.18,7.88-.18,1.49-1.1,2.77-1.7,4.11a26.48,26.48,0,0,0-1.68,3.53,9.21,9.21,0,0,0-.13,5.28,10,10,0,0,0,2.13,4.32,8.11,8.11,0,0,0,3.9,2.29c.35.11.71.21,1.07.3l0,0c1.24.68,2.59,1.19,3.78,2a6.4,6.4,0,0,1,2.63,3.7c.41,1.4.55,2.86.86,4.28a10.36,10.36,0,0,0,1.56,3.7,12.21,12.21,0,0,0,6.35,4.6,18.54,18.54,0,0,0,9.21.32,9.94,9.94,0,0,0,6.83-4.13,8.76,8.76,0,0,0,1-7.09,22.9,22.9,0,0,0-2-4,7.09,7.09,0,0,1-.89-4.24C263.33,90,268,86.21,266.79,81a12.13,12.13,0,0,0-1.7-3.71,11.9,11.9,0,0,1,2.73,5.92,10.52,10.52,0,0,1-1.78,6.7C264.83,92,263.4,94.16,263.43,96.67Zm-31-1.46a8,8,0,0,1-4.86-3.71,10.81,10.81,0,0,1-1.32-6.77,12,12,0,0,1,1.15-3.17.59.59,0,0,1,0-.08,12.31,12.31,0,0,0-.4,2.18,13.15,13.15,0,0,0,1.35,6.87,12.05,12.05,0,0,0,4.13,4.71Z" style="fill:#263238"></path><path d="M243.22,97.81c3.92,19.74,13.9,37.06,19.76,38.41,8.4,1.92,30.81-.64,41-3.66,3-.89-4.37-24-7.57-23.09-3.86,1.14-26.31,6.38-26.71,6.37-.87,0-14.36-17.93-17.59-22.57C246.18,84.77,241.09,87.07,243.22,97.81Z" style="fill:#f7a9a0"></path><path d="M316.53,128.84c-4.26,2.58-15,4.46-17.79,3.91s-6.57-18.74-4.69-20.94S310.93,102,316,102.68,320.93,126.17,316.53,128.84Z" style="fill:#f7a9a0"></path><polygon points="366.46 112.92 364.54 121.83 372.09 126.41 366.46 112.92" style="fill:#37474f"></polygon><polygon points="345.41 127.61 339.77 139.23 366.75 123.19 364.91 120.27 345.41 127.61" style="fill:#455a64"></polygon><path d="M327.64,115.09S323,98.32,318.5,97.32s-13.31,25.75-5,34.13c2.65,2.7,7.94,1.67,7.94,1.67ZM315,129.23c-6.45-6.52.16-28.89,3.67-28.12S326,116.49,326,116.49l-4.85,14S317.06,131.32,315,129.23Z" style="fill:#455a64"></path><polygon points="346.59 146.82 316.81 141.24 329.93 98.07 349 101.82 346.59 146.82" style="fill:#37474f"></polygon><polygon points="329.93 98.07 327.48 94.29 351.95 98.6 349 101.82 329.93 98.07" style="fill:#455a64"></polygon><path d="M370.13,114.56s2.6-3.47,3.45-2S370.13,114.56,370.13,114.56Z" style="fill:#455a64"></path><path d="M371,120.1s3.14-3,3.73-1.38S371,120.1,371,120.1Z" style="fill:#455a64"></path><path d="M376.12,116.36s3.93-1.81,4-.11S376.12,116.36,376.12,116.36Z" style="fill:#455a64"></path><path d="M378.32,120.66s4.07-1.48,4,.23S378.32,120.66,378.32,120.66Z" style="fill:#455a64"></path><path d="M378.21,112.7s3.54-2.5,3.9-.83S378.21,112.7,378.21,112.7Z" style="fill:#455a64"></path><path d="M383.1,116.19s4.14-1.29,4,.41S383.1,116.19,383.1,116.19Z" style="fill:#455a64"></path><path d="M373,126s4.29.64,3.39,2.09S373,126,373,126Z" style="fill:#455a64"></path><path d="M382.12,133.2s3.27,2.85,1.73,3.59S382.12,133.2,382.12,133.2Z" style="fill:#455a64"></path><path d="M377.23,130.48s3.76,2.16,2.39,3.18S377.23,130.48,377.23,130.48Z" style="fill:#455a64"></path><path d="M374.54,123.59s4.27-.7,3.86,1S374.54,123.59,374.54,123.59Z" style="fill:#455a64"></path><path d="M380,127.05s4,1.56,2.85,2.78S380,127.05,380,127.05Z" style="fill:#455a64"></path><path d="M308,103.23c-1.22,2.33,2.23,2.43,2.23,2.43s-5,1-5.33,4,3.86,2.77,4.16,2.77c-.26.06-4.83,1.14-4.86,4.09s4.16,2.31,4.43,2.26c-.24.14-3.28,2-2.79,4.19.83,3.85,8.74-.57,11.77.43,0,0-1.1,5.33-1.1,5.49,0,0,7.61-4,8.72-8.21a2.74,2.74,0,0,0-1.34-3.17s2.6-1,2.7-3.35c0-1.19-1.82-2.33-1.82-2.33a3.45,3.45,0,0,0,2-3c0-1.65-1.9-2.52-1.9-2.52s1.56-1.79,1-3.47C324.73,99.43,310.64,98.23,308,103.23Z" style="fill:#f7a9a0"></path><path d="M324.63,106.09a0,0,0,1,0,0-.07,24.43,24.43,0,0,0-14.58-.38c-.16,0-.14.31,0,.29A50.18,50.18,0,0,1,324.63,106.09Z" style="fill:#263238"></path><path d="M324.87,111.76c.05,0,.07-.08,0-.1a23,23,0,0,0-15.94.57c-.17.08-.25.33,0,.25C312.41,111.23,320.36,111,324.87,111.76Z" style="fill:#263238"></path><path d="M308.34,119c5-2,10.1-2.18,15.38-1.63.07,0,.08-.09,0-.11-2.51-1-5.92-1-8.57-.76a14.28,14.28,0,0,0-6.9,2.33C308.19,118.9,308.24,119.06,308.34,119Z" style="fill:#263238"></path><path d="M310.25,105.66a16.24,16.24,0,0,0-2.72,1.13,5.42,5.42,0,0,0-2.15,1.82,1.81,1.81,0,0,0-.23,1.26,2.64,2.64,0,0,0,.58,1.17,3.14,3.14,0,0,0,2.4.9l2.16,0-2,.79a8.79,8.79,0,0,0-2.48,1.44,3.19,3.19,0,0,0-1.27,2.25,1.8,1.8,0,0,0,1.28,1.88,5.47,5.47,0,0,0,2.73.06l2.51-.51-2.19,1.29a8.87,8.87,0,0,0-1.68,1.3,3.44,3.44,0,0,0-1,1.71,1.61,1.61,0,0,0,.61,1.6,3.54,3.54,0,0,0,2,.45,28.12,28.12,0,0,0,4.41-.55c.74-.12,1.48-.25,2.23-.34a5.45,5.45,0,0,1,2.24.08,5.88,5.88,0,0,0-2.21.13c-.73.14-1.46.32-2.19.5a24.31,24.31,0,0,1-4.47.8,4.29,4.29,0,0,1-2.37-.46,2.32,2.32,0,0,1-1-2.34,4.27,4.27,0,0,1,1.19-2.15,9.36,9.36,0,0,1,1.84-1.47l.32.79a6.36,6.36,0,0,1-3.24,0,2.67,2.67,0,0,1-1.42-1.07,3,3,0,0,1-.43-1.7,4,4,0,0,1,1.61-2.84A9.59,9.59,0,0,1,308,112l.15.75a3.77,3.77,0,0,1-2.92-1.27,3.19,3.19,0,0,1-.63-1.49,2.25,2.25,0,0,1,.36-1.58,5.48,5.48,0,0,1,2.43-1.82A13,13,0,0,1,310.25,105.66Z" style="fill:#263238"></path><path d="M296.38,110.07S308.67,92.9,313,101c1.3,2.4,3.75,13.82,1.46,14.35-3,.69-4.86-3.88-5.6-6.94,0,0-3.36,6.43-8.53,5.42A5.22,5.22,0,0,1,296.38,110.07Z" style="fill:#f7a9a0"></path><path d="M312.62,100.34a11.19,11.19,0,0,1,1.44,2.87,22.5,22.5,0,0,1,.89,3.11,36,36,0,0,1,.9,6.41,6,6,0,0,1-.15,1.71,2.28,2.28,0,0,1-.44.88,1.78,1.78,0,0,1-.4.36,2.09,2.09,0,0,1-.5.2,2.74,2.74,0,0,1-1.86-.27,5.14,5.14,0,0,1-1.37-1.11,9.86,9.86,0,0,1-1.66-2.89,21.94,21.94,0,0,1-1-3.12l.69.07a12.27,12.27,0,0,1-1.42,2A11.85,11.85,0,0,1,306,112.3a8.51,8.51,0,0,1-2.14,1.2,6.3,6.3,0,0,1-2.38.43,7.15,7.15,0,0,0,2.28-.67,8.57,8.57,0,0,0,1.93-1.32,11.34,11.34,0,0,0,1.59-1.73,12.05,12.05,0,0,0,1.23-2l.43-.86.27.94a24.7,24.7,0,0,0,1,3,10,10,0,0,0,1.55,2.63,2.65,2.65,0,0,0,2.35,1.1c.72-.11.86-1.28.86-2.28a30.85,30.85,0,0,0-.21-3.15c-.1-1-.22-2.11-.4-3.16A20.45,20.45,0,0,0,312.62,100.34Z" style="fill:#263238"></path><path d="M279.38,113.32,281,137.79s-16.12,2.17-20.57-1.52-14.72-21.83-17.22-36.19,2.66-16.55,11.07-4.35,15.12,19.69,15.52,19.67S279.38,113.32,279.38,113.32Z" style="fill:#52B2E7"></path><path d="M275,115.28a.07.07,0,0,0-.14,0,196.59,196.59,0,0,0,1.15,21.56c0,.08.14.07.14,0A199.1,199.1,0,0,0,275,115.28Z" style="fill:#263238"></path><path d="M267.77,138.31c-3.06-.22-5.84-.81-7.33-2-4.45-3.7-14.72-21.82-17.23-36.19-1.82-10.38.38-14.4,4.91-11.22Z" style="opacity:0.1"></path><path d="M229.08,340.3c-1.92.22-53.23-10.72-54.92-12.38-.65-.61.51-8.18,2.17-17.29a2.74,2.74,0,0,0,0-.28c.34-1.88,9.38-33.29,9.38-33.29l33.44,7.88L209.57,317l-.14.56s17.77,13,19.44,15S231,340.08,229.08,340.3Z" style="fill:#f7a9a0"></path><path d="M175.52,315.16c-1.2,7-1.9,12.25-1.36,12.76,1.69,1.67,53,12.6,54.93,12.38s1.43-5.71-.22-7.72c-1-1.23-8-6.52-13.32-10.48,3.56,2.88,8.68,9.77-13.28,2.72C188.72,320.46,180.25,317.16,175.52,315.16Z" style="fill:#263238"></path><path d="M248.5,130s2.87,24.52-2.19,30.11c0,0-7.79,55.58-11,71.85C231.08,253.42,214,308.11,214,308.11l-36.59-8.85s23.12-69.67,23.3-71.07c1-7.94,7-63.07,6.52-64.43C201,146.18,209.28,130,209.28,130Z" style="fill:#37474f"></path><path d="M213.3,298.27c-5.1-1.4-3.61-1.1-8.73-2.43-2.5-.65-19-4.92-21.43-5-.06,0-.08.12,0,.14,2.22,1.09,18.77,5,21.29,5.57,5.15,1.2,3.69.78,8.86,1.91C213.34,298.49,213.39,298.3,213.3,298.27Z" style="fill:#263238"></path><path d="M209.38,292.22l11.08-39,2.74-9.76,1.34-4.89a39.87,39.87,0,0,0,1.08-4.91c1-6.68,1.84-13.39,2.72-20.09l5.39-40.19,1.35-10.05.69-5c.13-.85.22-1.66.37-2.54a7.41,7.41,0,0,0,.15-1.21l0-1.26c.14-6.75.1-13.52.07-20.28.15,6.76.32,13.52.3,20.28,0,.43,0,.85,0,1.28a10.76,10.76,0,0,1-.15,1.3c-.13.78-.23,1.66-.35,2.48l-.66,5-1.29,10.05-5.14,40.23c-.92,6.7-1.82,13.39-2.85,20.08a39.32,39.32,0,0,1-1.12,5l-1.37,4.89-2.8,9.74-5.7,19.46Z" style="fill:#263238"></path><path d="M246.3,160.09s-3.06,21.85-6.13,42.15L209.27,130H248.5S251.36,154.5,246.3,160.09Z" style="fill:#263238"></path><path d="M309,303.37c-1.83.6-54.3.19-56.28-1.1-.76-.47,4.88-47.08,4.88-47.08l33.52,1.44-5.92,28.44s20,9.14,22,10.78S310.82,302.77,309,303.37Z" style="fill:#f7a9a0"></path><path d="M309,303.36c-.81.27-11.39.34-23.17.23l-2.34,0-6.05-.08-2.34-.05h0l-2.3-.05-3.44-.08-2.15-.06h0l-2.06-.06h0c-1,0-2-.06-2.89-.11l-1.82-.07c-1.14-.05-2.18-.11-3.1-.17-.47,0-.91-.06-1.31-.09-1-.08-1.81-.16-2.36-.25a2.89,2.89,0,0,1-.86-.22c-.27-.16-.1-5.84.23-13.22,5.06,1.19,14.33,3.05,28.5,5.09,23.3,3.35,16.35-2.92,12.4-5.05l-.12-.06.74.35.13.05,1.35.65,1.48.7c.81.39,1.63.78,2.41,1.17s1.55.75,2.26,1.11l1.24.61.57.3.75.39c.52.27,1,.52,1.38.75a1.51,1.51,0,0,1,.28.15,8.51,8.51,0,0,1,.92.59C309.24,297.48,310.82,302.77,309,303.36Z" style="fill:#263238"></path><path d="M289.58,272l-35.12.43s8.7-63.7,7.79-66.72c-.35-1.18-43-39.82-43-39.82-15.28-15.06-10-35.92-10-35.92H248.5s.53,6.12,2.59,8.44C262.89,151.65,293,179,297.57,191.2,303.35,206.47,289.58,272,289.58,272Z" style="fill:#37474f"></path><path d="M209.38,143.49a26.16,26.16,0,0,0,1.29,6.87,34.6,34.6,0,0,0,2.75,6.38,51.76,51.76,0,0,0,8.34,11.12c3.2,3.39,6.69,6.51,10.16,9.65q2.61,2.36,5.26,4.66l5.29,4.63c-1.9-1.37-3.75-2.82-5.61-4.25s-3.64-3-5.45-4.45c-3.58-3-7.08-6.18-10.37-9.56a49,49,0,0,1-8.29-11.44A28.27,28.27,0,0,1,209.38,143.49Z" style="fill:#263238"></path><path d="M239.39,133a17.84,17.84,0,0,0,.33,4.5,7.52,7.52,0,0,0,.72,2.11c.43.61.94,1.18,1.43,1.75,2,2.26,4,4.46,6.11,6.67l12.36,13.24q6.2,6.61,12.27,13.33c4.06,4.48,8.1,9,12,13.62,1,1.17,1.91,2.35,2.81,3.58.44.62.88,1.24,1.28,1.92a4.3,4.3,0,0,1,.49,1.11,9.31,9.31,0,0,1,.25,1.14,50.61,50.61,0,0,1,.2,9.12c-.3,6-.92,12.06-1.66,18.05-1.49,12-3.37,23.93-5.49,35.81q1.41-8.94,2.62-17.92c.84-6,1.62-12,2.29-18s1.29-12,1.56-18a50.58,50.58,0,0,0-.23-9,9.7,9.7,0,0,0-.23-1.07,3.76,3.76,0,0,0-.43-.94c-.37-.63-.8-1.24-1.24-1.85-.89-1.2-1.84-2.37-2.79-3.53-7.71-9.27-16-18.1-24.08-27l-12.21-13.38c-2-2.25-4-4.5-6-6.81-.48-.58-1-1.15-1.4-1.78a7.44,7.44,0,0,1-.7-2.17A18,18,0,0,1,239.39,133Z" style="fill:#263238"></path><path d="M286.84,263.67c-4.91-.15-3.5-.2-8.41-.27-2.4,0-18.2-.23-20.44.3-.05,0-.05.13,0,.14,2.25.52,18,.33,20.44.3,4.91-.07,3.5-.13,8.41-.27C286.94,263.87,286.94,263.67,286.84,263.67Z" style="fill:#263238"></path><path d="M250.68,123.8,248.74,130s-26.48,2.81-39.36,0c0,0,9.09-31.47,24-40.17,7.44-4.35,13.86-1.88,16.74,3.64.73,1.4,6,14.83,6,20.47C256.11,119.92,250.68,123.8,250.68,123.8Z" style="fill:#52B2E7"></path><path d="M245.1,119.21a44.75,44.75,0,0,0-6.31,1.09c-1,.28-2,.6-3,.94-.51.17-1,.32-1.52.47a6.94,6.94,0,0,1-1.62.32,0,0,0,0,0,0,.08,10.3,10.3,0,0,0,1.57,0,9.56,9.56,0,0,0,1.49-.29c1-.27,2.08-.58,3.12-.86,2.1-.56,4.2-1.12,6.34-1.53C245.23,119.37,245.2,119.2,245.1,119.21Z" style="fill:#263238"></path><path d="M250.38,121.05a49.06,49.06,0,0,0-5.28-.21c-.89,0-1.76.09-2.64.18l-1.26.16c-.45.06-.91.18-1.37.24,0,0,0,.08,0,.07.43,0,.88,0,1.31,0l1.32,0,2.64-.09c1.76-.07,3.51-.13,5.27-.15C250.48,121.19,250.47,121.06,250.38,121.05Z" style="fill:#263238"></path><path d="M232,90.75c-18.07,10.59-34.7,24.14-35,30.54-.35,8.62,8.15,27.13,13.45,36.33,1.56,2.71,22.35-9.83,20.69-12.73-2-3.49-12.68-21.41-12.77-21.8-.18-.85,13.8-20.47,17.26-25.07C241.47,90.33,240,86.05,232,90.75Z" style="fill:#f7a9a0"></path><path d="M246.4,170.81a3.7,3.7,0,0,1-4.08,1.15,5.51,5.51,0,0,1-1.6,3.39c-1.68,1.53-4.81-.44-4.81-.44a6.79,6.79,0,0,1-2.25,3.3c-1.76,1.3-5.2-.24-5.2-.24a6,6,0,0,1-3.82,1.66c-3.82.06-7-4.86-9-8s-4.94-13.82-5.7-15.81l19.81-13.29s13.13,11.31,15,15.3C246.32,161.23,248.16,168.5,246.4,170.81Z" style="fill:#f7a9a0"></path><path d="M242.55,171.61c-.83-4-2.79-7.5-4.55-11.12,0-.08-.17,0-.13.07,1.79,3.58,2.85,7.47,4.5,11.11A.1.1,0,0,0,242.55,171.61Z" style="fill:#263238"></path><path d="M236.13,174.67a10.66,10.66,0,0,0-1.16-2.52c-.48-.86-1-1.71-1.47-2.55-1-1.7-2-3.36-3.13-5-.05-.07-.17,0-.12.06,1,1.69,2,3.39,2.89,5.12.46.86.92,1.73,1.37,2.6a12.52,12.52,0,0,0,1.38,2.41A.14.14,0,0,0,236.13,174.67Z" style="fill:#263238"></path><path d="M228.42,177.9a7.46,7.46,0,0,0-1.17-2.21c-.47-.76-.94-1.52-1.4-2.29-.93-1.53-1.86-3.06-2.74-4.63,0-.08-.16,0-.12.06.88,1.6,1.74,3.2,2.63,4.79L227,176a7.06,7.06,0,0,0,1.4,2S228.43,177.94,228.42,177.9Z" style="fill:#263238"></path><path d="M224.09,132l-23.37,9.84s-5.55-16.86-3.5-22.28S215.85,99.06,228.6,92s14.32-2.72,5.54,9.21-15,21.4-14.81,21.77S224.09,132,224.09,132Z" style="fill:#52B2E7"></path><path d="M220.37,127.54c.07,0,0-.16-.06-.13a197.17,197.17,0,0,0-19.94,8.3c-.07,0,0,.15.06.13A199.5,199.5,0,0,0,220.37,127.54Z" style="fill:#263238"></path><path d="M224.09,132c-.87-1.46-1.71-2.93-2.55-4.4l-2.49-4.44L219,123l.11-.16,3.47-5.21c1.16-1.74,2.36-3.45,3.54-5.17s2.39-3.43,3.6-5.12,2.45-3.39,3.7-5c-1.09,1.78-2.19,3.56-3.32,5.31s-2.26,3.51-3.43,5.24-2.29,3.48-3.48,5.2l-3.55,5.15v-.32l2.28,4.54C222.63,128.91,223.38,130.44,224.09,132Z" style="fill:#263238"></path><path d="M230,107.3a10.65,10.65,0,0,1,1.53-1.74,14.2,14.2,0,0,1,1.81-1.45,5.07,5.07,0,0,1-.67,1,10.46,10.46,0,0,1-.79.84A9.48,9.48,0,0,1,230,107.3Z" style="fill:#263238"></path><path d="M240.15,88.76c.1.88,3.5,6.92,7.42,7.21,1.28.09,2.1-6.86,2.1-6.86l.18-.5,2.48-7-7.78-6.45-1.14-.87s-.55,2-1.22,4.41l-.09.35c0,.14-.08.26-.12.39l-.3,1.11c-.08.29-.15.56-.22.86l-.21.9A49.23,49.23,0,0,0,240.15,88.76Z" style="fill:#f7a9a0"></path><path d="M242.19,78.7a15,15,0,0,0,7.66,9.91l2.48-7-7.78-6.45-1.14-.87S242.86,76.25,242.19,78.7Z" style="fill:#263238"></path><path d="M263.15,69.22c2,12.87-5.48,15.53-8.26,16-2.52.39-11.15,1.39-14.48-11.2s2-17.6,7.74-18.8S261.14,56.34,263.15,69.22Z" style="fill:#f7a9a0"></path><path d="M260.23,66c-.31,0-.6,0-.9,0a1.51,1.51,0,0,1-.91-.23.47.47,0,0,1-.09-.56,1.17,1.17,0,0,1,1.08-.44,1.7,1.7,0,0,1,1.14.43A.49.49,0,0,1,260.23,66Z" style="fill:#263238"></path><path d="M251.91,68.47a8.86,8.86,0,0,0,.9-.07,1.42,1.42,0,0,0,.9-.24.47.47,0,0,0,.08-.56,1.14,1.14,0,0,0-1.09-.42,1.7,1.7,0,0,0-1.13.45A.5.5,0,0,0,251.91,68.47Z" style="fill:#263238"></path><path d="M254.25,71.05s-.06.06-.05.09c.18.87.25,1.89-.49,2.33a0,0,0,0,0,0,0C254.67,73.2,254.56,71.84,254.25,71.05Z" style="fill:#263238"></path><path d="M253.31,70.28c-1.43.15-1,3,.29,2.85S254.5,70.16,253.31,70.28Z" style="fill:#263238"></path><path d="M252.77,70.51c-.23.19-.43.51-.72.58s-.65-.17-.91-.43c0,0,0,0,0,0,.07.55.36,1.07.95,1.07s.86-.53.92-1.1C253,70.57,252.86,70.43,252.77,70.51Z" style="fill:#263238"></path><path d="M259,70.07s.07,0,.07.06c.09.89.34,1.88,1.18,2.07,0,0,0,0,0,0C259.3,72.24,259,70.92,259,70.07Z" style="fill:#263238"></path><path d="M259.7,69c1.4-.29,1.89,2.53.59,2.8S258.52,69.29,259.7,69Z" style="fill:#263238"></path><path d="M260.32,69.13c.25.11.52.34.78.31s.49-.38.64-.7c0,0,0,0,.05,0,.11.54,0,1.13-.48,1.32s-.88-.22-1.1-.74C260.17,69.25,260.22,69.08,260.32,69.13Z" style="fill:#263238"></path><path d="M255.27,78c.23.18.46.45.79.45a2.45,2.45,0,0,0,.93-.32s.05,0,0,0a1.2,1.2,0,0,1-1.08.58,1,1,0,0,1-.77-.71A.06.06,0,0,1,255.27,78Z" style="fill:#263238"></path><path d="M258.45,74.26s.38,1.28.47,1.9c0,.06-.13.11-.34.15h0a3,3,0,0,1-3-.66c-.05-.05,0-.13.08-.1a4.45,4.45,0,0,0,2.8.36c0-.18-.72-2.17-.63-2.19a5.33,5.33,0,0,1,1.46.1c-.72-2.69-1.86-5.25-2.54-7.94,0-.1.12-.15.16-.07A45,45,0,0,1,260,74.25C260.05,74.59,258.71,74.32,258.45,74.26Z" style="fill:#263238"></path><path d="M240.42,75c2.22-.08,2.21-4.76,2.21-4.76s4.48-.49,5.22-7.09a9.88,9.88,0,0,1-1.38,5.54s7.8-1.73,10.38-8.71c0,0-1,3.52-2.05,4.85a9.27,9.27,0,0,0,4.51-4.16s1.82,3.65,3,4.58c0,0-1.89-13.77-14.52-10.85,0,0-7.95,1.43-10.11,8.1S240.42,75,240.42,75Z" style="fill:#263238"></path><path d="M243,74.44s-2.93-4-4.75-3,.43,6.9,2.61,7.66a2.21,2.21,0,0,0,2.93-1.24Z" style="fill:#f7a9a0"></path><path d="M239,73.15s0,0,0,.06a5.52,5.52,0,0,1,3,3.42,1.21,1.21,0,0,0-1.82-.29s0,.09,0,.08a1.35,1.35,0,0,1,1.5.44,7,7,0,0,1,.74,1.19c.07.14.32.06.26-.1v0C242.61,76,241.05,73.3,239,73.15Z" style="fill:#263238"></path><path d="M249.67,89.23l-2.95,5.48-6.31-8-2.28,2.1s5.68,12.3,5.78,11.79l2.92-4.68,3,3.82.7-8.66Z" style="fill:#fff"></path><path d="M250.44,95.43c.06-1.44.17-2.88.17-4.31,0-.05-.08-.09-.09,0-.44,1.35-.67,6.83-.82,8.13h0c-.13-.17-2.83-3.38-2.86-3.34-.6.73-2.74,4.13-2.89,4.45-.9-2-4.38-9.09-5.49-11,0-.06-.11,0-.09,0,.76,2,5.34,11.63,5.43,11.61a56.58,56.58,0,0,0,3.06-5,36.53,36.53,0,0,0,3.16,4.06A46.17,46.17,0,0,0,250.44,95.43Z" style="fill:#263238"></path></g></svg>