<svg xmlns="http://www.w3.org/2000/svg" viewBox="0 0 500 500"><g id="freepik--background-complete--inject-473"><path d="M454.71,143.27h-85.6s8.49-23.19,21.55-23.19,17.15,16,17.15,16,8.81-8.69,16.05-8.69,13.54,11.49,13.54,11.49S447.63,132.7,454.71,143.27Z" style="fill:#ebebeb"></path><path d="M437.35,91.42h-40s8.94-13,16-13,9.13,8.64,9.13,8.64,5-4,9.57-3.31S437.35,91.42,437.35,91.42Z" style="fill:#ebebeb"></path><path d="M123.21,110.75H45.29S56,86.93,67.38,85.44s16.87,17.7,16.87,17.7,7.36-6.78,13.15-6.78,10.26,8.93,10.26,8.93S119.24,99.17,123.21,110.75Z" style="fill:#ebebeb"></path><path d="M179.93,61.47H127.29s9-17.26,18.85-17.52,15,13.07,15,13.07S176.37,44.77,179.93,61.47Z" style="fill:#ebebeb"></path><path d="M206.77,124.53H171.24s6.11-11.65,12.73-11.82,10.1,8.82,10.1,8.82S204.37,113.26,206.77,124.53Z" style="fill:#ebebeb"></path><rect x="334.36" y="140.65" width="31.77" height="166.52" style="fill:#dbdbdb"></rect><rect x="339.29" y="146.06" width="6.18" height="6.36" style="fill:#ebebeb"></rect><rect x="347.19" y="146.06" width="6.18" height="6.36" style="fill:#ebebeb"></rect><rect x="339.29" y="156.86" width="6.18" height="6.36" style="fill:#ebebeb"></rect><rect x="347.19" y="156.86" width="6.18" height="6.36" style="fill:#ebebeb"></rect><rect x="339.29" y="167.65" width="6.18" height="6.36" style="fill:#ebebeb"></rect><rect x="347.19" y="167.65" width="6.18" height="6.36" style="fill:#ebebeb"></rect><rect x="339.29" y="178.45" width="6.18" height="6.36" style="fill:#ebebeb"></rect><rect x="347.19" y="178.45" width="6.18" height="6.36" style="fill:#ebebeb"></rect><rect x="339.29" y="189.24" width="6.18" height="6.36" style="fill:#ebebeb"></rect><rect x="347.19" y="189.24" width="6.18" height="6.36" style="fill:#ebebeb"></rect><rect x="339.29" y="200.04" width="6.18" height="6.36" style="fill:#ebebeb"></rect><rect x="347.19" y="200.04" width="6.18" height="6.36" style="fill:#ebebeb"></rect><rect x="339.29" y="210.83" width="6.18" height="6.36" style="fill:#ebebeb"></rect><rect x="347.19" y="210.83" width="6.18" height="6.36" style="fill:#ebebeb"></rect><rect x="339.29" y="221.63" width="6.18" height="6.36" style="fill:#ebebeb"></rect><rect x="347.19" y="221.63" width="6.18" height="6.36" style="fill:#ebebeb"></rect><rect x="339.29" y="232.42" width="6.18" height="6.36" style="fill:#ebebeb"></rect><rect x="347.19" y="232.42" width="6.18" height="6.36" style="fill:#ebebeb"></rect><rect x="339.29" y="243.22" width="6.18" height="6.36" style="fill:#ebebeb"></rect><rect x="347.19" y="243.22" width="6.18" height="6.36" style="fill:#ebebeb"></rect><rect x="339.29" y="254.01" width="6.18" height="6.36" style="fill:#ebebeb"></rect><rect x="347.19" y="254.01" width="6.18" height="6.36" style="fill:#ebebeb"></rect><rect x="339.29" y="264.81" width="6.18" height="6.36" style="fill:#ebebeb"></rect><rect x="347.19" y="264.81" width="6.18" height="6.36" style="fill:#ebebeb"></rect><rect x="339.29" y="275.6" width="6.18" height="6.36" style="fill:#ebebeb"></rect><rect x="347.19" y="275.6" width="6.18" height="6.36" style="fill:#ebebeb"></rect><rect x="339.29" y="286.4" width="6.18" height="6.36" style="fill:#ebebeb"></rect><rect x="355.02" y="286.4" width="6.18" height="6.36" transform="translate(716.21 579.16) rotate(180)" style="fill:#ebebeb"></rect><rect x="355.02" y="275.6" width="6.18" height="6.36" transform="translate(716.21 557.57) rotate(180)" style="fill:#ebebeb"></rect><rect x="355.02" y="264.81" width="6.18" height="6.36" transform="translate(716.21 535.98) rotate(180)" style="fill:#ebebeb"></rect><rect x="355.02" y="254.01" width="6.18" height="6.36" transform="translate(716.21 514.39) rotate(180)" style="fill:#ebebeb"></rect><rect x="355.02" y="243.22" width="6.18" height="6.36" transform="translate(716.21 492.79) rotate(180)" style="fill:#ebebeb"></rect><rect x="355.02" y="232.42" width="6.18" height="6.36" transform="translate(716.21 471.2) rotate(180)" style="fill:#ebebeb"></rect><rect x="355.02" y="221.63" width="6.18" height="6.36" transform="translate(716.21 449.61) rotate(180)" style="fill:#ebebeb"></rect><rect x="355.02" y="210.83" width="6.18" height="6.36" transform="translate(716.21 428.02) rotate(180)" style="fill:#ebebeb"></rect><rect x="355.02" y="200.04" width="6.18" height="6.36" transform="translate(716.21 406.43) rotate(180)" style="fill:#ebebeb"></rect><rect x="355.02" y="189.24" width="6.18" height="6.36" transform="translate(716.21 384.84) rotate(180)" style="fill:#ebebeb"></rect><rect x="355.02" y="178.45" width="6.18" height="6.36" transform="translate(716.21 363.25) rotate(180)" style="fill:#ebebeb"></rect><rect x="355.02" y="167.65" width="6.18" height="6.36" transform="translate(716.21 341.66) rotate(180)" style="fill:#ebebeb"></rect><rect x="355.02" y="156.86" width="6.18" height="6.36" transform="translate(716.21 320.07) rotate(180)" style="fill:#ebebeb"></rect><rect x="355.02" y="146.06" width="6.18" height="6.36" transform="translate(716.21 298.48) rotate(180)" style="fill:#ebebeb"></rect><rect x="347.19" y="286.4" width="6.18" height="6.36" style="fill:#ebebeb"></rect><rect x="366.12" y="140.65" width="25.05" height="166.52" style="fill:#a6a6a6"></rect><rect x="383.49" y="286.4" width="5.1" height="6.36" transform="translate(772.07 579.16) rotate(180)" style="fill:#c7c7c7"></rect><rect x="376.96" y="286.4" width="5.1" height="6.36" transform="translate(759.03 579.16) rotate(180)" style="fill:#c7c7c7"></rect><rect x="383.49" y="275.6" width="5.1" height="6.36" transform="translate(772.07 557.57) rotate(180)" style="fill:#c7c7c7"></rect><rect x="376.96" y="275.6" width="5.1" height="6.36" transform="translate(759.03 557.57) rotate(180)" style="fill:#c7c7c7"></rect><rect x="383.49" y="264.81" width="5.1" height="6.36" transform="translate(772.07 535.98) rotate(180)" style="fill:#c7c7c7"></rect><rect x="376.96" y="264.81" width="5.1" height="6.36" transform="translate(759.03 535.98) rotate(180)" style="fill:#c7c7c7"></rect><rect x="383.49" y="254.01" width="5.1" height="6.36" transform="translate(772.07 514.39) rotate(180)" style="fill:#c7c7c7"></rect><rect x="376.96" y="254.01" width="5.1" height="6.36" transform="translate(759.03 514.39) rotate(180)" style="fill:#c7c7c7"></rect><rect x="383.49" y="243.22" width="5.1" height="6.36" transform="translate(772.07 492.79) rotate(180)" style="fill:#c7c7c7"></rect><rect x="376.96" y="243.22" width="5.1" height="6.36" transform="translate(759.03 492.79) rotate(180)" style="fill:#c7c7c7"></rect><rect x="383.49" y="232.42" width="5.1" height="6.36" transform="translate(772.07 471.2) rotate(180)" style="fill:#c7c7c7"></rect><rect x="376.96" y="232.42" width="5.1" height="6.36" transform="translate(759.03 471.2) rotate(180)" style="fill:#c7c7c7"></rect><rect x="383.49" y="221.63" width="5.1" height="6.36" transform="translate(772.07 449.61) rotate(180)" style="fill:#c7c7c7"></rect><rect x="376.96" y="221.63" width="5.1" height="6.36" transform="translate(759.03 449.61) rotate(180)" style="fill:#c7c7c7"></rect><rect x="383.49" y="210.83" width="5.1" height="6.36" transform="translate(772.07 428.02) rotate(180)" style="fill:#c7c7c7"></rect><rect x="376.96" y="210.83" width="5.1" height="6.36" transform="translate(759.03 428.02) rotate(180)" style="fill:#c7c7c7"></rect><rect x="383.49" y="200.04" width="5.1" height="6.36" transform="translate(772.07 406.43) rotate(180)" style="fill:#c7c7c7"></rect><rect x="376.96" y="200.04" width="5.1" height="6.36" transform="translate(759.03 406.43) rotate(180)" style="fill:#c7c7c7"></rect><rect x="383.49" y="189.24" width="5.1" height="6.36" transform="translate(772.07 384.84) rotate(180)" style="fill:#c7c7c7"></rect><rect x="376.96" y="189.24" width="5.1" height="6.36" transform="translate(759.03 384.84) rotate(180)" style="fill:#c7c7c7"></rect><rect x="383.49" y="178.45" width="5.1" height="6.36" transform="translate(772.07 363.25) rotate(180)" style="fill:#c7c7c7"></rect><rect x="376.96" y="178.45" width="5.1" height="6.36" transform="translate(759.03 363.25) rotate(180)" style="fill:#c7c7c7"></rect><rect x="383.49" y="167.65" width="5.1" height="6.36" transform="translate(772.07 341.66) rotate(180)" style="fill:#c7c7c7"></rect><rect x="376.96" y="167.65" width="5.1" height="6.36" transform="translate(759.03 341.66) rotate(180)" style="fill:#c7c7c7"></rect><rect x="383.49" y="156.86" width="5.1" height="6.36" transform="translate(772.07 320.07) rotate(180)" style="fill:#c7c7c7"></rect><rect x="376.96" y="156.86" width="5.1" height="6.36" transform="translate(759.03 320.07) rotate(180)" style="fill:#c7c7c7"></rect><rect x="383.49" y="146.06" width="5.1" height="6.36" transform="translate(772.07 298.48) rotate(180)" style="fill:#c7c7c7"></rect><rect x="370.5" y="146.06" width="5.1" height="6.36" style="fill:#c7c7c7"></rect><rect x="370.5" y="156.86" width="5.1" height="6.36" style="fill:#c7c7c7"></rect><rect x="370.5" y="167.65" width="5.1" height="6.36" style="fill:#c7c7c7"></rect><rect x="370.5" y="178.45" width="5.1" height="6.36" style="fill:#c7c7c7"></rect><rect x="370.5" y="189.24" width="5.1" height="6.36" style="fill:#c7c7c7"></rect><rect x="370.5" y="200.04" width="5.1" height="6.36" style="fill:#c7c7c7"></rect><rect x="370.5" y="210.83" width="5.1" height="6.36" style="fill:#c7c7c7"></rect><rect x="370.5" y="221.63" width="5.1" height="6.36" style="fill:#c7c7c7"></rect><rect x="370.5" y="232.42" width="5.1" height="6.36" style="fill:#c7c7c7"></rect><rect x="370.5" y="243.22" width="5.1" height="6.36" style="fill:#c7c7c7"></rect><rect x="370.5" y="254.01" width="5.1" height="6.36" style="fill:#c7c7c7"></rect><rect x="370.5" y="264.81" width="5.1" height="6.36" style="fill:#c7c7c7"></rect><rect x="370.5" y="275.6" width="5.1" height="6.36" style="fill:#c7c7c7"></rect><rect x="370.5" y="286.4" width="5.1" height="6.36" style="fill:#c7c7c7"></rect><rect x="376.96" y="146.06" width="5.1" height="6.36" transform="translate(759.03 298.48) rotate(180)" style="fill:#c7c7c7"></rect><rect x="102.99" y="131.67" width="37.58" height="175.5" style="fill:#ebebeb"></rect><rect x="102.09" y="127.83" width="38.48" height="3.84" style="fill:#c7c7c7"></rect><rect x="106.39" y="137.34" width="3.81" height="169.84" style="fill:#fff"></rect><rect x="113.13" y="137.34" width="3.81" height="169.84" style="fill:#fff"></rect><rect x="119.88" y="137.34" width="3.81" height="169.84" style="fill:#fff"></rect><rect x="126.62" y="137.34" width="3.81" height="169.84" style="fill:#fff"></rect><rect x="133.37" y="137.34" width="3.81" height="169.84" style="fill:#fff"></rect><rect x="106.39" y="142.19" width="3.81" height="7.58" style="fill:#ebebeb"></rect><rect x="113.13" y="142.19" width="3.81" height="7.58" style="fill:#ebebeb"></rect><rect x="119.88" y="142.19" width="3.81" height="7.58" style="fill:#ebebeb"></rect><rect x="126.62" y="142.19" width="3.81" height="7.58" style="fill:#ebebeb"></rect><rect x="133.37" y="142.19" width="3.81" height="7.58" style="fill:#ebebeb"></rect><rect x="106.39" y="154.52" width="3.81" height="7.59" style="fill:#ebebeb"></rect><rect x="113.13" y="154.52" width="3.81" height="7.59" style="fill:#ebebeb"></rect><rect x="119.88" y="154.52" width="3.81" height="7.59" style="fill:#ebebeb"></rect><rect x="126.62" y="154.52" width="3.81" height="7.59" style="fill:#ebebeb"></rect><rect x="133.37" y="154.52" width="3.81" height="7.59" style="fill:#ebebeb"></rect><rect x="106.39" y="166.85" width="3.81" height="7.58" style="fill:#ebebeb"></rect><rect x="113.13" y="166.85" width="3.81" height="7.58" style="fill:#ebebeb"></rect><rect x="119.88" y="166.85" width="3.81" height="7.58" style="fill:#ebebeb"></rect><rect x="126.62" y="166.85" width="3.81" height="7.58" style="fill:#ebebeb"></rect><rect x="133.37" y="166.85" width="3.81" height="7.58" style="fill:#ebebeb"></rect><rect x="106.39" y="179.17" width="3.81" height="7.59" style="fill:#ebebeb"></rect><rect x="113.13" y="179.17" width="3.81" height="7.59" style="fill:#ebebeb"></rect><rect x="119.88" y="179.17" width="3.81" height="7.59" style="fill:#ebebeb"></rect><rect x="126.62" y="179.17" width="3.81" height="7.59" style="fill:#ebebeb"></rect><rect x="133.37" y="179.17" width="3.81" height="7.59" style="fill:#ebebeb"></rect><rect x="106.39" y="191.5" width="3.81" height="7.59" style="fill:#ebebeb"></rect><rect x="113.13" y="191.5" width="3.81" height="7.59" style="fill:#ebebeb"></rect><rect x="119.88" y="191.5" width="3.81" height="7.59" style="fill:#ebebeb"></rect><rect x="126.62" y="191.5" width="3.81" height="7.59" style="fill:#ebebeb"></rect><rect x="133.37" y="191.5" width="3.81" height="7.59" style="fill:#ebebeb"></rect><rect x="106.39" y="203.83" width="3.81" height="7.59" style="fill:#ebebeb"></rect><rect x="113.13" y="203.83" width="3.81" height="7.59" style="fill:#ebebeb"></rect><rect x="119.88" y="203.83" width="3.81" height="7.59" style="fill:#ebebeb"></rect><rect x="126.62" y="203.83" width="3.81" height="7.59" style="fill:#ebebeb"></rect><rect x="133.37" y="203.83" width="3.81" height="7.59" style="fill:#ebebeb"></rect><rect x="106.39" y="216.16" width="3.81" height="7.59" style="fill:#ebebeb"></rect><rect x="113.13" y="216.16" width="3.81" height="7.59" style="fill:#ebebeb"></rect><rect x="119.88" y="216.16" width="3.81" height="7.59" style="fill:#ebebeb"></rect><rect x="126.62" y="216.16" width="3.81" height="7.59" style="fill:#ebebeb"></rect><rect x="133.37" y="216.16" width="3.81" height="7.59" style="fill:#ebebeb"></rect><rect x="106.39" y="228.48" width="3.81" height="7.59" style="fill:#ebebeb"></rect><rect x="113.13" y="228.48" width="3.81" height="7.59" style="fill:#ebebeb"></rect><rect x="119.88" y="228.48" width="3.81" height="7.59" style="fill:#ebebeb"></rect><rect x="126.62" y="228.48" width="3.81" height="7.59" style="fill:#ebebeb"></rect><rect x="133.37" y="228.48" width="3.81" height="7.59" style="fill:#ebebeb"></rect><rect x="106.39" y="240.81" width="3.81" height="7.58" style="fill:#ebebeb"></rect><rect x="113.13" y="240.81" width="3.81" height="7.58" style="fill:#ebebeb"></rect><rect x="119.88" y="240.81" width="3.81" height="7.58" style="fill:#ebebeb"></rect><rect x="126.62" y="240.81" width="3.81" height="7.58" style="fill:#ebebeb"></rect><rect x="133.37" y="240.81" width="3.81" height="7.58" style="fill:#ebebeb"></rect><rect x="106.39" y="253.14" width="3.81" height="7.59" style="fill:#ebebeb"></rect><rect x="113.13" y="253.14" width="3.81" height="7.59" style="fill:#ebebeb"></rect><rect x="119.88" y="253.14" width="3.81" height="7.59" style="fill:#ebebeb"></rect><rect x="126.62" y="253.14" width="3.81" height="7.59" style="fill:#ebebeb"></rect><rect x="133.37" y="253.14" width="3.81" height="7.59" style="fill:#ebebeb"></rect><rect x="106.39" y="265.47" width="3.81" height="7.58" style="fill:#ebebeb"></rect><rect x="113.13" y="265.47" width="3.81" height="7.58" style="fill:#ebebeb"></rect><rect x="119.88" y="265.47" width="3.81" height="7.58" style="fill:#ebebeb"></rect><rect x="126.62" y="265.47" width="3.81" height="7.58" style="fill:#ebebeb"></rect><rect x="133.37" y="265.47" width="3.81" height="7.58" style="fill:#ebebeb"></rect><rect x="106.39" y="277.79" width="3.81" height="7.58" style="fill:#ebebeb"></rect><rect x="113.13" y="277.79" width="3.81" height="7.58" style="fill:#ebebeb"></rect><rect x="119.88" y="277.79" width="3.81" height="7.58" style="fill:#ebebeb"></rect><rect x="126.62" y="277.79" width="3.81" height="7.58" style="fill:#ebebeb"></rect><rect x="133.37" y="277.79" width="3.81" height="7.58" style="fill:#ebebeb"></rect><rect x="106.39" y="290.12" width="3.81" height="7.59" style="fill:#ebebeb"></rect><rect x="113.13" y="290.12" width="3.81" height="7.59" style="fill:#ebebeb"></rect><rect x="119.88" y="290.12" width="3.81" height="7.59" style="fill:#ebebeb"></rect><rect x="126.62" y="290.12" width="3.81" height="7.59" style="fill:#ebebeb"></rect><rect x="133.37" y="290.12" width="3.81" height="7.59" style="fill:#ebebeb"></rect><rect x="106.39" y="302.45" width="3.81" height="4.73" style="fill:#ebebeb"></rect><rect x="113.13" y="302.45" width="3.81" height="4.73" style="fill:#ebebeb"></rect><rect x="119.88" y="302.45" width="3.81" height="4.73" style="fill:#ebebeb"></rect><rect x="126.62" y="302.45" width="3.81" height="4.73" style="fill:#ebebeb"></rect><rect x="133.37" y="302.45" width="3.81" height="4.73" style="fill:#ebebeb"></rect><rect x="140.57" y="131.67" width="24.13" height="175.5" style="fill:#dbdbdb"></rect><rect x="140.57" y="127.83" width="25.17" height="3.84" style="fill:#c7c7c7"></rect><rect x="143.97" y="137.34" width="3.81" height="169.84" style="fill:#c7c7c7"></rect><rect x="150.72" y="137.34" width="3.81" height="169.84" style="fill:#c7c7c7"></rect><rect x="157.46" y="137.34" width="3.81" height="169.84" style="fill:#c7c7c7"></rect><rect x="143.97" y="142.19" width="3.81" height="7.58" style="fill:#dbdbdb"></rect><rect x="150.72" y="142.19" width="3.81" height="7.58" style="fill:#dbdbdb"></rect><rect x="157.46" y="142.19" width="3.81" height="7.58" style="fill:#dbdbdb"></rect><rect x="143.97" y="154.52" width="3.81" height="7.59" style="fill:#dbdbdb"></rect><rect x="150.72" y="154.52" width="3.81" height="7.59" style="fill:#dbdbdb"></rect><rect x="157.46" y="154.52" width="3.81" height="7.59" style="fill:#dbdbdb"></rect><rect x="143.97" y="166.85" width="3.81" height="7.58" style="fill:#dbdbdb"></rect><rect x="150.72" y="166.85" width="3.81" height="7.58" style="fill:#dbdbdb"></rect><rect x="157.46" y="166.85" width="3.81" height="7.58" style="fill:#dbdbdb"></rect><rect x="143.97" y="179.17" width="3.81" height="7.59" style="fill:#dbdbdb"></rect><rect x="150.72" y="179.17" width="3.81" height="7.59" style="fill:#dbdbdb"></rect><rect x="157.46" y="179.17" width="3.81" height="7.59" style="fill:#dbdbdb"></rect><rect x="143.97" y="191.5" width="3.81" height="7.59" style="fill:#dbdbdb"></rect><rect x="150.72" y="191.5" width="3.81" height="7.59" style="fill:#dbdbdb"></rect><rect x="157.46" y="191.5" width="3.81" height="7.59" style="fill:#dbdbdb"></rect><rect x="143.97" y="203.83" width="3.81" height="7.59" style="fill:#dbdbdb"></rect><rect x="150.72" y="203.83" width="3.81" height="7.59" style="fill:#dbdbdb"></rect><rect x="157.46" y="203.83" width="3.81" height="7.59" style="fill:#dbdbdb"></rect><rect x="143.97" y="216.16" width="3.81" height="7.59" style="fill:#dbdbdb"></rect><rect x="150.72" y="216.16" width="3.81" height="7.59" style="fill:#dbdbdb"></rect><rect x="157.46" y="216.16" width="3.81" height="7.59" style="fill:#dbdbdb"></rect><rect x="143.97" y="228.48" width="3.81" height="7.59" style="fill:#dbdbdb"></rect><rect x="150.72" y="228.48" width="3.81" height="7.59" style="fill:#dbdbdb"></rect><rect x="157.46" y="228.48" width="3.81" height="7.59" style="fill:#dbdbdb"></rect><rect x="143.97" y="240.81" width="3.81" height="7.58" style="fill:#dbdbdb"></rect><rect x="150.72" y="240.81" width="3.81" height="7.58" style="fill:#dbdbdb"></rect><rect x="157.46" y="240.81" width="3.81" height="7.58" style="fill:#dbdbdb"></rect><rect x="143.97" y="253.14" width="3.81" height="7.59" style="fill:#dbdbdb"></rect><rect x="150.72" y="253.14" width="3.81" height="7.59" style="fill:#dbdbdb"></rect><rect x="157.46" y="253.14" width="3.81" height="7.59" style="fill:#dbdbdb"></rect><rect x="143.97" y="265.47" width="3.81" height="7.58" style="fill:#dbdbdb"></rect><rect x="150.72" y="265.47" width="3.81" height="7.58" style="fill:#dbdbdb"></rect><rect x="157.46" y="265.47" width="3.81" height="7.58" style="fill:#dbdbdb"></rect><rect x="143.97" y="277.79" width="3.81" height="7.58" style="fill:#dbdbdb"></rect><rect x="150.72" y="277.79" width="3.81" height="7.58" style="fill:#dbdbdb"></rect><rect x="157.46" y="277.79" width="3.81" height="7.58" style="fill:#dbdbdb"></rect><rect x="143.97" y="290.12" width="3.81" height="7.59" style="fill:#dbdbdb"></rect><rect x="150.72" y="290.12" width="3.81" height="7.59" style="fill:#dbdbdb"></rect><rect x="157.46" y="290.12" width="3.81" height="7.59" style="fill:#dbdbdb"></rect><rect x="143.97" y="302.45" width="3.81" height="4.73" style="fill:#dbdbdb"></rect><rect x="150.72" y="302.45" width="3.81" height="4.73" style="fill:#dbdbdb"></rect><rect x="157.46" y="302.45" width="3.81" height="4.73" style="fill:#dbdbdb"></rect><rect x="55.81" y="196.17" width="37.42" height="111" style="fill:#ebebeb"></rect><rect x="61.14" y="186.76" width="32.1" height="9.41" style="fill:#c7c7c7"></rect><rect x="59.92" y="201.08" width="29.21" height="106.09" style="fill:#dbdbdb"></rect><rect x="59.92" y="211.21" width="29.21" height="2.51" style="fill:#fff"></rect><rect x="59.92" y="221.59" width="29.21" height="2.51" style="fill:#fff"></rect><rect x="59.92" y="231.98" width="29.21" height="2.51" style="fill:#fff"></rect><rect x="59.92" y="242.36" width="29.21" height="2.51" style="fill:#fff"></rect><rect x="59.92" y="252.75" width="29.21" height="2.51" style="fill:#fff"></rect><rect x="59.92" y="263.13" width="29.21" height="2.51" style="fill:#fff"></rect><rect x="59.92" y="273.52" width="29.21" height="2.51" style="fill:#fff"></rect><rect x="59.92" y="283.9" width="29.21" height="2.51" style="fill:#fff"></rect><rect x="59.92" y="294.28" width="29.21" height="2.51" style="fill:#fff"></rect><rect x="59.92" y="304.67" width="29.21" height="2.51" style="fill:#fff"></rect><rect x="93.23" y="196.17" width="23.44" height="111" style="fill:#dbdbdb"></rect><rect x="93.23" y="186.76" width="19.92" height="9.41" style="fill:#a6a6a6"></rect><rect x="96.47" y="201.08" width="18.02" height="106.09" style="fill:#c7c7c7"></rect><rect x="96.47" y="211.21" width="18.02" height="2.51" style="fill:#fff"></rect><rect x="96.47" y="221.59" width="18.02" height="2.51" style="fill:#fff"></rect><rect x="96.47" y="231.98" width="18.02" height="2.51" style="fill:#fff"></rect><rect x="96.47" y="242.36" width="18.02" height="2.51" style="fill:#fff"></rect><rect x="96.47" y="252.75" width="18.02" height="2.51" style="fill:#fff"></rect><rect x="96.47" y="263.13" width="18.02" height="2.51" style="fill:#fff"></rect><rect x="96.47" y="273.52" width="18.02" height="2.51" style="fill:#fff"></rect><rect x="96.47" y="283.9" width="18.02" height="2.51" style="fill:#fff"></rect><rect x="96.47" y="294.28" width="18.02" height="2.51" style="fill:#fff"></rect><rect x="96.47" y="304.67" width="18.02" height="2.51" style="fill:#fff"></rect><rect x="169.18" y="242.19" width="28.93" height="64.98" style="fill:#dbdbdb"></rect><rect x="173.73" y="247.82" width="5.12" height="3.98" style="fill:#c7c7c7"></rect><rect x="173.73" y="256.32" width="5.12" height="3.98" style="fill:#c7c7c7"></rect><rect x="173.73" y="264.82" width="5.12" height="3.98" style="fill:#c7c7c7"></rect><rect x="173.73" y="273.33" width="5.12" height="3.98" style="fill:#c7c7c7"></rect><rect x="173.73" y="281.83" width="5.12" height="3.98" style="fill:#c7c7c7"></rect><rect x="173.73" y="290.34" width="5.12" height="3.98" style="fill:#c7c7c7"></rect><rect x="173.73" y="298.84" width="5.12" height="3.98" style="fill:#c7c7c7"></rect><rect x="181.1" y="247.82" width="5.12" height="3.98" style="fill:#c7c7c7"></rect><rect x="181.1" y="256.32" width="5.12" height="3.98" style="fill:#c7c7c7"></rect><rect x="181.1" y="264.82" width="5.12" height="3.98" style="fill:#c7c7c7"></rect><rect x="181.1" y="273.33" width="5.12" height="3.98" style="fill:#c7c7c7"></rect><rect x="181.1" y="281.83" width="5.12" height="3.98" style="fill:#c7c7c7"></rect><rect x="181.1" y="290.34" width="5.12" height="3.98" style="fill:#c7c7c7"></rect><rect x="181.1" y="298.84" width="5.12" height="3.98" style="fill:#c7c7c7"></rect><rect x="188.44" y="247.82" width="5.12" height="3.98" style="fill:#c7c7c7"></rect><rect x="188.44" y="256.32" width="5.12" height="3.98" style="fill:#c7c7c7"></rect><rect x="188.44" y="264.82" width="5.12" height="3.98" style="fill:#c7c7c7"></rect><rect x="188.44" y="273.33" width="5.12" height="3.98" style="fill:#c7c7c7"></rect><rect x="188.44" y="281.83" width="5.12" height="3.98" style="fill:#c7c7c7"></rect><rect x="188.44" y="290.34" width="5.12" height="3.98" style="fill:#c7c7c7"></rect><rect x="188.44" y="298.84" width="5.12" height="3.98" style="fill:#c7c7c7"></rect><rect x="198.11" y="242.19" width="20.3" height="64.98" style="fill:#a6a6a6"></rect><rect x="212.16" y="298.2" width="4.17" height="3.98" transform="translate(428.49 600.39) rotate(180)" style="fill:#c7c7c7"></rect><rect x="212.16" y="289.7" width="4.17" height="3.98" transform="translate(428.49 583.38) rotate(180)" style="fill:#c7c7c7"></rect><rect x="212.16" y="281.2" width="4.17" height="3.98" transform="translate(428.49 566.38) rotate(180)" style="fill:#c7c7c7"></rect><rect x="212.16" y="272.69" width="4.17" height="3.98" transform="translate(428.49 549.37) rotate(180)" style="fill:#c7c7c7"></rect><rect x="212.16" y="264.19" width="4.17" height="3.98" transform="translate(428.49 532.36) rotate(180)" style="fill:#c7c7c7"></rect><rect x="212.16" y="255.69" width="4.17" height="3.98" transform="translate(428.49 515.35) rotate(180)" style="fill:#c7c7c7"></rect><rect x="212.16" y="247.18" width="4.17" height="3.98" transform="translate(428.49 498.35) rotate(180)" style="fill:#c7c7c7"></rect><rect x="206.17" y="298.2" width="4.17" height="3.98" transform="translate(416.51 600.39) rotate(180)" style="fill:#c7c7c7"></rect><rect x="206.17" y="289.7" width="4.17" height="3.98" transform="translate(416.51 583.38) rotate(180)" style="fill:#c7c7c7"></rect><rect x="206.17" y="281.2" width="4.17" height="3.98" transform="translate(416.51 566.38) rotate(180)" style="fill:#c7c7c7"></rect><rect x="206.17" y="272.69" width="4.17" height="3.98" transform="translate(416.51 549.37) rotate(180)" style="fill:#c7c7c7"></rect><rect x="206.17" y="264.19" width="4.17" height="3.98" transform="translate(416.51 532.36) rotate(180)" style="fill:#c7c7c7"></rect><rect x="206.17" y="255.69" width="4.17" height="3.98" transform="translate(416.51 515.35) rotate(180)" style="fill:#c7c7c7"></rect><rect x="206.17" y="247.18" width="4.17" height="3.98" transform="translate(416.51 498.35) rotate(180)" style="fill:#c7c7c7"></rect><rect x="200.19" y="298.2" width="4.17" height="3.98" transform="translate(404.55 600.39) rotate(180)" style="fill:#c7c7c7"></rect><rect x="200.19" y="289.7" width="4.17" height="3.98" transform="translate(404.55 583.38) rotate(180)" style="fill:#c7c7c7"></rect><rect x="200.19" y="281.2" width="4.17" height="3.98" transform="translate(404.55 566.38) rotate(180)" style="fill:#c7c7c7"></rect><rect x="200.19" y="272.69" width="4.17" height="3.98" transform="translate(404.55 549.37) rotate(180)" style="fill:#c7c7c7"></rect><rect x="200.19" y="264.19" width="4.17" height="3.98" transform="translate(404.55 532.36) rotate(180)" style="fill:#c7c7c7"></rect><rect x="200.19" y="255.69" width="4.17" height="3.98" transform="translate(404.55 515.35) rotate(180)" style="fill:#c7c7c7"></rect><rect x="200.19" y="247.18" width="4.17" height="3.98" transform="translate(404.55 498.35) rotate(180)" style="fill:#c7c7c7"></rect><rect x="393.35" y="167.65" width="19.99" height="23.61" style="fill:#dbdbdb"></rect><rect x="413.33" y="167.65" width="12.67" height="24.47" style="fill:#c7c7c7"></rect><rect x="414.27" y="178.08" width="12.58" height="14.05" style="fill:#dbdbdb"></rect><rect x="426.85" y="178.08" width="7.84" height="14.05" style="fill:#c7c7c7"></rect><rect x="385.68" y="189.73" width="32.32" height="117.45" style="fill:#ebebeb"></rect><rect x="389.38" y="194.78" width="10.16" height="4.15" style="fill:#fff"></rect><rect x="402.38" y="194.78" width="10.16" height="4.15" style="fill:#fff"></rect><rect x="389.38" y="201.83" width="10.16" height="4.15" style="fill:#fff"></rect><rect x="402.38" y="201.83" width="10.16" height="4.15" style="fill:#fff"></rect><rect x="389.38" y="208.87" width="10.16" height="4.15" style="fill:#fff"></rect><rect x="402.38" y="208.87" width="10.16" height="4.15" style="fill:#fff"></rect><rect x="389.38" y="215.92" width="10.16" height="4.15" style="fill:#fff"></rect><rect x="402.38" y="215.92" width="10.16" height="4.15" style="fill:#fff"></rect><rect x="389.38" y="222.97" width="10.16" height="4.15" style="fill:#fff"></rect><rect x="402.38" y="222.97" width="10.16" height="4.15" style="fill:#fff"></rect><rect x="389.38" y="230.02" width="10.16" height="4.15" style="fill:#fff"></rect><rect x="402.38" y="230.02" width="10.16" height="4.15" style="fill:#fff"></rect><rect x="389.38" y="237.07" width="10.16" height="4.15" style="fill:#fff"></rect><rect x="402.38" y="237.07" width="10.16" height="4.15" style="fill:#fff"></rect><rect x="389.38" y="244.12" width="10.16" height="4.15" style="fill:#fff"></rect><rect x="402.38" y="244.12" width="10.16" height="4.15" style="fill:#fff"></rect><rect x="389.38" y="251.17" width="10.16" height="4.15" style="fill:#fff"></rect><rect x="402.38" y="251.17" width="10.16" height="4.15" style="fill:#fff"></rect><rect x="389.38" y="258.22" width="10.16" height="4.15" style="fill:#fff"></rect><rect x="402.38" y="258.22" width="10.16" height="4.15" style="fill:#fff"></rect><rect x="389.38" y="265.27" width="10.16" height="4.15" style="fill:#fff"></rect><rect x="402.38" y="265.27" width="10.16" height="4.15" style="fill:#fff"></rect><rect x="389.38" y="272.32" width="10.16" height="4.15" style="fill:#fff"></rect><rect x="402.38" y="272.32" width="10.16" height="4.15" style="fill:#fff"></rect><rect x="389.38" y="279.37" width="10.16" height="4.15" style="fill:#fff"></rect><rect x="402.38" y="279.37" width="10.16" height="4.15" style="fill:#fff"></rect><rect x="389.38" y="286.42" width="10.16" height="4.15" style="fill:#fff"></rect><rect x="402.38" y="286.42" width="10.16" height="4.15" style="fill:#fff"></rect><rect x="418" y="189.73" width="26.19" height="117.45" style="fill:#c7c7c7"></rect><rect x="433.22" y="286.42" width="8.34" height="4.15" transform="translate(874.78 577) rotate(180)" style="fill:#ebebeb"></rect><rect x="422.54" y="286.42" width="8.34" height="4.15" transform="translate(853.43 577) rotate(180)" style="fill:#ebebeb"></rect><rect x="433.22" y="279.37" width="8.34" height="4.15" transform="translate(874.78 562.9) rotate(180)" style="fill:#ebebeb"></rect><rect x="422.54" y="279.37" width="8.34" height="4.15" transform="translate(853.43 562.9) rotate(180)" style="fill:#ebebeb"></rect><rect x="433.22" y="272.32" width="8.34" height="4.15" transform="translate(874.78 548.8) rotate(180)" style="fill:#ebebeb"></rect><rect x="422.54" y="272.32" width="8.34" height="4.15" transform="translate(853.43 548.8) rotate(180)" style="fill:#ebebeb"></rect><rect x="433.22" y="265.27" width="8.34" height="4.15" transform="translate(874.78 534.7) rotate(180)" style="fill:#ebebeb"></rect><rect x="422.54" y="265.27" width="8.34" height="4.15" transform="translate(853.43 534.7) rotate(180)" style="fill:#ebebeb"></rect><rect x="433.22" y="258.22" width="8.34" height="4.15" transform="translate(874.78 520.6) rotate(180)" style="fill:#ebebeb"></rect><rect x="422.54" y="258.22" width="8.34" height="4.15" transform="translate(853.43 520.6) rotate(180)" style="fill:#ebebeb"></rect><rect x="433.22" y="251.17" width="8.34" height="4.15" transform="translate(874.78 506.5) rotate(180)" style="fill:#ebebeb"></rect><rect x="422.54" y="251.17" width="8.34" height="4.15" transform="translate(853.43 506.5) rotate(180)" style="fill:#ebebeb"></rect><rect x="433.22" y="244.12" width="8.34" height="4.15" transform="translate(874.78 492.4) rotate(180)" style="fill:#ebebeb"></rect><rect x="422.54" y="244.12" width="8.34" height="4.15" transform="translate(853.43 492.4) rotate(180)" style="fill:#ebebeb"></rect><rect x="433.22" y="237.07" width="8.34" height="4.15" transform="translate(874.78 478.3) rotate(180)" style="fill:#ebebeb"></rect><rect x="422.54" y="237.07" width="8.34" height="4.15" transform="translate(853.43 478.3) rotate(180)" style="fill:#ebebeb"></rect><rect x="433.22" y="230.02" width="8.34" height="4.15" transform="translate(874.78 464.2) rotate(180)" style="fill:#ebebeb"></rect><rect x="422.54" y="230.02" width="8.34" height="4.15" transform="translate(853.43 464.2) rotate(180)" style="fill:#ebebeb"></rect><rect x="433.22" y="222.97" width="8.34" height="4.15" transform="translate(874.78 450.1) rotate(180)" style="fill:#ebebeb"></rect><rect x="422.54" y="222.97" width="8.34" height="4.15" transform="translate(853.43 450.1) rotate(180)" style="fill:#ebebeb"></rect><rect x="433.22" y="215.92" width="8.34" height="4.15" transform="translate(874.78 436) rotate(180)" style="fill:#ebebeb"></rect><rect x="422.54" y="215.92" width="8.34" height="4.15" transform="translate(853.43 436) rotate(180)" style="fill:#ebebeb"></rect><rect x="433.22" y="208.87" width="8.34" height="4.15" transform="translate(874.78 421.9) rotate(180)" style="fill:#ebebeb"></rect><rect x="422.54" y="208.87" width="8.34" height="4.15" transform="translate(853.43 421.9) rotate(180)" style="fill:#ebebeb"></rect><rect x="433.22" y="201.83" width="8.34" height="4.15" transform="translate(874.78 407.8) rotate(180)" style="fill:#ebebeb"></rect><rect x="422.54" y="201.83" width="8.34" height="4.15" transform="translate(853.43 407.8) rotate(180)" style="fill:#ebebeb"></rect><rect x="433.22" y="194.78" width="8.34" height="4.15" transform="translate(874.78 393.7) rotate(180)" style="fill:#ebebeb"></rect><rect x="422.54" y="194.78" width="8.34" height="4.15" transform="translate(853.43 393.7) rotate(180)" style="fill:#ebebeb"></rect><rect x="243.15" y="230.64" width="38.12" height="76.53" style="fill:#c7c7c7"></rect><rect x="249.15" y="237.27" width="6.75" height="4.69" style="fill:#dbdbdb"></rect><rect x="249.15" y="247.28" width="6.75" height="4.69" style="fill:#dbdbdb"></rect><rect x="249.15" y="257.3" width="6.75" height="4.69" style="fill:#dbdbdb"></rect><rect x="249.15" y="267.31" width="6.75" height="4.69" style="fill:#dbdbdb"></rect><rect x="249.15" y="277.33" width="6.75" height="4.69" style="fill:#dbdbdb"></rect><rect x="249.15" y="287.34" width="6.75" height="4.69" style="fill:#dbdbdb"></rect><rect x="249.15" y="297.36" width="6.75" height="4.69" style="fill:#dbdbdb"></rect><rect x="258.85" y="237.27" width="6.75" height="4.69" style="fill:#dbdbdb"></rect><rect x="258.85" y="247.28" width="6.75" height="4.69" style="fill:#dbdbdb"></rect><rect x="258.85" y="257.3" width="6.75" height="4.69" style="fill:#dbdbdb"></rect><rect x="258.85" y="267.31" width="6.75" height="4.69" style="fill:#dbdbdb"></rect><rect x="258.85" y="277.33" width="6.75" height="4.69" style="fill:#dbdbdb"></rect><rect x="258.85" y="287.34" width="6.75" height="4.69" style="fill:#dbdbdb"></rect><rect x="258.85" y="297.36" width="6.75" height="4.69" style="fill:#dbdbdb"></rect><rect x="268.53" y="237.27" width="6.75" height="4.69" style="fill:#dbdbdb"></rect><rect x="268.53" y="247.28" width="6.75" height="4.69" style="fill:#dbdbdb"></rect><rect x="268.53" y="257.3" width="6.75" height="4.69" style="fill:#dbdbdb"></rect><rect x="268.53" y="267.31" width="6.75" height="4.69" style="fill:#dbdbdb"></rect><rect x="268.53" y="277.33" width="6.75" height="4.69" style="fill:#dbdbdb"></rect><rect x="268.53" y="287.34" width="6.75" height="4.69" style="fill:#dbdbdb"></rect><rect x="268.53" y="297.36" width="6.75" height="4.69" style="fill:#dbdbdb"></rect><rect x="255.89" y="222.67" width="25.38" height="7.97" style="fill:#dbdbdb"></rect><rect x="265.18" y="217.73" width="16.09" height="4.94" style="fill:#ebebeb"></rect><rect x="281.27" y="230.64" width="26.74" height="76.53" style="fill:#a6a6a6"></rect><rect x="299.78" y="296.61" width="5.49" height="4.69" transform="translate(605.06 597.91) rotate(180)" style="fill:#c7c7c7"></rect><rect x="299.78" y="286.6" width="5.49" height="4.69" transform="translate(605.06 577.88) rotate(180)" style="fill:#c7c7c7"></rect><rect x="299.78" y="276.58" width="5.49" height="4.69" transform="translate(605.06 557.85) rotate(180)" style="fill:#c7c7c7"></rect><rect x="299.78" y="266.57" width="5.49" height="4.69" transform="translate(605.06 537.82) rotate(180)" style="fill:#c7c7c7"></rect><rect x="299.78" y="256.55" width="5.49" height="4.69" transform="translate(605.06 517.79) rotate(180)" style="fill:#c7c7c7"></rect><rect x="299.78" y="246.54" width="5.49" height="4.69" transform="translate(605.06 497.76) rotate(180)" style="fill:#c7c7c7"></rect><rect x="299.78" y="236.52" width="5.49" height="4.69" transform="translate(605.06 477.73) rotate(180)" style="fill:#c7c7c7"></rect><rect x="291.89" y="296.61" width="5.49" height="4.69" transform="translate(589.26 597.91) rotate(180)" style="fill:#c7c7c7"></rect><rect x="291.89" y="286.6" width="5.49" height="4.69" transform="translate(589.26 577.88) rotate(180)" style="fill:#c7c7c7"></rect><rect x="291.89" y="276.58" width="5.49" height="4.69" transform="translate(589.26 557.85) rotate(180)" style="fill:#c7c7c7"></rect><rect x="291.89" y="266.57" width="5.49" height="4.69" transform="translate(589.26 537.82) rotate(180)" style="fill:#c7c7c7"></rect><rect x="291.89" y="256.55" width="5.49" height="4.69" transform="translate(589.26 517.79) rotate(180)" style="fill:#c7c7c7"></rect><rect x="291.89" y="246.54" width="5.49" height="4.69" transform="translate(589.26 497.76) rotate(180)" style="fill:#c7c7c7"></rect><rect x="291.89" y="236.52" width="5.49" height="4.69" transform="translate(589.26 477.73) rotate(180)" style="fill:#c7c7c7"></rect><rect x="284.01" y="296.61" width="5.49" height="4.69" transform="translate(573.5 597.91) rotate(180)" style="fill:#c7c7c7"></rect><rect x="284.01" y="286.6" width="5.49" height="4.69" transform="translate(573.5 577.88) rotate(180)" style="fill:#c7c7c7"></rect><rect x="284.01" y="276.58" width="5.49" height="4.69" transform="translate(573.5 557.85) rotate(180)" style="fill:#c7c7c7"></rect><rect x="284.01" y="266.57" width="5.49" height="4.69" transform="translate(573.5 537.82) rotate(180)" style="fill:#c7c7c7"></rect><rect x="284.01" y="256.55" width="5.49" height="4.69" transform="translate(573.5 517.79) rotate(180)" style="fill:#c7c7c7"></rect><rect x="284.01" y="246.54" width="5.49" height="4.69" transform="translate(573.5 497.76) rotate(180)" style="fill:#c7c7c7"></rect><rect x="284.01" y="236.52" width="5.49" height="4.69" transform="translate(573.5 477.73) rotate(180)" style="fill:#c7c7c7"></rect><rect x="281.27" y="222.67" width="22.69" height="7.97" style="fill:#c7c7c7"></rect><rect x="281.27" y="217.73" width="12.3" height="4.94" style="fill:#dbdbdb"></rect></g><g id="freepik--Shadow--inject-473"><ellipse cx="250" cy="443.08" rx="194.74" ry="13.05" style="fill:#ebebeb"></ellipse></g><g id="freepik--Plants--inject-473"><path d="M88.42,306s-.84-3.92-2.52-4.53-2.71,1.16-2.71,1.16-.39-3.75-2.78-4.88-4.17,1.18-4.17,1.18-1.83-4.76-5.1-4.76-4.91,7-4.91,7-1.93-2.08-3.91-.91-2,5.77-2,5.77Z" style="fill:#37474f"></path><path d="M367.26,306s-.84-3.92-2.52-4.53-2.7,1.16-2.7,1.16-.4-3.75-2.78-4.88-4.17,1.18-4.17,1.18-1.83-4.76-5.1-4.76-4.92,7-4.92,7-1.92-2.08-3.9-.91-2,5.77-2,5.77Z" style="fill:#455a64"></path><path d="M162.7,306H133.15s1-4.16,2.93-4.46a2.91,2.91,0,0,1,2.88,1.64s-.09-5.81,3.57-6.8,6.72,4.14,6.72,4.14,2.3-2.92,5.42-2.73,3.93,5,3.93,5S161.44,301.09,162.7,306Z" style="fill:#37474f"></path><path d="M62.16,306H46.61s0-2.31,1.56-2.93a2.09,2.09,0,0,1,2.44.59s.62-4.26,3.47-4.26S58.3,303,58.3,303a2.18,2.18,0,0,1,2.22-.9C62.1,302.34,62.16,306,62.16,306Z" style="fill:#455a64"></path><path d="M174.9,306H159.35s0-2.31,1.56-2.93a2.09,2.09,0,0,1,2.44.59s.63-4.26,3.48-4.26S171,303,171,303a2.18,2.18,0,0,1,2.22-.9C174.84,302.34,174.9,306,174.9,306Z" style="fill:#455a64"></path><path d="M430.7,306H415.15s0-2.31,1.56-2.93a2.09,2.09,0,0,1,2.44.59s.62-4.26,3.47-4.26,4.22,3.67,4.22,3.67a2.17,2.17,0,0,1,2.22-.9C430.64,302.34,430.7,306,430.7,306Z" style="fill:#455a64"></path><path d="M453.39,306H427.75s.06-3.81,2.58-4.82a3.42,3.42,0,0,1,4,1s1-7,5.73-7,6.94,6.06,6.94,6.06a3.6,3.6,0,0,1,3.66-1.49C453.29,300,453.39,306,453.39,306Z" style="fill:#37474f"></path></g><g id="freepik--Floor--inject-473"><rect x="41.36" y="305.96" width="417.27" height="7.27" style="fill:#c7c7c7"></rect><path d="M70.62,306a13.73,13.73,0,0,1,0,7.27,12,12,0,0,1-.5-3.63A12.39,12.39,0,0,1,70.62,306Z" style="fill:#263238"></path><path d="M103.23,306a12.39,12.39,0,0,1,.5,3.64,12,12,0,0,1-.5,3.63,13.73,13.73,0,0,1,0-7.27Z" style="fill:#263238"></path><path d="M135.85,306a13.73,13.73,0,0,1,0,7.27,12,12,0,0,1-.5-3.63A12.39,12.39,0,0,1,135.85,306Z" style="fill:#263238"></path><path d="M168.46,306a12.39,12.39,0,0,1,.5,3.64,12,12,0,0,1-.5,3.63,13.73,13.73,0,0,1,0-7.27Z" style="fill:#263238"></path><path d="M201.08,306a13.73,13.73,0,0,1,0,7.27,12,12,0,0,1-.5-3.63A12.39,12.39,0,0,1,201.08,306Z" style="fill:#263238"></path><path d="M233.69,306a12.39,12.39,0,0,1,.5,3.64,12,12,0,0,1-.5,3.63,13.73,13.73,0,0,1,0-7.27Z" style="fill:#263238"></path><path d="M266.31,306a13.73,13.73,0,0,1,0,7.27,12,12,0,0,1-.5-3.63A12.39,12.39,0,0,1,266.31,306Z" style="fill:#263238"></path><path d="M298.92,306a12.39,12.39,0,0,1,.5,3.64,12,12,0,0,1-.5,3.63,13.73,13.73,0,0,1,0-7.27Z" style="fill:#263238"></path><path d="M331.54,306a13.73,13.73,0,0,1,0,7.27,12,12,0,0,1-.5-3.63A12.39,12.39,0,0,1,331.54,306Z" style="fill:#263238"></path><path d="M364.15,306a12.39,12.39,0,0,1,.5,3.64,12,12,0,0,1-.5,3.63,13.73,13.73,0,0,1,0-7.27Z" style="fill:#263238"></path><path d="M396.77,306a13.73,13.73,0,0,1,0,7.27,12,12,0,0,1-.5-3.63A12.39,12.39,0,0,1,396.77,306Z" style="fill:#263238"></path><path d="M429.38,306a12.39,12.39,0,0,1,.5,3.64,12,12,0,0,1-.5,3.63,13.73,13.73,0,0,1,0-7.27Z" style="fill:#263238"></path><polygon points="39.78 313.23 92.33 312.99 144.89 312.9 250 312.73 355.11 312.9 407.67 312.99 460.22 313.23 407.67 313.48 355.11 313.57 250 313.73 144.89 313.56 92.33 313.48 39.78 313.23" style="fill:#263238"></polygon></g><g id="freepik--Device--inject-473"><path d="M400,57.76H228.44a17.52,17.52,0,0,0-17.35,17.68V428.56a17.53,17.53,0,0,0,17.35,17.68H400a17.54,17.54,0,0,0,17.37-17.68V75.44A17.53,17.53,0,0,0,400,57.76Zm6.53,359.88c0,9.3-7,16.82-15.55,16.82H237.49c-8.6,0-15.56-7.52-15.56-16.82V88.82c0-18.93,7-19.85,15.56-19.85h30.74c1.78,0,3.24,2,3.24,4.54V74.6c0,5.89,3.23,5.91,7.2,5.91h71.09c4,0,7.19,0,7.19-5.91V73.51C357,71,358.39,69,360.21,69H391c8.59,0,15.55,2.51,15.55,19.85Z" style="fill:#263238"></path><path d="M323.91,73.15H304.52a1.2,1.2,0,0,1-1.2-1.2h0a1.2,1.2,0,0,1,1.2-1.2h19.39a1.2,1.2,0,0,1,1.2,1.2h0A1.2,1.2,0,0,1,323.91,73.15Z" style="fill:#fff"></path><path d="M406.5,88.82V417.64c0,9.3-7,16.82-15.54,16.82H237.49c-8.6,0-15.56-7.52-15.56-16.82V88.82c0-18.93,7-19.85,15.56-19.85h30.74c1.78,0,3.25,2,3.25,4.54V74.6c0,5.89,3.22,5.91,7.19,5.91h71.09c4,0,7.19,0,7.19-5.91V73.51C357,71,358.39,69,360.21,69H391C399.54,69,406.5,71.48,406.5,88.82Z" style="fill:#ebebeb"></path><rect x="301.4" y="410.37" width="82.12" height="6" style="fill:#fff"></rect><path d="M406.5,127.25v-6H354.17v-4.77h-6v14.27L297.6,153.92l-3.82,8.86L262,131V116.48h-3v14.23h-37v6h5.25V254.08h31.21l-9,20.65v44.64H222v3h27.34v11.81h49v43.2H221.93v6H298.4v51.08h6V334.18h16.93v32.71h9.2v-3h-6.2V334.18h15.61l40.58,43v57.26h6V374.82l-19.2-20.36,39.18-39.18V306.8l-43.3,43.3-20.67-21.92H281.35l37.83-41.13H406.4v-3H321.94l35.15-38.21H406.5v-6H386V127.25ZM233.18,248.08V185.17h25v-3h-25V136.71h26.05L291.56,169l-31.38,79Zm40,80.1H255.36V276L277,220.81l60.14,25h11.79ZM380,239.84H338.49l-59.57-24.27c.9-2.36,22.84-57,22.84-57l32.68-15L380,189.16Zm0-54.92-42.6-42.61,16.82-7.71v-7.35H380Z" style="fill:#fff"></path><polygon points="257.54 139.91 270.3 152.67 244.09 152.67 244.09 139.91 257.54 139.91" style="fill:#35A9D9;opacity:0.30000000000000004"></polygon><polygon points="260.5 311.26 260.5 276.68 270.15 253.07 287.76 261.79 328.83 261.79 282.78 311.26 260.5 311.26" style="fill:#35A9D9;opacity:0.30000000000000004"></polygon><rect x="390.35" y="131.11" width="16.15" height="21.44" style="fill:#35A9D9;opacity:0.30000000000000004"></rect><polygon points="360.67 360.73 326.69 360.73 326.69 352.22 352.64 352.22 360.67 360.73" style="fill:#35A9D9;opacity:0.30000000000000004"></polygon><polygon points="357.04 171.68 367.32 181.54 354.86 192.4 354.86 202.16 332.88 190.96 357.04 171.68" style="fill:#35A9D9;opacity:0.30000000000000004"></polygon><rect x="391.02" y="388.91" width="15.48" height="28.74" style="fill:#35A9D9;opacity:0.30000000000000004"></rect><polygon points="294.67 423.41 278.99 423.41 261.07 406.95 261.07 386.99 294.67 386.99 294.67 423.41" style="fill:#35A9D9;opacity:0.30000000000000004"></polygon><polygon points="241.01 375.02 224.25 375.02 224.25 347.04 233.68 347.04 241.01 356.61 241.01 375.02" style="fill:#35A9D9;opacity:0.30000000000000004"></polygon><rect x="322.83" y="387.48" width="9.41" height="4" style="fill:#35A9D9;opacity:0.30000000000000004"></rect><path d="M406.5,88.82v57.47H221.92V88.82c0-18.93,7-19.85,15.57-19.85h30.74c1.79,0,3.25,2,3.25,4.54V74.6c0,5.89,3.23,5.91,7.19,5.91h71.08c4,0,7.21,0,7.21-5.91V73.51C357,71,358.4,69,360.22,69H391C399.53,69,406.5,71.48,406.5,88.82Z" style="fill:#35A9D9"></path><g id="freepik--u5Zjqx--inject-473"><path d="M262.93,76.35l-.3.3-.17.17a4,4,0,0,0-5.73,0l-.16-.17a4,4,0,0,0-.29-.29h0l.38-.34a4.4,4.4,0,0,1,.87-.55,4.59,4.59,0,0,1,1.15-.39l.57-.07h.51l.39,0a4.41,4.41,0,0,1,1.06.25,5.05,5.05,0,0,1,.71.33,4.63,4.63,0,0,1,.68.48l.32.28Z" style="fill:#fff"></path><path d="M257.68,77.75l-.47-.47a3.3,3.3,0,0,1,1.91-1,3.34,3.34,0,0,1,2.87,1l-.47.47a2.7,2.7,0,0,0-3.84,0Z" style="fill:#fff"></path><path d="M261.05,78.22l-.47.46a1.4,1.4,0,0,0-2,0l-.46-.47A2,2,0,0,1,261.05,78.22Z" style="fill:#fff"></path><path d="M260,79.11a.42.42,0,0,1-.42.42.42.42,0,0,1-.42-.42.41.41,0,0,1,.42-.42A.42.42,0,0,1,260,79.11Z" style="fill:#fff"></path></g><path d="M234,77.25a1.23,1.23,0,1,1,1.23,1.22A1.22,1.22,0,0,1,234,77.25Z" style="fill:#fff"></path><path d="M237.82,77.25a1.22,1.22,0,1,1,2.44,0,1.22,1.22,0,1,1-2.44,0Z" style="fill:#fff"></path><path d="M241.67,77.25a1.22,1.22,0,1,1,1.22,1.22A1.22,1.22,0,0,1,241.67,77.25Z" style="fill:#fff"></path><path d="M245.52,77.25a1.23,1.23,0,1,1,1.22,1.22A1.22,1.22,0,0,1,245.52,77.25Z" style="fill:#fff"></path><path d="M249.37,77.25a1.23,1.23,0,1,1,1.23,1.22A1.22,1.22,0,0,1,249.37,77.25Z" style="fill:#fff"></path><path d="M392.65,79.91H382.7v-4.6h9.95Zm-9.45-.5h8.95v-3.6H383.2Z" style="fill:#fff"></path><rect x="383.52" y="76.09" width="6.42" height="3.05" style="fill:#fff"></rect><rect x="392.66" y="76.38" width="0.89" height="2.47" style="fill:#fff"></rect><circle cx="392.48" cy="101.74" r="0.94" style="fill:#fff"></circle><circle cx="389.14" cy="101.74" r="0.94" style="fill:#fff"></circle><circle cx="385.79" cy="101.74" r="0.94" style="fill:#fff"></circle><polygon points="238.41 105.43 233.93 101.74 238.41 98.05 239.1 98.7 235.42 101.74 239.1 104.78 238.41 105.43" style="fill:#fff"></polygon><path d="M250.23,109.33a.41.41,0,0,1-.82,0,.41.41,0,1,1,.82,0Z" style="fill:#fff"></path><path d="M250.23,111.7a.41.41,0,1,1-.41-.4A.41.41,0,0,1,250.23,111.7Z" style="fill:#fff"></path><path d="M250.23,114.08a.41.41,0,1,1-.41-.41A.4.4,0,0,1,250.23,114.08Z" style="fill:#fff"></path><rect x="259.02" y="94.36" width="116.37" height="14.75" style="fill:#fff"></rect><rect x="259.02" y="114.23" width="116.37" height="14.75" style="fill:#fff"></rect><path d="M254,101.74a4.16,4.16,0,1,1-4.16-4.16A4.16,4.16,0,0,1,254,101.74Z" style="fill:#fff;opacity:0.4"></path><circle cx="249.82" cy="101.74" r="2.04" style="fill:#fff"></circle><path d="M252.54,120.09a2.72,2.72,0,0,0-5.44,0c-.21,2.1,1.21,4,2.72,5.74C251.33,124.09,252.75,122.19,252.54,120.09Zm-2.72,1.51a1.49,1.49,0,1,1,1.49-1.49A1.49,1.49,0,0,1,249.82,121.6Z" style="fill:#fff"></path><path d="M265.67,101.74c7.2-.21,14.41-.3,21.61-.38l21.62-.12,21.61.11,10.81.14c3.6.09,7.21.14,10.81.25-3.6.11-7.21.16-10.81.24l-10.81.14-21.61.12-21.62-.12C280.08,102,272.87,102,265.67,101.74Z" style="fill:#ebebeb"></path><path d="M265.67,121.6c5.31-.21,10.63-.3,15.94-.38s10.63-.08,15.94-.12,10.63,0,15.94.12l8,.14c2.66.08,5.31.13,8,.24-2.66.11-5.31.16-8,.25l-8,.14c-5.31.08-10.63.07-15.94.11s-10.63,0-15.94-.12S271,121.81,265.67,121.6Z" style="fill:#ebebeb"></path><path d="M254.1,137a3.15,3.15,0,0,1,.25,2.13.61.61,0,0,1-.66.66l-2.17.19a28,28,0,0,1-4.85-.2c-.32,0-.42-.26-.46-.53a4.23,4.23,0,0,1,.29-2.35l-.23-.07c-.26-.07-.24-.25-.2-.45s.13-.33.38-.3c.47.07.47.06.66-.37.09-.22.21-.43.28-.66a.8.8,0,0,1,.66-.57,9.51,9.51,0,0,1,4.74.11.47.47,0,0,1,.27.25,7.28,7.28,0,0,1,.44,1c.1.28.23.37.53.29s.6.08.5.46C254.5,136.74,254.29,136.84,254.1,137Zm-.87-.66c-.2-.45-.35-.83-.53-1.2a.44.44,0,0,0-.24-.18,9,9,0,0,0-4.31,0c-.09,0-.22.08-.25.15-.2.41-.38.84-.59,1.31A22.14,22.14,0,0,1,253.23,136.35ZM248,137.73c0,.39,0,.45.39.46,1.22,0,2.43,0,3.65,0,.33,0,.46-.13.46-.47Zm.13.63c0,.27.09.44.45.43,1.11,0,2.22,0,3.32,0,.37,0,.42-.07.41-.43Zm.79.76c0,.09,0,.15,0,.21-.05.31.07.4.37.38s.79,0,1.19,0h1.08v-.59Zm5.12-.85a.59.59,0,1,0-.6.58A.58.58,0,0,0,254.08,138.27Zm-7,.58a.59.59,0,1,0,0-1.18.61.61,0,0,0-.61.58A.61.61,0,0,0,247.05,138.85Z" style="fill:#fff"></path><path d="M254.35,140s0,0,0,0c0,1,0,.79-.75.8h-.34c-.26,0-.29-.18-.3-.37s.15-.2.29-.22a5.7,5.7,0,0,0,.58-.06C254,140.1,254.17,140,254.35,140Z" style="fill:#fff"></path><path d="M246.15,140l1.12.17c.14,0,.3,0,.28.22s-.05.38-.31.37h-.74c-.26,0-.36-.1-.35-.35Z" style="fill:#fff"></path><path d="M257.06,136.48v2.36a.23.23,0,0,1-.23.22.22.22,0,0,1-.22-.22v-2l-.16.09a.14.14,0,0,1-.11,0,.22.22,0,0,1-.12-.41l.5-.29h.2l0,0h0a0,0,0,0,1,0,0h0l0,0h0s0,0,0,0v0s0,0,0,0a0,0,0,0,0,0,0Z" style="fill:#fff"></path><path d="M257.56,137.66a1.83,1.83,0,0,1,.27-1,.85.85,0,0,1,1.49,0,1.75,1.75,0,0,1,.27,1,1.71,1.71,0,0,1-.27,1,.84.84,0,0,1-1.49,0A1.8,1.8,0,0,1,257.56,137.66Zm1.58,0A1.33,1.33,0,0,0,259,137a.49.49,0,0,0-.37-.25.5.5,0,0,0-.38.25,1.33,1.33,0,0,0-.19.71,1.29,1.29,0,0,0,.19.7.48.48,0,0,0,.38.25.46.46,0,0,0,.37-.25A1.29,1.29,0,0,0,259.14,137.66Z" style="fill:#fff"></path><path d="M263.39,137.88v1a.22.22,0,1,1-.43,0v-1a.41.41,0,0,0-.41-.4.42.42,0,0,0-.41.42v1h0a0,0,0,0,1,0,0v0a.25.25,0,0,1-.2.13h0a.21.21,0,0,1-.17-.21v-.94h0v-.62a.21.21,0,0,1,.21-.21.2.2,0,0,1,.19.12.84.84,0,0,1,1.05.15.84.84,0,0,1,1.46.57v.94a.21.21,0,0,1-.21.22.22.22,0,0,1-.21-.22v-.94a.42.42,0,0,0-.41-.42A.4.4,0,0,0,263.39,137.88Z" style="fill:#fff"></path><path d="M266,136.56a.22.22,0,1,1-.44,0v-.09a.22.22,0,0,1,.44,0Zm0,.72v1.56a.22.22,0,1,1-.44,0v-1.56a.22.22,0,1,1,.44,0Z" style="fill:#fff"></path><path d="M268.31,137.89v1a.21.21,0,0,1-.21.22.22.22,0,0,1-.21-.22v-1a.41.41,0,0,0-.42-.41.4.4,0,0,0-.39.41v1s0,0,0,0a.22.22,0,0,1-.43,0v-1.57a.21.21,0,0,1,.22-.21.22.22,0,0,1,.19.12.86.86,0,0,1,.42-.12A.84.84,0,0,1,268.31,137.89Z" style="fill:#fff"></path><path d="M276.58,137a6.61,6.61,0,0,0-2.77-.9,1.05,1.05,0,0,1,.29-.17A3.69,3.69,0,0,1,277,136l.3.16a1.47,1.47,0,0,0,1.86-.18,2.71,2.71,0,0,1,1.38-.67l.46,0a3.5,3.5,0,0,0-.22-.55c0-.06-.17-.07-.26-.08s-.24,0-.34,0-.21-.11-.21-.18.07-.25.14-.26a4.12,4.12,0,0,1,.86-.09c.07,0,.17.14.21.23a7,7,0,0,1,.29.76.35.35,0,0,0,.41.27c.56,0,.51-.07.51.49s0,.58.57.74a4.13,4.13,0,0,1,.55.21l.18.1h-1.46c0,.32.09.45.41.43a1.72,1.72,0,0,1,1.84,1.46,1.76,1.76,0,1,1-2.87-1.06l.26-.21-.13-.35c-.73.31-1.09.93-1.26,2.12l-.36,0c-.88,0-1.76,0-2.64,0a.31.31,0,0,0-.36.27,1.75,1.75,0,0,1-2.17,1.18,1.76,1.76,0,0,1,.9-3.4C276.3,137.52,276.3,137.52,276.58,137Zm5.52,1.1a1.23,1.23,0,0,0-.41,1.69,1.26,1.26,0,0,0,2.24-1.16,1.16,1.16,0,0,0-1.35-.68c.13.33.25.66.38,1,.06.16.12.34-.09.43s-.31-.08-.38-.25C282.36,138.76,282.24,138.43,282.1,138.08Zm-6.16-.1a1.22,1.22,0,0,0-1.42.31,1.3,1.3,0,0,0-.12,1.51,1.28,1.28,0,0,0,1.38.55,1.12,1.12,0,0,0,.88-1h-1.05c-.12,0-.3-.06-.34-.14a.53.53,0,0,1,.08-.37C275.53,138.56,275.73,138.29,275.94,138Zm1.83.86a2.6,2.6,0,0,0-.78-1.52l-.3.45a3.55,3.55,0,0,1,.41.72C277.19,138.87,277.39,138.94,277.77,138.84Zm-1.8,0h.78c-.14-.23-.24-.4-.36-.62C276.23,138.45,276.11,138.62,276,138.84Z" style="fill:#fff"></path><path d="M286.3,137.23a1,1,0,0,1,1.94-.11h0a1.85,1.85,0,0,1,0,.23,2.32,2.32,0,0,1-.14.82,1.39,1.39,0,0,1-.52.68,1.07,1.07,0,0,1-.6.19.22.22,0,0,1-.23-.21.23.23,0,0,1,.22-.23.81.81,0,0,0,.37-.11.88.88,0,0,0,.26-.28.54.54,0,0,1,.05-.11,1,1,0,0,1-.39.08A1,1,0,0,1,286.3,137.23Zm.45,0a.53.53,0,1,0,.52-.53A.52.52,0,0,0,286.75,137.23Z" style="fill:#fff"></path><path d="M291.85,137.88v1a.22.22,0,1,1-.43,0v-1a.41.41,0,1,0-.81,0v1h0a0,0,0,0,1,0,0v0a.25.25,0,0,1-.2.13h0a.21.21,0,0,1-.17-.21v-.94h0v-.62a.21.21,0,0,1,.21-.21.2.2,0,0,1,.19.12.82.82,0,0,1,.43-.12.85.85,0,0,1,.63.27.8.8,0,0,1,.62-.27.84.84,0,0,1,.84.84v.94a.22.22,0,1,1-.43,0v-.94a.41.41,0,0,0-.82,0Z" style="fill:#fff"></path><path d="M294.42,136.56a.22.22,0,1,1-.43,0v-.09a.21.21,0,0,1,.21-.21.21.21,0,0,1,.22.21Zm0,.72v1.56a.22.22,0,1,1-.43,0v-1.56a.21.21,0,0,1,.21-.22A.21.21,0,0,1,294.42,137.28Z" style="fill:#fff"></path><path d="M296.77,137.89v1a.21.21,0,0,1-.2.22.22.22,0,0,1-.22-.22v-1a.41.41,0,0,0-.41-.41.4.4,0,0,0-.4.41v1s0,0,0,0a.22.22,0,0,1-.21.18.21.21,0,0,1-.21-.22v-1.57a.21.21,0,0,1,.21-.21.21.21,0,0,1,.19.12.86.86,0,0,1,.43-.12A.83.83,0,0,1,296.77,137.89Z" style="fill:#fff"></path><path d="M307.39,139.64l.72,1.6a3,3,0,0,1-.53,0c-.06,0-.14-.12-.16-.2s-.14-.27-.35-.27h-3.49c-.09,0-.26.07-.27.13-.06.34-.27.38-.55.35l-.19,0,.71-1.58-.2-.08c-.45-.14-.46-.16-.46-.62a29.52,29.52,0,0,1,.18-4.2.66.66,0,0,1,.43-.6,4.81,4.81,0,0,1,1-.29A6.68,6.68,0,0,1,307,134a2.05,2.05,0,0,1,.41.16.77.77,0,0,1,.45.67,31.18,31.18,0,0,1,.18,4.1c0,.5,0,.5-.47.66Zm-2.08-2.78h.78c.39,0,.79,0,1.18,0s.36-.12.34-.41-.07-.81-.1-1.22a.29.29,0,0,0-.33-.3h-3.82a.24.24,0,0,0-.27.26c0,.45-.08.9-.1,1.34a.41.41,0,0,0,.19.29.88.88,0,0,0,.37.05Zm1.86,3.42c0-.14-.08-.27-.11-.4s-.09-.18-.23-.16a10.47,10.47,0,0,1-3,0,.22.22,0,0,0-.19.09,2.77,2.77,0,0,0-.14.46Zm-1.89-6.21h-.74c-.19,0-.28.08-.28.28s.08.28.27.28h1.53c.19,0,.28-.08.28-.28s-.08-.28-.27-.28Zm1.65,4.77a.51.51,0,0,0,.5-.5.51.51,0,1,0-1,0A.5.5,0,0,0,306.93,138.84Zm-3.29,0a.51.51,0,1,0-.5-.49A.49.49,0,0,0,303.64,138.84Z" style="fill:#fff"></path><path d="M312.48,138.84a.22.22,0,0,1-.22.22h-1.42a.23.23,0,0,1-.17-.08.22.22,0,0,1,0-.31l1.18-1.07a.48.48,0,0,0,.17-.38.56.56,0,0,0-.13-.35.52.52,0,0,0-.39-.17.58.58,0,0,0-.35.13l-.12.12a.22.22,0,0,1-.3-.33l.13-.11a.92.92,0,0,1,.64-.25,1,1,0,0,1,.71.31,1,1,0,0,1,.25.65,1,1,0,0,1-.31.71l-.76.68h.85A.22.22,0,0,1,312.48,138.84Z" style="fill:#fff"></path><path d="M314.51,137.36a1,1,0,0,1,.29.7,1,1,0,0,1-.29.7,1,1,0,0,1-.7.3h0a.93.93,0,0,1-.69-.3.21.21,0,0,1,0-.32.24.24,0,0,1,.32,0,.53.53,0,0,0,.76,0,.55.55,0,0,0,.16-.38.54.54,0,0,0-.92-.38.22.22,0,0,1-.32,0l-.05-.05h0v-.05h0v-.07l.12-1a.23.23,0,0,1,.1-.16h0l.1,0h1.18a.23.23,0,1,1,0,.45h-1l0,.4a.84.84,0,0,1,.27,0A1,1,0,0,1,314.51,137.36Z" style="fill:#fff"></path><path d="M318.44,137.88v1a.22.22,0,1,1-.43,0v-1a.41.41,0,0,0-.82,0v1h0a0,0,0,0,1,0,0v0a.25.25,0,0,1-.2.13h0a.21.21,0,0,1-.17-.21v-.94h0v-.62a.21.21,0,0,1,.21-.21.2.2,0,0,1,.19.12.84.84,0,0,1,1.05.15.84.84,0,0,1,1.46.57v.94a.21.21,0,0,1-.21.22.22.22,0,0,1-.21-.22v-.94a.42.42,0,0,0-.41-.42A.4.4,0,0,0,318.44,137.88Z" style="fill:#fff"></path><path d="M321,136.56a.22.22,0,1,1-.44,0v-.09a.22.22,0,0,1,.44,0Zm0,.72v1.56a.22.22,0,1,1-.44,0v-1.56a.22.22,0,1,1,.44,0Z" style="fill:#fff"></path><path d="M323.36,137.89v1a.21.21,0,0,1-.21.22.22.22,0,0,1-.21-.22v-1a.41.41,0,0,0-.41-.41.4.4,0,0,0-.4.41v1s0,0,0,0a.22.22,0,0,1-.43,0v-1.57a.22.22,0,0,1,.41-.09.86.86,0,0,1,.43-.12A.83.83,0,0,1,323.36,137.89Z" style="fill:#fff"></path><path d="M335.34,134.75c.16.57.29,1.08.45,1.59,0,.06.18.12.27.12a2,2,0,0,1,1.8.75,2.12,2.12,0,1,1-3.35,2.61,2.13,2.13,0,0,1,.57-3c.38-.25.38-.25.1-.78a1.48,1.48,0,0,1-.14.25l-1.75,1.92a.45.45,0,0,0-.13.4.64.64,0,0,1-.4.69.67.67,0,0,1-.78-.17c-.29-.3-.39-.27-.53.13a2.13,2.13,0,1,1-2.54-2.72,2.5,2.5,0,0,1,1.56.18c.23-.35.47-.7.69-1.07a.41.41,0,0,0-.36-.56c-.18,0-.43.05-.43-.22s.26-.19.42-.19h1.29c.14,0,.28,0,.29.19s-.15.22-.3.22h-.54c0,.27.08.41.37.4,1,0,1.93,0,2.89,0l.31,0-.19-.69c-.07-.22,0-.36.24-.37.41,0,.82,0,1.22,0a.69.69,0,0,1,.66.9.76.76,0,0,1-.95.57c-.07,0-.17-.12-.16-.17a.31.31,0,0,1,.16-.2.71.71,0,0,1,.26,0,.28.28,0,0,0,.3-.3c0-.2-.07-.35-.28-.36Zm.2,2.28a1.68,1.68,0,0,0-.91,2.14,1.72,1.72,0,0,0,2.18,1,1.73,1.73,0,0,0,1.06-2.17,1.65,1.65,0,0,0-1.93-1.11c0,.1.05.21.08.31.13.44.26.89.36,1.34,0,.08-.07.2-.11.3-.09-.07-.19-.13-.27-.2s0-.1,0-.15C335.82,138,335.68,137.54,335.54,137Zm-4.44,1.84c-.51,0-1,0-1.46,0-.12,0-.31,0-.35-.11s0-.25.09-.36c.27-.44.56-.87.83-1.3a1.61,1.61,0,0,0-1.85.14,1.71,1.71,0,1,0,2.74,1.64Zm.67-3c.23.69.45,1.33.68,2a.32.32,0,0,0,.53.07l1.71-1.88a1.11,1.11,0,0,0,.11-.16Zm-1,1.08a2.28,2.28,0,0,1,.75,1.42s.2.12.2.12c.11-.16.32-.36.29-.49-.17-.64-.41-1.27-.65-2Zm-.23.36-.74,1.15h1.3A1.69,1.69,0,0,0,330.57,137.31Zm2,1h-.12c-.07.11-.2.22-.19.32s.17.17.27.26c.08-.09.23-.18.24-.28S332.61,138.44,332.54,138.34Z" style="fill:#fff"></path><path d="M341.44,136.48v2.36a.22.22,0,0,1-.22.22.22.22,0,0,1-.22-.22v-2l-.16.09a.17.17,0,0,1-.11,0,.22.22,0,0,1-.12-.41l.49-.29h.21l0,0h0l0,0h0l0,0h0s0,0,0,0v0a0,0,0,0,0,0,0Z" style="fill:#fff"></path><path d="M343.43,137.36a1,1,0,0,1,.29.7,1,1,0,0,1-1,1h0a1,1,0,0,1-.7-.3.22.22,0,0,1,0-.32.24.24,0,0,1,.32,0,.53.53,0,0,0,.39.16.54.54,0,0,0,.38-.16.53.53,0,0,0,0-.76.52.52,0,0,0-.38-.16.54.54,0,0,0-.39.16.22.22,0,0,1-.32,0l0-.05h0v0s0,0,0,0h0a.09.09,0,0,1,0-.07l.12-1a.23.23,0,0,1,.1-.16h0l.1,0h1.18a.23.23,0,1,1,0,.45h-1l-.05.4a.84.84,0,0,1,.27,0A1,1,0,0,1,343.43,137.36Z" style="fill:#fff"></path><path d="M347.35,137.88v1a.21.21,0,0,1-.21.22.22.22,0,0,1-.21-.22v-1a.42.42,0,0,0-.42-.4.41.41,0,0,0-.4.42v1h0l0,0v0a.22.22,0,0,1-.2.13h0a.22.22,0,0,1-.17-.21v-.94h0v-.62a.22.22,0,0,1,.41-.09.76.76,0,0,1,.42-.12.82.82,0,0,1,.63.27.84.84,0,0,1,1.46.57v.94a.22.22,0,1,1-.43,0v-.94a.41.41,0,0,0-.4-.42A.42.42,0,0,0,347.35,137.88Z" style="fill:#fff"></path><path d="M349.92,136.56a.21.21,0,0,1-.21.22.22.22,0,0,1-.22-.22v-.09a.21.21,0,0,1,.22-.21.21.21,0,0,1,.21.21Zm0,.72v1.56a.21.21,0,0,1-.21.22.22.22,0,0,1-.22-.22v-1.56a.22.22,0,0,1,.22-.22A.21.21,0,0,1,349.92,137.28Z" style="fill:#fff"></path><path d="M352.28,137.89v1a.21.21,0,0,1-.21.22.22.22,0,0,1-.21-.22v-1a.41.41,0,0,0-.42-.41.4.4,0,0,0-.4.41v1s0,0,0,0a.21.21,0,0,1-.42,0v-1.57a.21.21,0,0,1,.21-.21.23.23,0,0,1,.2.12.86.86,0,0,1,.42-.12A.84.84,0,0,1,352.28,137.89Z" style="fill:#fff"></path><path d="M358,135.36c-.27-.39-.25-.77.08-1a.66.66,0,0,1,.92.15c.24.34.12.72-.36,1.05.17.35.32.72.51,1.07a.93.93,0,0,0,.34.31,6.19,6.19,0,0,0,.58.28.28.28,0,0,1,.17.39.27.27,0,0,1-.4.13c-.3-.13-.61-.26-.9-.41a1.64,1.64,0,0,1-.3-.33c-.07.42-.14.81-.2,1.2a.65.65,0,0,0,0,.13l.06.08a3.45,3.45,0,0,1,1,2.32c0,.28-.07.48-.3.52s-.39-.1-.45-.36a9.37,9.37,0,0,1-.19-.92c0-.39-.32-.61-.57-.93-.21.6-.41,1.16-.6,1.72,0,.07-.05.15-.08.22a.37.37,0,0,1-.48.24.36.36,0,0,1-.24-.5c.22-.66.46-1.33.69-2a1.13,1.13,0,0,0,.06-.55,3.51,3.51,0,0,1,.09-.85c0-.22.06-.43.1-.66a.38.38,0,0,0-.33.35c0,.21-.06.42-.09.62a.27.27,0,0,1-.32.25.25.25,0,0,1-.24-.32q.06-.52.15-1c0-.05.05-.08.08-.12s0,0,.06,0A2.36,2.36,0,0,0,358,135.36Z" style="fill:#fff"></path><path d="M364.27,138.31a.22.22,0,0,1-.22.22h0v.31a.22.22,0,0,1-.22.22.22.22,0,0,1-.22-.22v-.31h-1.26a.19.19,0,0,1-.14-.05.2.2,0,0,1,0-.3l1.48-1.84h0s0,0,0,0h.2s0,0,0,0h0l0,0h0v0s0,0,0,0h0v0h0v.05h0v1.61h0A.22.22,0,0,1,364.27,138.31Zm-.7-1.2-.8,1h.8Z" style="fill:#fff"></path><path d="M366.26,137.36a1,1,0,0,1,.3.7,1,1,0,0,1-1,1h0a1,1,0,0,1-.7-.3.22.22,0,0,1,0-.32.24.24,0,0,1,.32,0,.52.52,0,0,0,.38.16.54.54,0,0,0,.38-.92.49.49,0,0,0-.38-.16.54.54,0,0,0-.38.16.22.22,0,0,1-.32,0l0-.05h0s0,0,0,0v0h0a.09.09,0,0,1,0-.07l.12-1a.2.2,0,0,1,.1-.16h0l.11,0h1.18a.23.23,0,1,1,0,.45h-1l0,.4a.78.78,0,0,1,.26,0A.94.94,0,0,1,366.26,137.36Z" style="fill:#fff"></path><path d="M370.19,137.88v1a.21.21,0,0,1-.21.22.23.23,0,0,1-.22-.22v-1a.4.4,0,0,0-.41-.4.41.41,0,0,0-.4.42v1h0a0,0,0,0,1,0,0v0a.22.22,0,0,1-.2.13h0a.22.22,0,0,1-.17-.21v-.94h0v-.62a.21.21,0,0,1,.21-.21.19.19,0,0,1,.19.12.82.82,0,0,1,.43-.12.87.87,0,0,0,1.26,0,.83.83,0,0,1,.83.84v.94a.22.22,0,1,1-.43,0v-.94a.41.41,0,0,0-.4-.42A.42.42,0,0,0,370.19,137.88Z" style="fill:#fff"></path><path d="M372.76,136.56a.22.22,0,1,1-.43,0v-.09a.21.21,0,0,1,.21-.21.21.21,0,0,1,.22.21Zm0,.72v1.56a.22.22,0,1,1-.43,0v-1.56a.21.21,0,0,1,.21-.22A.21.21,0,0,1,372.76,137.28Z" style="fill:#fff"></path><path d="M375.12,137.89v1a.21.21,0,1,1-.42,0v-1a.41.41,0,0,0-.42-.41.4.4,0,0,0-.4.41v1s0,0,0,0a.22.22,0,0,1-.21.18.21.21,0,0,1-.21-.22v-1.57a.21.21,0,0,1,.21-.21.23.23,0,0,1,.2.12.83.83,0,0,1,.42-.12A.84.84,0,0,1,375.12,137.89Z" style="fill:#fff"></path></g><g id="freepik--Route--inject-473"><path d="M388.11,391.16c-.41-4.09-3.22-8.15-8.17-8.15s-7.75,4.06-8.16,8.15c-.62,6.3,3.63,12,8.16,17.22C384.48,403.17,388.74,397.46,388.11,391.16Zm-8.17,4.53a4.47,4.47,0,1,1,4.48-4.47A4.47,4.47,0,0,1,379.94,395.69Z" style="fill:#35A9D9"></path><circle cx="284.97" cy="169.47" r="5.56" style="fill:#35A9D9;opacity:0.4"></circle><path d="M287.7,169.47a2.73,2.73,0,1,1-2.73-2.73A2.74,2.74,0,0,1,287.7,169.47Z" style="fill:#35A9D9"></path><path d="M290.08,173.18a1.5,1.5,0,0,1-1.06-.44,1.52,1.52,0,0,1-.44-1.06,1.5,1.5,0,0,1,.44-1.06,1.55,1.55,0,0,1,2.12,0,1.5,1.5,0,0,1,.44,1.06,1.5,1.5,0,0,1-1.5,1.5Z" style="fill:#35A9D9"></path><path d="M292.72,173.71a1.49,1.49,0,0,1-1.5-1.5c0-.1,0-.2,0-.3a1.52,1.52,0,0,1,.09-.28,1.3,1.3,0,0,1,.14-.26,2,2,0,0,1,.18-.23,1.57,1.57,0,0,1,2.12,0,1.37,1.37,0,0,1,.19.23,1.3,1.3,0,0,1,.14.26,1.41,1.41,0,0,1,.12.58,1.5,1.5,0,0,1-.45,1.06A1.52,1.52,0,0,1,292.72,173.71Z" style="fill:#35A9D9"></path><path d="M250.87,326.24a1.5,1.5,0,0,1,1.5-1.5h0a1.5,1.5,0,0,1,1.5,1.5h0a1.5,1.5,0,0,1-1.5,1.5h0A1.5,1.5,0,0,1,250.87,326.24Zm0-5.05a1.5,1.5,0,0,1,1.5-1.5h0a1.5,1.5,0,0,1,1.5,1.5h0a1.5,1.5,0,0,1-1.5,1.5h0A1.5,1.5,0,0,1,250.87,321.19Zm0-5.05a1.5,1.5,0,0,1,1.5-1.5h0a1.5,1.5,0,0,1,1.5,1.5h0a1.5,1.5,0,0,1-1.5,1.5h0A1.5,1.5,0,0,1,250.87,316.14Zm0-5.05a1.5,1.5,0,0,1,1.5-1.5h0a1.5,1.5,0,0,1,1.5,1.5h0a1.5,1.5,0,0,1-1.5,1.5h0A1.5,1.5,0,0,1,250.87,311.09Zm0-5a1.5,1.5,0,0,1,1.5-1.5h0a1.5,1.5,0,0,1,1.5,1.5h0a1.5,1.5,0,0,1-1.5,1.5h0A1.5,1.5,0,0,1,250.87,306Zm0-5.05a1.5,1.5,0,0,1,1.5-1.5h0a1.5,1.5,0,0,1,1.5,1.5h0a1.5,1.5,0,0,1-1.5,1.5h0A1.5,1.5,0,0,1,250.87,301Zm0-5.05a1.5,1.5,0,0,1,1.5-1.5h0a1.5,1.5,0,0,1,1.5,1.5h0a1.5,1.5,0,0,1-1.5,1.5h0A1.5,1.5,0,0,1,250.87,295.94Zm0-5.05a1.51,1.51,0,0,1,1.5-1.51h0a1.51,1.51,0,0,1,1.5,1.51h0a1.5,1.5,0,0,1-1.5,1.5h0A1.5,1.5,0,0,1,250.87,290.89Zm0-5.06a1.5,1.5,0,0,1,1.5-1.5h0a1.5,1.5,0,0,1,1.5,1.5h0a1.5,1.5,0,0,1-1.5,1.5h0A1.5,1.5,0,0,1,250.87,285.83Zm0-5.05a1.5,1.5,0,0,1,1.5-1.5h0a1.5,1.5,0,0,1,1.5,1.5h0a1.5,1.5,0,0,1-1.5,1.5h0A1.5,1.5,0,0,1,250.87,280.78Zm0-5a1.5,1.5,0,0,1,1.5-1.5h0a1.5,1.5,0,0,1,1.5,1.5h0a1.5,1.5,0,0,1-1.5,1.5h0A1.5,1.5,0,0,1,250.87,275.73Zm2.69-3.33a1.5,1.5,0,0,1-.85-1.94h0a1.51,1.51,0,0,1,1.95-.85h0a1.5,1.5,0,0,1,.85,1.94h0a1.51,1.51,0,0,1-1.4,1h0A1.54,1.54,0,0,1,253.56,272.4Zm1.84-4.7a1.5,1.5,0,0,1-.85-1.94h0a1.48,1.48,0,0,1,1.94-.85h0a1.48,1.48,0,0,1,.85,1.94h0a1.49,1.49,0,0,1-1.39.95h0A1.52,1.52,0,0,1,255.4,267.7Zm1.84-4.71a1.5,1.5,0,0,1-.85-1.94h0a1.5,1.5,0,0,1,1.94-.85h0a1.49,1.49,0,0,1,.85,1.94h0a1.48,1.48,0,0,1-1.39,1h0A1.5,1.5,0,0,1,257.24,263Zm1.84-4.7a1.5,1.5,0,0,1-.85-1.94h0a1.5,1.5,0,0,1,1.94-.86h0a1.51,1.51,0,0,1,.85,1.95h0a1.49,1.49,0,0,1-1.39.95h0A1.49,1.49,0,0,1,259.08,258.29Zm1.84-4.7a1.51,1.51,0,0,1-.85-2h0a1.5,1.5,0,0,1,1.94-.85h0a1.5,1.5,0,0,1,.85,1.94h0a1.5,1.5,0,0,1-1.4,1h0A1.47,1.47,0,0,1,260.92,253.59Zm1.84-4.71a1.5,1.5,0,0,1-.86-1.94h0a1.51,1.51,0,0,1,2-.85h0a1.5,1.5,0,0,1,.85,1.94h0a1.5,1.5,0,0,1-1.4.95h0A1.47,1.47,0,0,1,262.76,248.88Zm1.83-4.71a1.5,1.5,0,0,1-.85-1.94h0a1.51,1.51,0,0,1,1.95-.85h0a1.5,1.5,0,0,1,.85,1.94h0a1.5,1.5,0,0,1-1.4,1h0A1.35,1.35,0,0,1,264.59,244.17Zm1.84-4.7a1.5,1.5,0,0,1-.85-1.94h0a1.49,1.49,0,0,1,1.94-.85h0a1.5,1.5,0,0,1,.86,1.94h0a1.51,1.51,0,0,1-1.4.95h0A1.52,1.52,0,0,1,266.43,239.47Zm1.84-4.7a1.51,1.51,0,0,1-.85-2h0a1.5,1.5,0,0,1,1.94-.85h0a1.49,1.49,0,0,1,.85,1.95h0a1.49,1.49,0,0,1-1.39,1h0A1.49,1.49,0,0,1,268.27,234.77Zm1.84-4.71a1.5,1.5,0,0,1-.85-1.94h0a1.5,1.5,0,0,1,1.94-.85h0a1.5,1.5,0,0,1,.85,1.94h0a1.5,1.5,0,0,1-1.4.95h0A1.47,1.47,0,0,1,270.11,230.06Zm1.84-4.7a1.51,1.51,0,0,1-.85-2h0a1.5,1.5,0,0,1,1.94-.85h0a1.5,1.5,0,0,1,.85,1.94h0a1.5,1.5,0,0,1-1.4,1h0A1.47,1.47,0,0,1,272,225.36Zm1.84-4.71a1.48,1.48,0,0,1-.85-1.94h0a1.49,1.49,0,0,1,1.94-.85h0a1.5,1.5,0,0,1,.85,1.94h0a1.5,1.5,0,0,1-1.4.95h0A1.47,1.47,0,0,1,273.79,220.65Zm1.83-4.7a1.51,1.51,0,0,1-.85-1.95h0a1.51,1.51,0,0,1,2-.85h0a1.51,1.51,0,0,1,.85,1.95h0a1.5,1.5,0,0,1-1.4,1h0A1.52,1.52,0,0,1,275.62,216Zm1.84-4.71a1.5,1.5,0,0,1-.85-1.94h0a1.5,1.5,0,0,1,1.94-.85h0a1.48,1.48,0,0,1,.85,1.94h0a1.49,1.49,0,0,1-1.39,1h0A1.52,1.52,0,0,1,277.46,211.24Zm1.84-4.7a1.51,1.51,0,0,1-.85-1.95h0a1.5,1.5,0,0,1,1.94-.85h0a1.49,1.49,0,0,1,.85,1.94h0a1.48,1.48,0,0,1-1.39,1h0A1.49,1.49,0,0,1,279.3,206.54Zm1.84-4.71a1.5,1.5,0,0,1-.85-1.94h0a1.5,1.5,0,0,1,1.94-.85h0a1.5,1.5,0,0,1,.85,1.94h0a1.5,1.5,0,0,1-1.39,1h0A1.5,1.5,0,0,1,281.14,201.83Zm1.84-4.7a1.5,1.5,0,0,1-.85-1.95h0a1.5,1.5,0,0,1,1.94-.85h0a1.51,1.51,0,0,1,.85,1.95h0a1.5,1.5,0,0,1-1.4.95h0A1.47,1.47,0,0,1,283,197.13Zm1.83-4.71a1.5,1.5,0,0,1-.85-1.94h0a1.51,1.51,0,0,1,2-.85h0a1.5,1.5,0,0,1,.85,1.94h0a1.5,1.5,0,0,1-1.4,1h0A1.52,1.52,0,0,1,284.81,192.42Zm1.84-4.7a1.51,1.51,0,0,1-.85-1.95h0a1.51,1.51,0,0,1,1.95-.85h0a1.51,1.51,0,0,1,.85,2h0a1.5,1.5,0,0,1-1.4.95h0A1.52,1.52,0,0,1,286.65,187.72Zm1.84-4.71a1.5,1.5,0,0,1-.85-1.94h0a1.51,1.51,0,0,1,1.95-.85h0a1.5,1.5,0,0,1,.85,1.94h0a1.52,1.52,0,0,1-1.4,1h0A1.54,1.54,0,0,1,288.49,183Zm1.84-4.7a1.51,1.51,0,0,1-.85-1.95h0a1.5,1.5,0,0,1,1.94-.85h0a1.5,1.5,0,0,1,.85,2h0a1.49,1.49,0,0,1-1.39.95h0A1.52,1.52,0,0,1,290.33,178.31Z" style="fill:#35A9D9"></path><path d="M252.37,332.8a1.47,1.47,0,0,1-1.06-.45,1.44,1.44,0,0,1-.44-1.05,1.53,1.53,0,0,1,0-.3,1.47,1.47,0,0,1,.08-.28,2.15,2.15,0,0,1,.14-.26,1.37,1.37,0,0,1,.19-.23,1.92,1.92,0,0,1,.22-.18,1.65,1.65,0,0,1,.26-.14,1.52,1.52,0,0,1,.28-.09,1.94,1.94,0,0,1,.59,0,1.61,1.61,0,0,1,.54.23,2,2,0,0,1,.23.18,1.73,1.73,0,0,1,.32.49,1.41,1.41,0,0,1,.12.58,1.52,1.52,0,0,1-1.5,1.5Z" style="fill:#35A9D9"></path><path d="M334,331.3a1.5,1.5,0,0,1,1.5-1.5h0a1.5,1.5,0,0,1,1.5,1.5h0a1.5,1.5,0,0,1-1.5,1.5h0A1.51,1.51,0,0,1,334,331.3Zm-4.89,0a1.5,1.5,0,0,1,1.5-1.5h0a1.5,1.5,0,0,1,1.5,1.5h0a1.5,1.5,0,0,1-1.5,1.5h0A1.5,1.5,0,0,1,329.07,331.3Zm-4.88,0a1.5,1.5,0,0,1,1.5-1.5h0a1.5,1.5,0,0,1,1.5,1.5h0a1.51,1.51,0,0,1-1.5,1.5h0A1.5,1.5,0,0,1,324.19,331.3Zm-4.89,0a1.5,1.5,0,0,1,1.5-1.5h0a1.5,1.5,0,0,1,1.5,1.5h0a1.5,1.5,0,0,1-1.5,1.5h0A1.5,1.5,0,0,1,319.3,331.3Zm-4.89,0a1.5,1.5,0,0,1,1.5-1.5h0a1.5,1.5,0,0,1,1.5,1.5h0a1.5,1.5,0,0,1-1.5,1.5h0A1.5,1.5,0,0,1,314.41,331.3Zm-4.89,0a1.5,1.5,0,0,1,1.5-1.5h0a1.5,1.5,0,0,1,1.5,1.5h0a1.5,1.5,0,0,1-1.5,1.5h0A1.5,1.5,0,0,1,309.52,331.3Zm-4.88,0a1.5,1.5,0,0,1,1.5-1.5h0a1.5,1.5,0,0,1,1.5,1.5h0a1.51,1.51,0,0,1-1.5,1.5h0A1.5,1.5,0,0,1,304.64,331.3Zm-4.89,0a1.5,1.5,0,0,1,1.5-1.5h0a1.5,1.5,0,0,1,1.5,1.5h0a1.51,1.51,0,0,1-1.5,1.5h0A1.5,1.5,0,0,1,299.75,331.3Zm-4.89,0a1.5,1.5,0,0,1,1.5-1.5h0a1.5,1.5,0,0,1,1.5,1.5h0a1.5,1.5,0,0,1-1.5,1.5h0A1.5,1.5,0,0,1,294.86,331.3Zm-4.89,0a1.5,1.5,0,0,1,1.5-1.5h0a1.5,1.5,0,0,1,1.5,1.5h0a1.5,1.5,0,0,1-1.5,1.5h0A1.5,1.5,0,0,1,290,331.3Zm-4.89,0a1.5,1.5,0,0,1,1.5-1.5h0a1.5,1.5,0,0,1,1.5,1.5h0a1.5,1.5,0,0,1-1.5,1.5h0A1.5,1.5,0,0,1,285.08,331.3Zm-4.88,0a1.5,1.5,0,0,1,1.5-1.5h0a1.5,1.5,0,0,1,1.5,1.5h0a1.51,1.51,0,0,1-1.5,1.5h0A1.5,1.5,0,0,1,280.2,331.3Zm-4.89,0a1.5,1.5,0,0,1,1.5-1.5h0a1.5,1.5,0,0,1,1.5,1.5h0a1.5,1.5,0,0,1-1.5,1.5h0A1.5,1.5,0,0,1,275.31,331.3Zm-4.89,0a1.5,1.5,0,0,1,1.5-1.5h0a1.5,1.5,0,0,1,1.5,1.5h0a1.5,1.5,0,0,1-1.5,1.5h0A1.5,1.5,0,0,1,270.42,331.3Zm-4.89,0a1.5,1.5,0,0,1,1.5-1.5h0a1.5,1.5,0,0,1,1.5,1.5h0a1.5,1.5,0,0,1-1.5,1.5h0A1.5,1.5,0,0,1,265.53,331.3Zm-4.89,0a1.5,1.5,0,0,1,1.5-1.5h0a1.5,1.5,0,0,1,1.5,1.5h0a1.5,1.5,0,0,1-1.5,1.5h0A1.5,1.5,0,0,1,260.64,331.3Zm-4.88,0a1.5,1.5,0,0,1,1.5-1.5h0a1.5,1.5,0,0,1,1.5,1.5h0a1.51,1.51,0,0,1-1.5,1.5h0A1.5,1.5,0,0,1,255.76,331.3Z" style="fill:#35A9D9"></path><path d="M340.35,332.8a1.47,1.47,0,0,1-.58-.12,1.29,1.29,0,0,1-.48-.33,1.48,1.48,0,0,1-.44-1.05,1.41,1.41,0,0,1,.12-.58,1.26,1.26,0,0,1,.13-.26,2.11,2.11,0,0,1,.19-.23,1.57,1.57,0,0,1,2.12,0,2.11,2.11,0,0,1,.19.23,2.15,2.15,0,0,1,.14.26c0,.09.06.19.08.28a1.53,1.53,0,0,1,0,.3,1.49,1.49,0,0,1-.44,1.05,1.25,1.25,0,0,1-.49.33A1.39,1.39,0,0,1,340.35,332.8Z" style="fill:#35A9D9"></path><path d="M382,377a1.5,1.5,0,0,1,1.5-1.5h0A1.5,1.5,0,0,1,385,377h0a1.51,1.51,0,0,1-1.5,1.51h0A1.51,1.51,0,0,1,382,377Zm-1.63-3a1.5,1.5,0,0,1,0-2.12h0a1.51,1.51,0,0,1,2.13,0h0a1.5,1.5,0,0,1,0,2.12h0a1.49,1.49,0,0,1-1.05.44h0A1.5,1.5,0,0,1,380.39,374ZM377,370.52a1.5,1.5,0,0,1,0-2.12h0a1.49,1.49,0,0,1,2.12,0h0a1.5,1.5,0,0,1,0,2.12h0A1.52,1.52,0,0,1,378,371h0A1.51,1.51,0,0,1,377,370.52Zm-3.42-3.47a1.5,1.5,0,0,1,0-2.12h0a1.5,1.5,0,0,1,2.13,0h0a1.5,1.5,0,0,1,0,2.12h0a1.48,1.48,0,0,1-1.05.43h0A1.47,1.47,0,0,1,373.54,367.05Zm-3.43-3.47a1.5,1.5,0,0,1,0-2.12h0a1.5,1.5,0,0,1,2.12,0h0a1.51,1.51,0,0,1,0,2.12h0a1.52,1.52,0,0,1-1.06.43h0A1.49,1.49,0,0,1,370.11,363.58Zm-3.42-3.47a1.5,1.5,0,0,1,0-2.13h0a1.5,1.5,0,0,1,2.12,0h0a1.5,1.5,0,0,1,0,2.12h0a1.48,1.48,0,0,1-1.05.43h0A1.47,1.47,0,0,1,366.69,360.11Zm-3.43-3.47a1.5,1.5,0,0,1,0-2.12h0a1.49,1.49,0,0,1,2.12,0h0a1.5,1.5,0,0,1,0,2.12h0a1.48,1.48,0,0,1-1.05.43h0A1.49,1.49,0,0,1,363.26,356.64Zm-3.42-3.47a1.49,1.49,0,0,1,0-2.12h0a1.5,1.5,0,0,1,2.12,0h0a1.5,1.5,0,0,1,0,2.12h0a1.5,1.5,0,0,1-1.06.43h0A1.47,1.47,0,0,1,359.84,353.17Zm-3.43-3.47a1.51,1.51,0,0,1,0-2.12h0a1.5,1.5,0,0,1,2.13,0h0a1.5,1.5,0,0,1,0,2.12h0a1.49,1.49,0,0,1-1,.44h0A1.48,1.48,0,0,1,356.41,349.7ZM353,346.23a1.5,1.5,0,0,1,0-2.12h0a1.49,1.49,0,0,1,2.12,0h0a1.51,1.51,0,0,1,0,2.12h0a1.52,1.52,0,0,1-1.06.43h0A1.51,1.51,0,0,1,353,346.23Zm-3.42-3.47a1.5,1.5,0,0,1,0-2.12h0a1.5,1.5,0,0,1,2.12,0h0a1.49,1.49,0,0,1,0,2.12h0a1.48,1.48,0,0,1-1.05.43h0A1.47,1.47,0,0,1,349.56,342.76Zm-3.43-3.47a1.5,1.5,0,0,1,0-2.12h0a1.49,1.49,0,0,1,2.12,0h0a1.5,1.5,0,0,1,0,2.12h0a1.48,1.48,0,0,1-1.05.43h0A1.49,1.49,0,0,1,346.13,339.29Zm-3.42-3.47a1.5,1.5,0,0,1,0-2.12h0a1.5,1.5,0,0,1,2.12,0h0a1.49,1.49,0,0,1,0,2.12h0a1.49,1.49,0,0,1-1.05.44h0A1.48,1.48,0,0,1,342.71,335.82Z" style="fill:#35A9D9"></path><path d="M383.52,383.34a1.46,1.46,0,0,1-1.06-.44,1.5,1.5,0,0,1-.44-1.06,1.43,1.43,0,0,1,0-.29,1.31,1.31,0,0,1,.09-.28,1.26,1.26,0,0,1,.13-.26,2.11,2.11,0,0,1,.19-.23,1.55,1.55,0,0,1,2.12,0,2.11,2.11,0,0,1,.19.23,2.15,2.15,0,0,1,.14.26,2.29,2.29,0,0,1,.08.28,1.43,1.43,0,0,1,0,.29,1.5,1.5,0,0,1-.44,1.06A1.46,1.46,0,0,1,383.52,383.34Z" style="fill:#35A9D9"></path></g><g id="freepik--Character--inject-473"><path d="M128.89,211c-.53.6-42.35.49-44.31-.18a1.58,1.58,0,0,1-.27-.13c-2.4-1.27-13.28-12.26-14.09-13.18-2-2.26,7.44-17,10.33-19.42A12.93,12.93,0,0,1,85.93,176s11-27.43,17.24-33c1.56-1.4,27.47-.74,32,1.59,1.94,1,6.52,6.15,6.61,7h0C141.83,153,129.42,210.39,128.89,211Z" style="fill:#455a64"></path><path d="M128.89,211c-.53.6-42.35.49-44.31-.18a1.58,1.58,0,0,1-.27-.13c4.52-10.62,25.73-60.46,26.28-60.76s25.28,1,31.18,1.74C141.83,153,129.42,210.39,128.89,211Z" style="fill:#37474f"></path><path d="M116.64,145.74c-.4-.41-.4-6.1.42-7.19s10.81-.12,11.35,1,.54,6.79.23,7-2,.31-2.18-.07,0-5.06-.13-5.31-7.09-1-7.35-.7.1,5.12-.19,5.31S117,146.14,116.64,145.74Z" style="fill:#35A9D9"></path><path d="M186.87,432.91c-2.31.25-63.82-13.26-65.83-15.27-.78-.74.67-9.82,2.73-20.74,0-.11,0-.23.07-.34.42-2.25,11.12-39.25,11.12-39.25l41.17,8.92-12.51,38.61-.17.67s21.23,15.7,23.22,18.14S189.17,432.67,186.87,432.91Z" style="fill: rgb(247, 169, 160);"></path><path d="M121,417.64c2,2,63.52,15.53,65.83,15.27s1.77-6.84-.21-9.26-23.21-18.15-23.21-18.15l.17-.66,1.43-4.42-39.83-9c-.43,1.59-1.32,4.85-1.38,5.18,0,.12,0,.23-.07.34C121.71,407.82,120.26,416.9,121,417.64Z" style="fill:#ebebeb"></path><path d="M186.87,432.91c-1.19.13-17.93-3.36-34.24-7.07-3.28-.75-6.54-1.5-9.64-2.23-11.62-2.73-21.17-5.2-22-6s.63-9.57,2.65-20.28l.09-.46c0-.11,0-.23.06-.35h0l39.73,8.27-.16.68s21.23,15.7,23.21,18.13S189.17,432.67,186.87,432.91Z" style="fill:#35A9D9"></path><path d="M186.69,430.37c-10.31-2.53-52.14-11.77-62.53-13.49-.08,0-.09,0,0,.06,10.17,2.74,52.07,11.64,62.51,13.6C186.88,430.59,186.91,430.43,186.69,430.37Z" style="fill:#263238"></path><path d="M168,405.92c-3.91-1.66-9-2.13-12.8.1-.14.08,0,.29.12.27a59.16,59.16,0,0,1,12.55.14A.27.27,0,0,0,168,405.92Z" style="fill:#263238"></path><path d="M170.56,408.34c-3.91-1.65-9-2.12-12.79.1-.15.08,0,.29.12.28a57.88,57.88,0,0,1,12.55.14A.27.27,0,0,0,170.56,408.34Z" style="fill:#263238"></path><path d="M173.12,410.77c-3.91-1.66-9-2.13-12.8.09-.14.09,0,.29.12.28a58.51,58.51,0,0,1,12.55.14A.27.27,0,0,0,173.12,410.77Z" style="fill:#263238"></path><path d="M170.26,398.76l-44.67-11s15.72-72.1,15.36-73.95c-.45-2.37-38.58-111.22-38.58-111.22H140.8S183.22,306,184.43,316C186.4,332.25,170.26,398.76,170.26,398.76Z" style="fill:#263238"></path><path d="M169.66,389c-7.79-2.52-36.37-9.25-39.58-9.48a.07.07,0,0,0,0,.14c3,1.25,27.52,7.39,39.56,9.53A.1.1,0,1,0,169.66,389Z" style="fill:#37474f"></path><path d="M148.18,316.1a46.9,46.9,0,0,0-2.41-7.83q-5.67-16.51-11.44-33c-3.83-10.93-7.69-21.85-11.68-32.72s-8.05-21.84-12.09-32.76c-.51-1.36-1.06-2.71-1.58-4.07,0-.11-.21-.06-.17.05,3.78,10.88,7.65,21.73,11.48,32.59s7.63,21.75,11.44,32.62,7.58,21.77,11.3,32.68l2.82,8.26a16.76,16.76,0,0,1,1.18,8c-.41,2.83-1.08,5.65-1.63,8.46s-1.11,5.64-1.66,8.46c-2.22,11.4-4.42,22.81-6.47,34.24-.26,1.45-.5,2.89-.71,4.35,0,.1.13.15.16,0,1.45-5.67,2.53-11.44,3.73-17.17s2.38-11.47,3.54-17.22,2.29-11.37,3.42-17.07C147.93,321.43,148.6,318.77,148.18,316.1Z" style="fill:#37474f"></path><path d="M144.84,449.14c-2.21.7-65.18-.46-67.55-2-.91-.58-1.27-9.76-1.4-20.87v-.35c0-2.29,1.26-40.68,1.26-40.68l41.16.64-1.79,40.33,0,.69s23.9,11.22,26.32,13.22S147.05,448.44,144.84,449.14Z" style="fill: rgb(247, 169, 160);"></path><path d="M75.85,421.49c0,1.49,0,3,0,4.4v.35c.13,11.11.49,20.3,1.41,20.87,2.36,1.57,65.33,2.73,67.54,2s.39-7.05-2-9.05-26.33-13.21-26.33-13.21l0-.7.19-4.28Z" style="fill:#ebebeb"></path><path d="M144.84,449.14c-2.21.7-65.18-.46-67.55-2-.91-.58-1.27-9.76-1.4-20.87v-.35l40.63.29,0,.69s23.9,11.22,26.32,13.22S147.05,448.44,144.84,449.14Z" style="fill:#35A9D9"></path><path d="M144.17,446.68c-10.61-.45-53.44-1.29-64-.93-.09,0-.09.06,0,.06,10.5.68,53.34,1.17,64,1.05C144.39,446.85,144.39,446.69,144.17,446.68Z" style="fill:#263238"></path><path d="M121,426.38c-4.16-.86-9.28-.31-12.53,2.61-.12.11,0,.29.18.25A58.49,58.49,0,0,1,121,426.91.27.27,0,0,0,121,426.38Z" style="fill:#263238"></path><path d="M124,428.25c-4.16-.85-9.28-.31-12.52,2.61-.13.11,0,.29.17.25A59.25,59.25,0,0,1,124,428.78.27.27,0,0,0,124,428.25Z" style="fill:#263238"></path><path d="M127,430.13c-4.17-.86-9.29-.31-12.53,2.6-.13.12,0,.29.17.25A59.25,59.25,0,0,1,127,430.65.26.26,0,0,0,127,430.13Z" style="fill:#263238"></path><path d="M139.56,202.63s-.89,18.39-5.1,33c-.33,1.2-.7,2.39-1.09,3.53,0,0-1.67,0-8.36,4.08l-5.58,176.16-45.34-.48s7.23-93.36,7.17-99.34c-.08-9.61,5.2-74.71,4.65-76.36-5.64-16.81,3.68-40.54,3.68-40.54Z" style="fill:#263238"></path><path d="M117.87,411c-12.77-.77-37.52-1-40.69-.47-.07,0-.07.12,0,.14,3.16.56,33.22,1.14,40.69.54A.11.11,0,0,0,117.87,411Z" style="fill:#37474f"></path><path d="M120.7,337.32q.81-30.29,2.06-60.57c.47-11.38.95-21.45,1.61-32.82a.31.31,0,0,1,.62,0c-.5,20.3-1.29,39.26-2,59.55s-1.36,40.39-2.06,60.57c-.39,11.39-.73,22.79-1.2,34.17a.13.13,0,0,1-.26,0C119.63,377.92,120.15,357.62,120.7,337.32Z" style="fill:#37474f"></path><path d="M85.25,365.53q1.43-19.87,2.94-39.73t3-39.72c.5-6.62,1-13.24,1.49-19.86l.78-9.93a90.05,90.05,0,0,0,.59-9.84c-.13-3.58-1.64-6.77-2.48-10.21a39.71,39.71,0,0,1-1-10c.09-6.92,1.64-13.73,3.07-20.46.08-.38.66-.21.57.17a100,100,0,0,0-3.06,18.81,40.69,40.69,0,0,0,.66,9.48c.59,3,1.84,5.79,2.55,8.75s.32,6.21.08,9.3c-.26,3.31-.48,6.62-.71,9.93Q93,272,92.21,281.73c-2,26.35-3.88,52.7-5.94,79-1.15,14.82-2.13,29.68-3.58,44.48,0,.11-.18.11-.17,0C83.21,392,84.31,378.76,85.25,365.53Z" style="fill:#37474f"></path><path d="M94.54,222.63c.76-.3,1.62-.37,2.4-.6a19.08,19.08,0,0,0,2.44-.86,18.23,18.23,0,0,0,4.21-2.54,9.8,9.8,0,0,0,2.73-4c.34-.81,1.82-5.14,1.84-5.17s.25-.06.24,0c0,.58-.87,4.27-1.15,5.2a9.59,9.59,0,0,1-2.74,4.58,16,16,0,0,1-7.39,3.42,7.07,7.07,0,0,1-2.59.16C94.39,222.86,94.43,222.67,94.54,222.63Z" style="fill:#37474f"></path><path d="M132.08,240.14a78,78,0,0,0-12.22,5.7c-.15.08,0,.32.11.25,4.12-1.77,8.32-3.46,12.34-5.46A.27.27,0,0,0,132.08,240.14Z" style="fill:#37474f"></path><path d="M133.39,211.89c0-.14-.26-.18-.26,0a136,136,0,0,1-.69,13.76c-.19,2.12-1.9,13.84-5.57,13-.62-.14-.93-.75-1-1.67a14.32,14.32,0,0,1,.49-3.6c.41-2.45.73-4.91.94-7.39a67,67,0,0,0-.14-13.87.12.12,0,0,0-.24,0,127.7,127.7,0,0,1-1.12,19.15c-.46,3-2,7.63,1.19,8.1s5.35-7.21,5.75-9.31A70.19,70.19,0,0,0,133.39,211.89Z" style="fill:#37474f"></path><path d="M127,238.93a19.28,19.28,0,0,0-.82,2.43,5.51,5.51,0,0,0-.35,2,.15.15,0,0,0,.26,0,7,7,0,0,0,.85-1.94c.28-.75.58-1.5.84-2.26A.41.41,0,0,0,127,238.93Z" style="fill:#37474f"></path><path d="M122.29,143.44c-.5-2.31-.93-4.65-1.24-7a64.89,64.89,0,0,1-1.4-10.11c-.3-5.61-.31-12.4,4.58-16.15a19.93,19.93,0,0,1,7.75-3.3c2.86-.66,6-1,8.73.11a7.51,7.51,0,0,1,2.87,2,18.45,18.45,0,0,1,5.74,2.12c2.19.83,3.77,3,4.84,5a30.65,30.65,0,0,1,2.66,7.64,18.85,18.85,0,0,1,.6,7.39,39.44,39.44,0,0,1-1.85,6.38,23.14,23.14,0,0,0-1.58,7.82c0,.09-.13.11-.14,0-.22-4.33,1.84-8.3,2.81-12.42a16.81,16.81,0,0,0,.16-7.13,41.48,41.48,0,0,0-2.24-8,13.71,13.71,0,0,0-4.24-6l.1.08c2.27,1.94,3.39,4.84,4.22,7.63a33.33,33.33,0,0,1,1.58,9.6,31.6,31.6,0,0,1-1.56,8.71,34,34,0,0,0-1.76,8.69,25.75,25.75,0,0,0,2,9.06,37.12,37.12,0,0,1,2.43,8.68,13.07,13.07,0,0,1-1.62,7.84c-2.52,4.39-8.47,8.14-13.42,5.31A17,17,0,0,1,139,174.8a39.06,39.06,0,0,1-3.07-3.36,51.77,51.77,0,0,1-5.36-8.06,96.13,96.13,0,0,1-7.12-17.83c-.46-1.5-.9-3-1.3-4.55a93.36,93.36,0,0,0,2.66,10.34c2,6.11,4.42,12.27,8.11,17.55a41.91,41.91,0,0,0,3.11,3.93c1.21,1.35,2.55,2.56,3.85,3.83.07.08,0,.2-.11.13a33,33,0,0,1-6.4-6.63,44.88,44.88,0,0,1-4.87-8.2A87.06,87.06,0,0,1,122.29,143.44Z" style="fill:#263238"></path><path d="M178.1,120.69l-8.7,27.09a1,1,0,0,0,.81,1.53l14.21.9a2.32,2.32,0,0,0,2.07-1.34l8.69-27.09c.35-.79,0-1.47-.81-1.52l-14.21-.91A2.3,2.3,0,0,0,178.1,120.69Z" style="fill:#a6a6a6"></path><path d="M179.78,120.78l-8.69,27.1a1,1,0,0,0,.81,1.52l14.21.91a2.3,2.3,0,0,0,2.06-1.34l8.7-27.1a1,1,0,0,0-.81-1.52l-14.21-.91A2.32,2.32,0,0,0,179.78,120.78Z" style="fill:#dbdbdb"></path><path d="M183.6,122.29a1.21,1.21,0,1,1-1.1-1.31A1.21,1.21,0,0,1,183.6,122.29Z" style="fill:#455a64"></path><path d="M131.68,159.2c6.79,17.7,25.57,43.1,33,43.74,3.55.3,9.83,1.61,14.78-2.13,10.82-8.17,20.56-24.58,23-34.21.87-3.42-15.46-12.16-18.16-9.52-6.31,6.19-14,18.68-15.07,18.52-3.8-.57-19.51-14.35-29.6-22.88C127,142,129,152.15,131.68,159.2Z" style="fill: rgb(247, 169, 160);"></path><path d="M204.22,148.71c-1.27-7.17-2.7-8.82-.56-15.44,1.4-4.34-.77-7.11-4.17-3.78-5.55,5.43-5.85,15-5,18.38Z" style="fill: rgb(247, 169, 160);"></path><path d="M201.45,169.56s3.86-9.58,3.26-17.36c-.42-5.37-2.62-17-17.08-24.06-3.43-1.68-9.5-1.64-4.9,3.13,3.27,3.4,6.37,4.57,7.91,6.89,0,0-7.73,1-9.28,4.46a71.27,71.27,0,0,0-3.4,9.44,17.13,17.13,0,0,0,1.71.79s-1.14,3.41,1,8.42Z" style="fill: rgb(247, 169, 160);"></path><path d="M203.49,147.14c-2-2-6.36-6.11-11.09-8.25-5.25-2.37-16-5.53-17.72-1.63-1.26,2.85,2.74,4.42,2.74,4.42s-4.72-.37-5.29,2.46c-.52,2.58,2.65,3.6,2.65,3.6s-2.9.27-2.93,2.85c0,3.1,6.07,2,8.75,5.2C181.21,156.5,203.49,147.14,203.49,147.14Z" style="fill: rgb(247, 169, 160);"></path><path d="M190.82,144.86a22.94,22.94,0,0,0-13.3-3.25c-.12,0-.17.1-.06.12a56.42,56.42,0,0,1,13.34,3.18S190.84,144.88,190.82,144.86Z" style="fill:#263238"></path><path d="M188.27,150.09a25.86,25.86,0,0,0-13.47-2.45c-.12,0-.17.11-.06.12a60.24,60.24,0,0,1,13.51,2.39A0,0,0,0,0,188.27,150.09Z" style="fill:#263238"></path><path d="M157.56,165.18l-13,20.34s-13.18-23.05-15.14-30.92c-2.21-8.86,2.8-8.06,10.28-3.65S157.56,165.18,157.56,165.18Z" style="fill:#35A9D9"></path><path d="M157.56,165.18l-13,20.34s-13.18-23.05-15.14-30.92c-2.21-8.86,2.8-8.06,10.28-3.65S157.56,165.18,157.56,165.18Z" style="opacity:0.1"></path><path d="M153.78,163.48c-.55.64-4.66,7-5.52,8.34s-4.45,7-5.22,8.54c0,.07.05.13.1.07,1-1.33,4.66-7,5.57-8.41s4.83-7.73,5.17-8.49C153.91,163.47,153.82,163.44,153.78,163.48Z" style="fill:#263238"></path><path d="M144.11,189.44l.87,20.44-57.56-4.26s19.37-45.44,32.46-56.91c6-5.21,11.14-3.81,15.23.33.93,1,12.12,22.84,13.07,29.49C149,184,144.11,189.44,144.11,189.44Z" style="fill:#35A9D9"></path><path d="M120.76,161.92a1.79,1.79,0,1,0-3.39,1.16,1.79,1.79,0,0,0,3.39-1.16Zm-1.2,2a1.53,1.53,0,0,1-1.93-.94,1.51,1.51,0,1,1,1.93.94Zm-2.41,9.44a1.79,1.79,0,1,0-1.11,2.26A1.78,1.78,0,0,0,117.15,173.37Zm-1.2,2a1.51,1.51,0,1,1,.94-1.92A1.5,1.5,0,0,1,116,175.37Zm-12.58,18.85a1.79,1.79,0,1,0-1.12,2.28A1.81,1.81,0,0,0,103.37,194.22Zm-1.21,2a1.51,1.51,0,1,1,.94-1.91A1.51,1.51,0,0,1,102.16,196.22Zm2.7-24.4a1.69,1.69,0,0,0-.58-.82l-.14.25a1.42,1.42,0,0,1,.46.66,1.51,1.51,0,0,1-1.88,1.93l-.13.24a1.71,1.71,0,0,0,1.16,0A1.8,1.8,0,0,0,104.86,171.82Zm-6.1,10.36a1.69,1.69,0,0,0-.19-.38l-.16.32a1,1,0,0,1,.07.15,1.51,1.51,0,0,1-.94,1.92l-.19.05-.15.3a1.72,1.72,0,0,0,.44-.09A1.8,1.8,0,0,0,98.76,182.18Zm16.51,15a1.79,1.79,0,1,0-1.11,2.26A1.78,1.78,0,0,0,115.27,197.2Zm-1.2,2a1.51,1.51,0,1,1,.94-1.91A1.5,1.5,0,0,1,114.07,199.2Zm-15.5,5.44a1.79,1.79,0,0,0-3.39,1.16,1.44,1.44,0,0,0,.21.41l.37,0a1.51,1.51,0,0,1-.32-.53,1.51,1.51,0,1,1,2.38.68l.37,0A1.79,1.79,0,0,0,98.57,204.64ZM126.66,152a1.79,1.79,0,1,0-1.12,2.27A1.8,1.8,0,0,0,126.66,152Zm-1.21,2a1.51,1.51,0,0,1-1.91-.93,1.53,1.53,0,0,1,.94-1.93,1.51,1.51,0,0,1,1.91,1A1.49,1.49,0,0,1,125.45,154Zm-15.72,29.45a1.78,1.78,0,1,0-1.11,2.27A1.77,1.77,0,0,0,109.73,183.41Zm-1.2,2a1.51,1.51,0,1,1,.94-1.91A1.51,1.51,0,0,1,108.53,185.42Zm12.33,1.76a1.78,1.78,0,1,0-3.37,1.16,1.78,1.78,0,1,0,3.37-1.16Zm-1.2,2a1.49,1.49,0,0,1-1.91-.94,1.51,1.51,0,1,1,1.91.94Zm18.12-7.77a1.79,1.79,0,1,0-1.11,2.26A1.79,1.79,0,0,0,137.78,181.41Zm-1.21,2a1.51,1.51,0,1,1-1-2.85,1.51,1.51,0,0,1,1,2.85Zm7.81,12.27a.65.65,0,0,0,0-.13A1.79,1.79,0,0,0,141,196.7a1.8,1.8,0,0,0,2.28,1.12,1.78,1.78,0,0,0,1.17-1.37A1.68,1.68,0,0,0,144.38,195.68Zm-1.24,1.88a1.51,1.51,0,1,1,.94-1.92A1.51,1.51,0,0,1,143.14,197.56Zm-11.46-30.89a1.79,1.79,0,1,0-1.11,2.26A1.78,1.78,0,0,0,131.68,166.67Zm-1.2,2a1.51,1.51,0,1,1,.94-1.92A1.5,1.5,0,0,1,130.48,168.67Zm-2.95,8a1.79,1.79,0,1,0-1.12,2.27A1.79,1.79,0,0,0,127.53,176.65Zm-1.2,2a1.51,1.51,0,1,1,.93-1.92A1.52,1.52,0,0,1,126.33,178.66Zm6,13.36a1.79,1.79,0,1,0-1.11,2.28A1.8,1.8,0,0,0,132.31,192Zm-1.2,2a1.5,1.5,0,0,1-1.91-.94,1.51,1.51,0,1,1,1.91.94Zm-23.93,13.05,1.28.1A1.76,1.76,0,0,0,107.18,207.08Zm31-1.62a1.79,1.79,0,1,0-1.13,2.28A1.81,1.81,0,0,0,138.17,205.46Zm-1.22,2a1.51,1.51,0,1,1,.94-1.92A1.51,1.51,0,0,1,137,207.47Zm.65-50.31a1.79,1.79,0,1,0-3.38,1.15,1.79,1.79,0,1,0,3.38-1.15Zm-1.21,2a1.51,1.51,0,1,1-1-2.85,1.51,1.51,0,0,1,1,2.85ZM144.06,171a1.78,1.78,0,1,0-1.11,2.27A1.78,1.78,0,0,0,144.06,171Zm-1.2,2a1.51,1.51,0,1,1,.94-1.91A1.5,1.5,0,0,1,142.86,173ZM147,183.38a1.82,1.82,0,0,0-1.13,2.28,1.78,1.78,0,0,0,.42.67l.15-.27a1.28,1.28,0,0,1-.29-.49,1.5,1.5,0,0,1,.93-1.92,1.61,1.61,0,0,1,.48-.08,2.31,2.31,0,0,0,.1-.28A1.88,1.88,0,0,0,147,183.38ZM126.1,202.5a1.79,1.79,0,1,0-1.11,2.28A1.79,1.79,0,0,0,126.1,202.5Zm-1.2,2a1.51,1.51,0,0,1-1-2.85,1.51,1.51,0,1,1,1,2.85Z" style="opacity:0.1"></path><path d="M134.6,184.59a52,52,0,0,0-7.63,1.32c-1.24.33-2.46.72-3.67,1.13q-.92.3-1.83.57a8.29,8.29,0,0,1-2,.39c-.06,0,0,.09,0,.09a15,15,0,0,0,1.9-.05,12.2,12.2,0,0,0,1.8-.36c1.27-.32,2.51-.7,3.77-1,2.54-.67,5.08-1.35,7.67-1.84C134.76,184.78,134.73,184.57,134.6,184.59Z" style="fill:#263238"></path><path d="M141,186.81a59.36,59.36,0,0,0-6.39-.25c-1.07,0-2.13.11-3.19.22l-1.51.18c-.56.08-1.11.23-1.66.3-.06,0-.06.1,0,.09.53,0,1.06,0,1.59,0l1.59,0c1.07,0,2.13-.06,3.19-.11,2.13-.09,4.25-.16,6.38-.17C141.1,187,141.09,186.82,141,186.81Z" style="fill:#263238"></path><path d="M126,149.12c.24,1,5.07,7.51,9.66,7.27,1.5-.08,1.43-8.26,1.43-8.26l.13-.61,1.86-8.47-10-6.34-1.44-.84s-.36,2.35-.77,5.28l-.06.42c0,.17-.06.32-.08.48-.06.43-.13.88-.19,1.33s-.09.67-.12,1-.08.7-.13,1.06A55.51,55.51,0,0,0,126,149.12Z" style="fill: rgb(247, 169, 160);"></path><path d="M126.93,137.15a17.39,17.39,0,0,0,10.32,10.37l1.86-8.47-10-6.34-1.44-.84S127.34,134.22,126.93,137.15Z" style="fill:#263238"></path><path d="M151.6,127.79c-.69,15.21-9.88,16.51-13.16,16.36-3-.14-13.1-1-14-16.19s6.41-19.7,13.24-19.74S152.29,112.57,151.6,127.79Z" style="fill: rgb(247, 169, 160);"></path><path d="M148.16,124c-.36-.06-.68-.17-1-.26a1.73,1.73,0,0,1-1-.47.54.54,0,0,1,0-.66,1.34,1.34,0,0,1,1.34-.25,1.9,1.9,0,0,1,1.2.75A.57.57,0,0,1,148.16,124Z" style="fill:#263238"></path><path d="M138.12,123.62a9,9,0,0,0,1-.17,1.73,1.73,0,0,0,1-.37.54.54,0,0,0,0-.66,1.32,1.32,0,0,0-1.3-.38,2,2,0,0,0-1.27.64A.58.58,0,0,0,138.12,123.62Z" style="fill:#263238"></path><path d="M140,127.55s-.08,0-.08.09c0,1-.16,2.23-1.1,2.55,0,0,0,.07,0,.06C140,130.11,140.15,128.53,140,127.55Z" style="fill:#263238"></path><path d="M139.07,126.45c-1.66-.16-1.86,3.18-.32,3.33S140.47,126.59,139.07,126.45Z" style="fill:#263238"></path><path d="M138.41,126.59c-.31.17-.61.48-1,.5s-.69-.35-.94-.71c0,0-.05,0-.06,0,0,.64.16,1.31.84,1.45s1.11-.42,1.31-1.05C138.62,126.7,138.53,126.52,138.41,126.59Z" style="fill:#263238"></path><path d="M146,127.67s.08.06.07.1c-.1,1,0,2.23.87,2.64,0,0,0,.06,0,.05C145.77,130.23,145.72,128.63,146,127.67Z" style="fill:#263238"></path><path d="M147,126.65c1.67,0,1.57,3.34,0,3.35S145.58,126.66,147,126.65Z" style="fill:#263238"></path><path d="M147.67,126.89c.26.19.51.52.83.55s.64-.32.89-.66c0,0,.05,0,.05,0,0,.64-.23,1.3-.85,1.4s-1-.46-1.1-1.1C147.47,127,147.56,126.82,147.67,126.89Z" style="fill:#263238"></path><path d="M139.82,135.87c.22.27.43.63.8.7a2.76,2.76,0,0,0,1.14-.14,0,0,0,0,1,0,0,1.38,1.38,0,0,1-1.37.42,1.07,1.07,0,0,1-.71-1A.05.05,0,0,1,139.82,135.87Z" style="fill:#263238"></path><path d="M144.33,132.34s.14,1.55.11,2.28c0,.07-.19.1-.43.1h0a3.47,3.47,0,0,1-3.31-1.46.08.08,0,0,1,.12-.1,5.13,5.13,0,0,0,3.12,1.06c.06-.19-.33-2.65-.21-2.66a6.69,6.69,0,0,1,1.64.46c-.2-3.25-.91-6.45-1.06-9.69a.1.1,0,0,1,.2,0,53.51,53.51,0,0,1,1.58,10.39C146.1,133.1,144.62,132.48,144.33,132.34Z" style="fill:#263238"></path><path d="M124.85,128.33a6.12,6.12,0,0,0,4.31-4.27c13-1,16.8-9.27,16.8-9.27,2.85,6.63,5.14,7.67,5.56,8.67,0,0,.76-5.92-1.44-10.29a12.32,12.32,0,0,0-13.58-6.6c-3.94.72-7.1,4.33-7.1,4.33s-4.27.69-5.84,4.24C120.92,121.1,124.85,128.33,124.85,128.33Z" style="fill:#263238"></path><path d="M146.13,114.26a10.54,10.54,0,0,1-2.33,4.63,13.61,13.61,0,0,1-4.13,3.21l-1.21.54c-.4.16-.83.27-1.24.41a17.24,17.24,0,0,1-2.56.58c-.86.12-1.73.16-2.59.24s-1.74-.05-2.6-.1c.86-.07,1.72-.11,2.58-.16s1.71-.21,2.55-.38a19,19,0,0,0,4.83-1.6,13.81,13.81,0,0,0,4.06-3A12.1,12.1,0,0,0,146.13,114.26Z" style="fill:#263238"></path><path d="M126.82,129.23s-2.67-5.15-5-4.25-.73,8,1.66,9.31a2.57,2.57,0,0,0,3.6-.91Z" style="fill: rgb(247, 169, 160);"></path><path d="M122.36,127a0,0,0,0,0,0,.06,6.48,6.48,0,0,1,2.8,4.48,1.41,1.41,0,0,0-2-.66s0,.1,0,.1a1.59,1.59,0,0,1,1.66.77,8.35,8.35,0,0,1,.64,1.51c.06.17.36.12.32-.06v-.05C126.06,130.93,124.74,127.56,122.36,127Z" style="fill:#263238"></path><path d="M114.74,150.19c-21.91,10-47,34-45.87,42.27,1.22,9.18,26.06-2.73,26.48-4.07.32-1,14.43-16.38,25.46-31.25C131,143.4,120.15,147.72,114.74,150.19Z" style="fill: rgb(247, 169, 160);"></path><path d="M109.42,176.1l-21-11.85s22.28-14.45,30-16.86c8.72-2.7,8.19,2.35,4.21,10.07S109.42,176.1,109.42,176.1Z" style="fill:#35A9D9"></path><path d="M109.42,176.1l-21-11.85s22.28-14.45,30-16.86c8.72-2.7,8.19,2.35,4.21,10.07S109.42,176.1,109.42,176.1Z" style="opacity:0.1"></path><path d="M110.91,172.23c-.67-.52-7.2-4.26-8.63-5s-7.28-4-8.83-4.72c-.07,0-.13.06-.06.1,1.38,1,7.26,4.26,8.71,5.09s8,4.39,8.76,4.68C110.93,172.36,111,172.26,110.91,172.23Z" style="fill:#263238"></path><path d="M117.9,145.84c-.76-.91,4.6-1,5.92,0s6.44,14,4,30.69-38.33,29.59-39.61,27.08a5,5,0,0,1,.76-4.47c1.25-1.3,27.46-11.33,30.17-21.63C121.56,168.39,121.17,149.74,117.9,145.84Z" style="fill:#263238"></path><path d="M69,193.54c2.55,3.72,10.52,7.81,36.85,8,3.64,0,8.82-26.5,4.93-26.72-4.9-.27-21.26.4-22.64.64C77.85,177.27,66.45,189.83,69,193.54Z" style="fill: rgb(247, 169, 160);"></path><path d="M143,176.93a4.18,4.18,0,0,1-1.52,4.54,6.23,6.23,0,0,1,2.15,3.65c.35,2.54-3.48,4.21-3.48,4.21a7.71,7.71,0,0,1,1.65,4.21c.1,2.47-3.53,4.7-3.53,4.7a6.72,6.72,0,0,1-.88,4.62c-2.39,3.61-9,3.44-13.19,3.37s-16-4.19-18.38-4.74l1.75-26.83s17.36-5.19,22.28-4.41C134,170.91,142,173.82,143,176.93Z" style="fill: rgb(247, 169, 160);"></path><path d="M141.34,181c-4.25-1.76-8.78-2.17-13.28-2.83-.1,0-.12.15,0,.16,4.48.61,8.79,2.09,13.24,2.88A.11.11,0,0,0,141.34,181Z" style="fill:#263238"></path><path d="M140.11,189a12,12,0,0,0-3.09-.52c-1.11-.1-2.21-.19-3.32-.26-2.22-.14-4.44-.23-6.66-.25-.1,0-.13.15,0,.15,2.21.15,4.41.32,6.62.56l3.3.38a14.23,14.23,0,0,0,3.12.24A.16.16,0,0,0,140.11,189Z" style="fill:#263238"></path><path d="M138.22,198.24a8.27,8.27,0,0,0-2.81-.32l-3-.14c-2-.11-4-.22-6.06-.4-.1,0-.13.15,0,.15,2,.2,4.09.42,6.14.59,1,.09,2,.17,3,.24a8,8,0,0,0,2.76,0S138.26,198.25,138.22,198.24Z" style="fill:#263238"></path><path d="M107.61,174.66c-2.4.14-4.8.21-7.19.31s-4.79.14-7.17.3a30.61,30.61,0,0,0-7,.94,63.94,63.94,0,0,0-6.82,2.24A37,37,0,0,1,86,175.64a27.72,27.72,0,0,1,7.16-1.14c2.41-.09,4.81-.16,7.21-.13S105.21,174.48,107.61,174.66Z" style="fill:#263238"></path></g><g id="freepik--speech-bubble--inject-473"><path d="M198.31,62.25a23.21,23.21,0,0,1-9.81,40.3l-5.16,10.54-5-10.47a22.94,22.94,0,0,1-10.12-5,23.22,23.22,0,1,1,30.09-35.37Z" style="fill:#fff"></path><path d="M198.31,62.25a23.35,23.35,0,0,1,7.06,10.52,25.36,25.36,0,0,1,.81,3.11,28.26,28.26,0,0,1,.33,3.19,23.64,23.64,0,0,1-2.9,12.38,22,22,0,0,1-1.78,2.69,19.65,19.65,0,0,1-2.09,2.47,23.34,23.34,0,0,1-11.17,6.26l.23-.17-5.09,10.57-.37.77-.37-.77-5-10.45.32.24A23.48,23.48,0,0,1,169,61.43a23.7,23.7,0,0,1,9.59-4.29A23.37,23.37,0,0,1,198.31,62.25Zm0,0a23,23,0,0,0-35.61,7.52,22.86,22.86,0,0,0-2.29,10,23.87,23.87,0,0,0,2.32,10,22.92,22.92,0,0,0,15.7,12.35l.22,0,.1.2,5,10.49H183l5.23-10.51.07-.14.15,0a22.8,22.8,0,0,0,11-5.93,20.66,20.66,0,0,0,2.1-2.38,22.17,22.17,0,0,0,4.17-8.51,21.43,21.43,0,0,0,.67-6.33,24.43,24.43,0,0,0-.3-3.18,27.39,27.39,0,0,0-.78-3.09A23.36,23.36,0,0,0,198.31,62.25Z" style="fill:#263238"></path><path d="M192.07,76.62c-.44-4.42-3.49-8.83-8.86-8.83s-8.4,4.41-8.84,8.83c-.68,6.84,3.93,13,8.84,18.68C188.14,89.65,192.75,83.46,192.07,76.62Zm-8.86,4.92a4.85,4.85,0,1,1,4.86-4.85A4.84,4.84,0,0,1,183.21,81.54Z" style="fill:#35A9D9"></path></g></svg>