<svg xmlns="http://www.w3.org/2000/svg" viewBox="0 0 750 500"><g id="freepik--background-complete--inject-96"><path d="M356.16,350a6.14,6.14,0,0,1-1.15.22,9.21,9.21,0,0,1-3.34-.25,10.75,10.75,0,0,1-4.66-2.51,9.46,9.46,0,0,1-3.09-6.23,10.84,10.84,0,0,1,2.64-8,8.26,8.26,0,0,1,4-2.58,6.23,6.23,0,0,1,2.55-.15,4,4,0,0,1,2.32,1.27,4.49,4.49,0,0,1,.19,5.21,8,8,0,0,1-4.5,3.26,11.23,11.23,0,0,1-11-2.54,11.07,11.07,0,0,1-2.69-10.95,9.57,9.57,0,0,1,3-4.68,6.1,6.1,0,0,1,2.47-1.22,4.69,4.69,0,0,1,2.7.26,3.69,3.69,0,0,1,1.95,1.8,3.81,3.81,0,0,1,.2,2.57,5.69,5.69,0,0,1-3.09,3.63,7.54,7.54,0,0,1-4.42.68,7.87,7.87,0,0,1-3.75-1.69,11.19,11.19,0,0,1-3.65-6,16.5,16.5,0,0,1-.37-5.29,21.35,21.35,0,0,1,.79-4.44.92.92,0,0,1,0,.29c0,.22-.09.5-.15.86a31.9,31.9,0,0,0-.4,3.3,16.74,16.74,0,0,0,.45,5.2,10.87,10.87,0,0,0,3.6,5.75,7.4,7.4,0,0,0,3.58,1.58,7.18,7.18,0,0,0,4.17-.66,5.29,5.29,0,0,0,2.83-3.36,3.37,3.37,0,0,0-.17-2.26,3.2,3.2,0,0,0-1.72-1.55,4.1,4.1,0,0,0-2.4-.23,5.42,5.42,0,0,0-2.26,1.13,9,9,0,0,0-2.83,4.44,10.59,10.59,0,0,0,2.56,10.43A10.76,10.76,0,0,0,351,339.73a7.63,7.63,0,0,0,4.23-3,4,4,0,0,0-.13-4.65,3.39,3.39,0,0,0-2.05-1.11,5.49,5.49,0,0,0-2.35.13,7.74,7.74,0,0,0-3.82,2.42,10.4,10.4,0,0,0-2.59,7.67,9.09,9.09,0,0,0,2.92,6,10.55,10.55,0,0,0,4.51,2.52,9.34,9.34,0,0,0,3.28.34C355.76,350,356.15,349.93,356.16,350Z" style="fill:#e0e0e0"></path><path d="M52,299.43a6.07,6.07,0,0,1-1-.53,9.16,9.16,0,0,1-2.5-2.23,10.78,10.78,0,0,1-2.16-4.83A9.42,9.42,0,0,1,47.67,285a10.84,10.84,0,0,1,7-4.72,8.28,8.28,0,0,1,4.77.41,6.21,6.21,0,0,1,2.1,1.44,3.91,3.91,0,0,1,1.08,2.42,4.51,4.51,0,0,1-3,4.25,8.06,8.06,0,0,1-5.56-.16,11.25,11.25,0,0,1-7.16-8.72,11.1,11.1,0,0,1,4.55-10.32,9.55,9.55,0,0,1,5.24-1.88,5.87,5.87,0,0,1,2.7.55,4.47,4.47,0,0,1,2,1.85,3.73,3.73,0,0,1,.46,2.61,3.77,3.77,0,0,1-1.42,2.15,5.68,5.68,0,0,1-4.66,1,7.65,7.65,0,0,1-3.91-2.15,7.85,7.85,0,0,1-1.94-3.64,11.12,11.12,0,0,1,.74-6.95,16.45,16.45,0,0,1,2.94-4.41,21.79,21.79,0,0,1,3.33-3s-.06.08-.21.21l-.64.59a28,28,0,0,0-2.33,2.37,16.3,16.3,0,0,0-2.82,4.4,10.89,10.89,0,0,0-.66,6.74,7.54,7.54,0,0,0,1.88,3.45,7.18,7.18,0,0,0,3.71,2,5.27,5.27,0,0,0,4.29-.93,3.34,3.34,0,0,0,1.24-1.9,3.3,3.3,0,0,0-.41-2.28,4.12,4.12,0,0,0-1.77-1.64,5.5,5.5,0,0,0-2.48-.49,9,9,0,0,0-5,1.79,10.58,10.58,0,0,0-4.33,9.83,10.73,10.73,0,0,0,6.82,8.32,7.64,7.64,0,0,0,5.2.18,4,4,0,0,0,2.73-3.76,3.41,3.41,0,0,0-.94-2.13,5.77,5.77,0,0,0-1.94-1.34,7.87,7.87,0,0,0-4.51-.4A10.44,10.44,0,0,0,48,285.22a9.19,9.19,0,0,0-1.37,6.58,10.69,10.69,0,0,0,2,4.75,9.79,9.79,0,0,0,2.4,2.27C51.67,299.24,52,299.41,52,299.43Z" style="fill:#e0e0e0"></path><path d="M204.38,48.09a6.22,6.22,0,0,1,1.16.19,9.37,9.37,0,0,1,3.05,1.37,10.73,10.73,0,0,1,3.53,4,9.44,9.44,0,0,1,.78,6.91,10.84,10.84,0,0,1-5.21,6.61,8.21,8.21,0,0,1-4.67,1,6.2,6.2,0,0,1-2.44-.73,4,4,0,0,1-1.76-2,4.5,4.5,0,0,1,1.6-5A8.09,8.09,0,0,1,205.76,59a11.24,11.24,0,0,1,9.47,6.14A11.08,11.08,0,0,1,214,76.31a9.55,9.55,0,0,1-4.43,3.38,5.9,5.9,0,0,1-2.73.3,4.54,4.54,0,0,1-2.45-1.17,3.7,3.7,0,0,1-1.22-2.35,3.78,3.78,0,0,1,.69-2.48A5.75,5.75,0,0,1,208,71.62a7.68,7.68,0,0,1,4.39.87,7.93,7.93,0,0,1,3,2.88,11.18,11.18,0,0,1,1.4,6.85,16.65,16.65,0,0,1-1.47,5.1,21.65,21.65,0,0,1-2.25,3.9,1.56,1.56,0,0,1,.13-.26l.44-.76a31.44,31.44,0,0,0,1.5-3,16.74,16.74,0,0,0,1.36-5,10.9,10.9,0,0,0-1.43-6.63,7.5,7.5,0,0,0-2.82-2.71,7.22,7.22,0,0,0-4.15-.8,5.32,5.32,0,0,0-3.81,2.2,3.39,3.39,0,0,0-.61,2.18,3.25,3.25,0,0,0,1.09,2,4,4,0,0,0,2.18,1,5.39,5.39,0,0,0,2.51-.28A9.1,9.1,0,0,0,213.62,76a10.59,10.59,0,0,0,1.15-10.68,10.76,10.76,0,0,0-9-5.86,7.59,7.59,0,0,0-5,1.41,4,4,0,0,0-1.46,4.41A3.4,3.4,0,0,0,200.81,67a5.83,5.83,0,0,0,2.26.69,7.89,7.89,0,0,0,4.42-1,10.44,10.44,0,0,0,5-6.33,9.13,9.13,0,0,0-.68-6.68,10.64,10.64,0,0,0-3.38-3.91,9.53,9.53,0,0,0-3-1.44C204.78,48.17,204.38,48.12,204.38,48.09Z" style="fill:#e0e0e0"></path><path d="M663.45,100.35a5.93,5.93,0,0,1-.88-.77,9.05,9.05,0,0,1-1.85-2.79,10.7,10.7,0,0,1-.89-5.21,9.47,9.47,0,0,1,3-6.27,10.82,10.82,0,0,1,7.93-2.82,8.23,8.23,0,0,1,4.51,1.59A6.1,6.1,0,0,1,677,86a3.88,3.88,0,0,1,.43,2.62,4.5,4.5,0,0,1-4,3.35,8,8,0,0,1-5.33-1.55,11.24,11.24,0,0,1-4.75-10.24,11.09,11.09,0,0,1,7-8.85,9.58,9.58,0,0,1,5.54-.5,5.94,5.94,0,0,1,2.47,1.2,4.49,4.49,0,0,1,1.45,2.29,3.7,3.7,0,0,1-.21,2.64,3.88,3.88,0,0,1-1.91,1.74,5.78,5.78,0,0,1-4.77-.2,7.66,7.66,0,0,1-3.24-3.08,7.79,7.79,0,0,1-1-4,11.14,11.14,0,0,1,2.46-6.53,16.56,16.56,0,0,1,4-3.54,21.38,21.38,0,0,1,4-2.1,1.35,1.35,0,0,1-.25.15l-.77.4a31,31,0,0,0-2.85,1.72,16.8,16.8,0,0,0-3.84,3.54,10.92,10.92,0,0,0-2.32,6.37,7.44,7.44,0,0,0,.94,3.8,7.33,7.33,0,0,0,3.09,2.89,5.33,5.33,0,0,0,4.39.17,3.39,3.39,0,0,0,1.68-1.53,3.25,3.25,0,0,0,.17-2.3,4.08,4.08,0,0,0-1.3-2,5.37,5.37,0,0,0-2.28-1.09,9,9,0,0,0-5.24.49,10.59,10.59,0,0,0-6.66,8.43A10.76,10.76,0,0,0,668.36,90a7.58,7.58,0,0,0,5,1.48,4,4,0,0,0,3.58-3,3.42,3.42,0,0,0-.37-2.3A5.85,5.85,0,0,0,675,84.45a7.84,7.84,0,0,0-4.26-1.53,10.46,10.46,0,0,0-7.65,2.66,9.18,9.18,0,0,0-3,6,10.7,10.7,0,0,0,.78,5.11,9.42,9.42,0,0,0,1.75,2.8C663.16,100.07,663.47,100.33,663.45,100.35Z" style="fill:#e0e0e0"></path><path d="M465.75,331.11a5.65,5.65,0,0,1-.87-.77,9,9,0,0,1-1.86-2.79,10.71,10.71,0,0,1-.88-5.21,9.38,9.38,0,0,1,3-6.27,10.78,10.78,0,0,1,7.92-2.82,8.26,8.26,0,0,1,4.52,1.59,6.23,6.23,0,0,1,1.68,1.92,4,4,0,0,1,.43,2.62,4.5,4.5,0,0,1-4,3.35,8.06,8.06,0,0,1-5.34-1.55,11.23,11.23,0,0,1-4.74-10.24,11.08,11.08,0,0,1,7-8.85,9.58,9.58,0,0,1,5.54-.5,6,6,0,0,1,2.48,1.2,4.62,4.62,0,0,1,1.45,2.29,3.76,3.76,0,0,1-.22,2.64,3.84,3.84,0,0,1-1.91,1.74,5.75,5.75,0,0,1-4.76-.2,7.69,7.69,0,0,1-3.25-3.08,7.79,7.79,0,0,1-1-4,11.08,11.08,0,0,1,2.47-6.53,16.37,16.37,0,0,1,3.95-3.54,21.38,21.38,0,0,1,4-2.1l-.26.15-.77.4a31,31,0,0,0-2.85,1.72,16.57,16.57,0,0,0-3.83,3.54,10.86,10.86,0,0,0-2.33,6.37,7.35,7.35,0,0,0,.95,3.8,7.24,7.24,0,0,0,3.08,2.89,5.33,5.33,0,0,0,4.39.17,3.39,3.39,0,0,0,1.68-1.53,3.19,3.19,0,0,0,.17-2.3,4,4,0,0,0-1.3-2,5.33,5.33,0,0,0-2.27-1.09,9.05,9.05,0,0,0-5.25.49,10.59,10.59,0,0,0-6.66,8.43,10.76,10.76,0,0,0,4.52,9.76,7.6,7.6,0,0,0,5,1.48,4,4,0,0,0,3.58-3,3.42,3.42,0,0,0-.37-2.3,5.68,5.68,0,0,0-1.54-1.77,7.87,7.87,0,0,0-4.27-1.53,10.39,10.39,0,0,0-7.64,2.67,9,9,0,0,0-3,6,10.46,10.46,0,0,0,.78,5.11,9.43,9.43,0,0,0,1.74,2.8C465.46,330.83,465.77,331.09,465.75,331.11Z" style="fill:#e0e0e0"></path><path d="M436.67,449.67a5.85,5.85,0,0,1-.89.74,9.19,9.19,0,0,1-3,1.42,10.68,10.68,0,0,1-5.29.09,9.39,9.39,0,0,1-5.73-3.93,10.75,10.75,0,0,1-1.61-8.26,8.3,8.3,0,0,1,2.26-4.22,6.09,6.09,0,0,1,2.15-1.37,3.86,3.86,0,0,1,2.64,0,4.49,4.49,0,0,1,2.72,4.45,8,8,0,0,1-2.34,5,11.24,11.24,0,0,1-10.83,3.16,11.1,11.1,0,0,1-7.7-8.24,9.53,9.53,0,0,1,.34-5.55,6,6,0,0,1,1.56-2.27,4.5,4.5,0,0,1,2.48-1.09,3.68,3.68,0,0,1,2.58.61,3.82,3.82,0,0,1,1.43,2.15,5.74,5.74,0,0,1-.92,4.67A7.66,7.66,0,0,1,413,439.8a7.89,7.89,0,0,1-4.11.35,11.12,11.12,0,0,1-6.1-3.42,16.47,16.47,0,0,1-2.9-4.44,21.6,21.6,0,0,1-1.48-4.26,1.23,1.23,0,0,1,.11.28c.08.21.17.48.29.82a31.77,31.77,0,0,0,1.26,3.08,16.92,16.92,0,0,0,2.93,4.32,11,11,0,0,0,6,3.26,7.5,7.5,0,0,0,3.9-.37,7.26,7.26,0,0,0,3.31-2.62,5.25,5.25,0,0,0,.83-4.31,3.09,3.09,0,0,0-3.51-2.41,4.13,4.13,0,0,0-2.21,1,5.51,5.51,0,0,0-1.42,2.08,9,9,0,0,0-.3,5.26,10.59,10.59,0,0,0,7.33,7.85,10.78,10.78,0,0,0,10.33-3,7.54,7.54,0,0,0,2.21-4.71,4,4,0,0,0-2.38-4,3.45,3.45,0,0,0-2.33,0,5.86,5.86,0,0,0-2,1.26,7.87,7.87,0,0,0-2.15,4,10.43,10.43,0,0,0,1.49,8,9.14,9.14,0,0,0,5.5,3.85,10.69,10.69,0,0,0,5.17,0,9.9,9.9,0,0,0,3-1.31C436.35,449.91,436.65,449.64,436.67,449.67Z" style="fill:#e0e0e0"></path><path d="M411.16,112.72a6.57,6.57,0,0,1-.88-.78,9.11,9.11,0,0,1-1.85-2.78,10.77,10.77,0,0,1-.89-5.22,9.45,9.45,0,0,1,3-6.26,10.79,10.79,0,0,1,7.93-2.83,8.24,8.24,0,0,1,4.51,1.6,6,6,0,0,1,1.68,1.92,3.85,3.85,0,0,1,.43,2.61,4.5,4.5,0,0,1-4,3.35,8,8,0,0,1-5.33-1.55A11.23,11.23,0,0,1,411,92.54a11.06,11.06,0,0,1,7-8.84,9.39,9.39,0,0,1,5.53-.5A5.8,5.8,0,0,1,426,84.4a4.46,4.46,0,0,1,1.45,2.28,3.73,3.73,0,0,1-.21,2.65,3.86,3.86,0,0,1-1.91,1.73,5.78,5.78,0,0,1-4.77-.2,7.64,7.64,0,0,1-3.24-3.07,7.84,7.84,0,0,1-1-4,11.14,11.14,0,0,1,2.46-6.54,16.56,16.56,0,0,1,3.95-3.54,21.38,21.38,0,0,1,4-2.1s-.08.06-.25.15l-.77.41a28.35,28.35,0,0,0-2.85,1.71,16.64,16.64,0,0,0-3.84,3.55,10.87,10.87,0,0,0-2.32,6.36,7.5,7.5,0,0,0,.94,3.81,7.37,7.37,0,0,0,3.09,2.88,5.29,5.29,0,0,0,4.39.17,3.37,3.37,0,0,0,1.68-1.52,3.27,3.27,0,0,0,.17-2.31,4.15,4.15,0,0,0-1.3-2,5.37,5.37,0,0,0-2.28-1.09,9,9,0,0,0-5.24.49,10.59,10.59,0,0,0-6.66,8.43,10.75,10.75,0,0,0,4.52,9.76,7.58,7.58,0,0,0,5,1.48,4,4,0,0,0,3.58-3,3.39,3.39,0,0,0-.37-2.29,5.77,5.77,0,0,0-1.55-1.78,7.84,7.84,0,0,0-4.26-1.53A10.42,10.42,0,0,0,410.81,98a9.13,9.13,0,0,0-3,6,10.68,10.68,0,0,0,.78,5.11,9.42,9.42,0,0,0,1.75,2.8C410.87,112.44,411.18,112.69,411.16,112.72Z" style="fill:#e0e0e0"></path><path d="M108.27,130.55s19.1,34.08,23.49,32.38c5.66-2.19,14.75-39.18,14.75-39.18S111.7,130.06,108.27,130.55Z" style="fill:#f5f5f5"></path><path d="M150.29,123.08s22.07,32.24,26.29,30.15c5.44-2.69,11.19-40.34,11.19-40.34S153.66,122.28,150.29,123.08Z" style="fill:#ebebeb"></path><path d="M191.35,111.68s24.88,30.13,28.9,27.67c5.18-3.17,7.51-41.18,7.51-41.18S194.64,110.59,191.35,111.68Z" style="fill:#f5f5f5"></path><path d="M229.46,97.65s26.6,28.62,30.46,25.93C264.91,120.11,265,82,265,82S232.67,96.37,229.46,97.65Z" style="fill:#ebebeb"></path><path d="M266.93,80.28s29.42,25.71,33,22.64c4.6-4,.77-41.86.77-41.86S270,78.67,266.93,80.28Z" style="fill:#f5f5f5"></path><path d="M302.57,59.76s31.28,23.42,34.6,20.08c4.29-4.3-2.4-41.79-2.4-41.79S305.5,57.93,302.57,59.76Z" style="fill:#ebebeb"></path><path d="M66.26,134.41s16.36,35.48,20.87,34.13c5.82-1.74,17.78-37.9,17.78-37.9S69.71,134.19,66.26,134.41Z" style="fill:#ebebeb"></path><path d="M365.24,14.46l-.73.65L362.32,17l-3.58,3.06q-1,.91-2.28,1.95l-2.65,2.15-6.25,5.06L340,35c-1.34,1.06-2.78,2.1-4.26,3.18l-4.58,3.34c-.79.57-1.58,1.16-2.4,1.73L326.24,45l-5.19,3.6a497.37,497.37,0,0,1-52.14,30.93c-10.18,5.16-21,10.3-32.43,15.2s-23.45,9.45-35.92,13.7l-9.33,3.08L182,114.35l-2.3.69-2.31.64L172.77,117l-4.55,1.26-4.54,1.15c-3,.74-6,1.55-9,2.21l-8.84,2c-2.91.65-5.82,1.19-8.69,1.77l-4.27.86-4.25.74c-11.22,2.08-22,3.42-32.08,4.61-10.1,1-19.53,1.78-28.16,2.11l-6.31.27c-2,.09-4.06.07-6,.12-3.89,0-7.55.14-11,0s-6.62-.06-9.56-.16l-8-.34c-1.2-.06-2.34-.08-3.41-.16l-3-.21-4.69-.34-2.88-.22-1-.08,1,0,2.89.18,4.69.3,3,.2c1.07.07,2.2.09,3.41.14l8,.3c2.93.09,6.12.08,9.55.13s7.09,0,11-.08c1.94-.05,3.94,0,6-.14l6.31-.27c8.62-.36,18-1.14,28.14-2.17,10.07-1.19,20.83-2.55,32.05-4.64l4.24-.74,4.27-.86c2.86-.59,5.77-1.12,8.68-1.77l8.83-2c3-.66,5.94-1.48,9-2.22l4.53-1.14,4.55-1.27,4.58-1.27,2.3-.64,2.3-.7,9.26-2.82,9.32-3.08c12.46-4.25,24.47-8.86,35.9-13.69s22.24-10,32.42-15.17a503,503,0,0,0,52.14-30.83l5.2-3.58,2.5-1.73c.82-.58,1.61-1.16,2.4-1.73L335.58,38c1.48-1.08,2.92-2.11,4.27-3.16l7.6-5.8,6.26-5,2.67-2.14L358.67,20l3.59-3,2.22-1.85C365,14.66,365.24,14.46,365.24,14.46Z" style="fill:#455a64"></path><path d="M48.26,134.89c-1.07,0-2.11,0-3.14,0l-3.52,0c-2.12,0-4.14,0-6.05-.11l-9.3-.39c-.75,0-1.47-.06-2.16-.11l-10.57-.77c-.67,0-1-.09-1-.09l.1-1.49,1,0,10.58.67c.68,0,1.38.07,2.12.09l9.29.35c1.87.06,3.84.08,5.92.1l3.62,0c2.66.07,5.46,0,8.42,0l2.54,0,2.09,0c1.27,0,2.56,0,3.87-.1l6.31-.27c7.81-.32,16.74-1,28.1-2.16,9.48-1.13,20.56-2.51,32-4.64l8.5-1.59,3.05-.61c1.86-.37,3.74-.75,5.62-1.16l8.83-2c1.91-.43,3.82-.92,5.74-1.41l3.2-.8,9.05-2.41,9.17-2.61,9.26-2.82,9.31-3.07c11.93-4.07,24-8.67,35.84-13.67,10.57-4.53,21.46-9.63,32.37-15.15a504.81,504.81,0,0,0,52.06-30.78l11.46-8L335.74,37c1.26-.92,2.49-1.81,3.65-2.71l7.6-5.8,11.2-9.08L364,14.5l.78-.63,1,1.14-.75.66-10.72,9.06L348,29.79l-7.59,5.84c-1.17.92-2.42,1.82-3.7,2.76l-6,4.37-1.58,1.14-7.69,5.32a502.3,502.3,0,0,1-52.22,31c-10.95,5.55-21.87,10.67-32.48,15.23-11.89,5-24,9.64-36,13.72l-9.33,3.09-23.05,6.7-4.55,1.15-3.22.81c-1.93.5-3.85,1-5.77,1.41l-8.83,2c-1.91.42-3.8.79-5.69,1.16l-3,.61-8.54,1.6c-11.51,2.13-22.62,3.5-32.12,4.61-11.4,1.14-20.36,1.81-28.22,2.12l-6.31.27c-1.34.06-2.66.07-4,.09-.69,0-1.38,0-2,0l-2.5,0C51.79,134.86,50,134.89,48.26,134.89Z" style="fill:#e0e0e0"></path><path d="M645,134.67s-20,33.59-24.3,31.78c-5.61-2.34-13.75-39.54-13.75-39.54S641.62,134.1,645,134.67Z" style="fill:#f5f5f5"></path><path d="M603.21,126.14s-22.87,31.67-27,29.47C570.79,152.79,566,115,566,115S599.87,125.26,603.21,126.14Z" style="fill:#ebebeb"></path><path d="M562.45,113.7s-25.63,29.49-29.58,26.93c-5.1-3.3-6.47-41.36-6.47-41.36S559.2,112.53,562.45,113.7Z" style="fill:#f5f5f5"></path><path d="M524.71,98.71s-27.31,27.93-31.11,25.15c-4.89-3.6-4-41.67-4-41.67S521.53,97.35,524.71,98.71Z" style="fill:#ebebeb"></path><path d="M487.7,80.39s-30.06,25-33.55,21.8c-4.5-4.08.3-41.87.3-41.87S484.67,78.71,487.7,80.39Z" style="fill:#f5f5f5"></path><path d="M452.59,59s-31.86,22.61-35.1,19.19C413.32,73.76,421,36.45,421,36.45S449.71,57.07,452.59,59Z" style="fill:#ebebeb"></path><path d="M686.93,139.6s-17.25,35.05-21.73,33.59c-5.77-1.89-16.82-38.34-16.82-38.34S683.48,139.29,686.93,139.6Z" style="fill:#ebebeb"></path><path d="M391.09,12.09s.23.24.72.68L394,14.71l3.49,3.14,2.23,2c.82.69,1.68,1.43,2.6,2.22l6.12,5.21,7.42,6c1.33,1.09,2.74,2.16,4.19,3.28L424.49,40c.78.59,1.55,1.2,2.35,1.8l2.46,1.79,5.1,3.73A498.57,498.57,0,0,0,485.74,79.6c10,5.42,20.74,10.83,32,16s23.2,10,35.56,14.61l9.25,3.32,9.2,3,2.28.76,2.29.7,4.55,1.39,4.51,1.38,4.51,1.26c3,.81,6,1.7,8.9,2.44l8.79,2.21c2.9.73,5.79,1.33,8.64,2l4.25,1,4.22.84c11.18,2.37,21.91,4,32,5.42,10.08,1.27,19.48,2.28,28.1,2.84l6.3.42c2,.15,4,.18,6,.27,3.89.15,7.55.34,11,.34s6.62.11,9.56.08l8-.14c1.21,0,2.35,0,3.42-.07l3-.14,4.69-.22,2.89-.14,1-.06-1,0-2.89.1-4.7.18-3,.12c-1.07,0-2.21,0-3.42.06l-8,.1c-2.94,0-6.12-.08-9.55-.11s-7.09-.21-11-.37c-2-.1-3.94-.13-6-.28l-6.3-.44c-8.61-.58-18-1.6-28.07-2.88-10-1.45-20.77-3.08-31.93-5.45l-4.22-.85-4.25-1c-2.85-.66-5.74-1.27-8.63-2l-8.78-2.22c-3-.74-5.9-1.63-8.9-2.45l-4.5-1.26L581,119.07l-4.55-1.39-2.28-.69-2.28-.76-9.19-3-9.24-3.32c-12.35-4.56-24.23-9.48-35.54-14.59s-22-10.58-32-16a501.64,501.64,0,0,1-51.35-32.15l-5.11-3.71L427,41.63l-2.36-1.79-4.49-3.44c-1.46-1.11-2.87-2.18-4.2-3.27l-7.44-6L402.37,22l-2.61-2.2-2.24-2L394,14.65c-.95-.84-1.67-1.48-2.17-1.91Z" style="fill:#455a64"></path><path d="M704.91,140.53c1.07,0,2.12.05,3.15,0l3.51.05c2.12,0,4.14,0,6,0l9.31-.15c.75,0,1.47,0,2.16-.05l10.59-.5,1-.07-.06-1.49-1,0-10.58.41q-1,0-2.13,0l-9.3.12c-1.87,0-3.84,0-5.91-.06l-3.62,0c-2.67,0-5.46-.13-8.42-.26l-2.53-.11-2.1-.09c-1.27,0-2.56-.09-3.87-.19l-6.3-.44c-7.8-.52-16.7-1.43-28-2.87-9.45-1.37-20.49-3-31.87-5.44l-8.45-1.82-3-.69c-1.86-.41-3.72-.83-5.59-1.3l-8.77-2.22c-1.91-.47-3.8-1-5.71-1.55l-3.18-.89-9-2.63-9.1-2.84-9.19-3.06-9.22-3.31c-11.82-4.36-23.76-9.26-35.48-14.56-10.46-4.8-21.21-10.18-32-16A504.61,504.61,0,0,1,435,46.52l-11.25-8.3L420,35.36c-1.24-1-2.44-1.87-3.58-2.8l-7.45-6-11-9.35-5.69-5c-.5-.44-.77-.65-.77-.65l-1,1.11.74.69,10.49,9.33,6.11,5.21,7.44,6c1.15,1,2.37,1.88,3.63,2.85l5.88,4.53c.51.39,1,.78,1.55,1.17L434,48a502,502,0,0,0,51.41,32.29c10.8,5.83,21.59,11.23,32.08,16,11.76,5.32,23.75,10.25,35.62,14.63l9.26,3.32,22.86,7.29,4.53,1.27,3.19.89c1.92.54,3.82,1.08,5.73,1.55l8.78,2.22c1.9.47,3.78.89,5.66,1.31l3,.68,8.5,1.82c11.45,2.42,22.52,4.07,32,5.43,11.36,1.43,20.3,2.33,28.15,2.83l6.3.43c1.34.1,2.66.14,4,.19l2,.08,2.49.1C701.39,140.41,703.18,140.49,704.91,140.53Z" style="fill:#e0e0e0"></path></g><g id="freepik--Confetti--inject-96"><path d="M319.49,208S317,197.51,308,199l1.94-6.76s15,2.45,13.29,13.21Z" style="fill:#455a64"></path><path d="M304.26,423.48s-2.47-10.47-11.51-9l1.93-6.75s15,2.45,13.29,13.21Z" style="fill:#455a64"></path><path d="M497.33,406.49s-10.23,3.35-8,12.23l-6.89-1.36s1.18-15.18,12-14.35Z" style="fill:#455a64"></path><path d="M679.69,370s-2.47-10.47-11.51-9l1.93-6.75s15,2.45,13.29,13.2Z" style="fill:#455a64"></path><path d="M712.85,90.26s-2.48-10.48-11.51-9l1.93-6.75s15,2.45,13.29,13.21Z" style="fill:#455a64"></path><path d="M169.49,112s-8.34,6.8-3,14.27l-6.92,1.22s-4.37-14.59,6.07-17.73Z" style="fill:#455a64"></path><path d="M381.66,130.57s-10.69,1.18-10.29,10.34l-6.47-2.74s4.25-14.62,14.72-11.59Z" style="fill:#94DEF7"></path><path d="M95,393.51s-10.69,1.19-10.29,10.34l-6.47-2.74S82.51,386.49,93,389.52Z" style="fill:#94DEF7"></path><path d="M666.19,217.16s-10.69,1.19-10.29,10.34l-6.47-2.73s4.25-14.62,14.72-11.59Z" style="fill:#94DEF7"></path><path d="M423.94,282s-10.69,1.19-10.3,10.34l-6.46-2.74S411.43,275,421.9,278Z" style="fill:#94DEF7"></path><path d="M409.75,382.85s-9.25-5.49-14.45,2l-3.51-6.08s12.2-9.11,18.73-.38Z" style="fill:#94DEF7"></path><path d="M536.42,52s-6.95,2.12-5.54,8.14l-4.64-1s1-10.23,8.33-9.52Z" style="fill:#94DEF7"></path><path d="M660.51,45.23s-7,2.12-5.55,8.15l-4.63-1s1-10.23,8.33-9.53Z" style="fill:#94DEF7"></path><path d="M372.47,52.1s10.06,3.82,13.88-4.51L390.86,53s-10.45,11.08-18.39,3.61Z" style="fill:#94DEF7"></path><path d="M129.43,253.47s-7,2.12-5.54,8.15l-4.63-1s1-10.23,8.32-9.53Z" style="fill:#94DEF7"></path><path d="M273.1,82.4s-.77-7.23-6.94-7L268,71.06s9.86,2.91,7.78,10Z" style="fill:#94DEF7"></path><path d="M41,75.33s-.77-7.23-7-7L35.94,64s9.85,2.91,7.78,10Z" style="fill:#94DEF7"></path><path d="M321.72,100.13a2.84,2.84,0,1,1-2.84-2.84A2.84,2.84,0,0,1,321.72,100.13Z" style="fill:#455a64"></path><path d="M482.47,252.36a2.84,2.84,0,1,1-2.83-2.83A2.84,2.84,0,0,1,482.47,252.36Z" style="fill:#455a64"></path><circle cx="435.98" cy="118.83" r="2.84" style="fill:#455a64"></circle><path d="M296.23,307.15a2.84,2.84,0,1,1-2.83-2.83A2.84,2.84,0,0,1,296.23,307.15Z" style="fill:#455a64"></path><path d="M527.74,360.54a2.84,2.84,0,1,1-2.84-2.84A2.84,2.84,0,0,1,527.74,360.54Z" style="fill:#455a64"></path><path d="M625.09,432.65a2.84,2.84,0,1,1-2.83-2.84A2.84,2.84,0,0,1,625.09,432.65Z" style="fill:#455a64"></path><path d="M140,445.73a2.84,2.84,0,1,1-2.83-2.83A2.84,2.84,0,0,1,140,445.73Z" style="fill:#455a64"></path><path d="M54.34,347.58a2.84,2.84,0,1,1-2.84-2.84A2.84,2.84,0,0,1,54.34,347.58Z" style="fill:#455a64"></path><path d="M54.34,210.24a2.84,2.84,0,1,1-2.84-2.83A2.84,2.84,0,0,1,54.34,210.24Z" style="fill:#455a64"></path><path d="M133.8,50.91A2.84,2.84,0,1,1,131,48.07,2.83,2.83,0,0,1,133.8,50.91Z" style="fill:#455a64"></path><path d="M704.17,164.52a2.84,2.84,0,1,1-2.83-2.83A2.84,2.84,0,0,1,704.17,164.52Z" style="fill:#455a64"></path><path d="M704.17,274.73a2.84,2.84,0,1,1-2.83-2.83A2.84,2.84,0,0,1,704.17,274.73Z" style="fill:#455a64"></path><path d="M622.26,93.45a2.84,2.84,0,1,1-2.84-2.83A2.84,2.84,0,0,1,622.26,93.45Z" style="fill:#455a64"></path><path d="M259.44,38.93a2.84,2.84,0,1,1-2.83-2.83A2.84,2.84,0,0,1,259.44,38.93Z" style="fill:#455a64"></path></g></svg>