<svg xmlns="http://www.w3.org/2000/svg" viewBox="0 0 500 500"><g id="freepik--Floor--inject-6"><ellipse id="freepik--floor--inject-6" cx="253.68" cy="351.66" rx="230.99" ry="133.36" style="fill:#fafafa"></ellipse></g><g id="freepik--Shadows--inject-6"><path id="freepik--Shadow--inject-6" d="M130.92,294.81c48.93-28.24,128.25-28.24,177.17,0,41.47,23.94,47.77,60.49,18.94,88.28l107.65,61.36c6.56,3.79,6.56,9.93,0,13.72L425,463.76c-6.56,3.79-17,3.49-23.36-.66l-94-65.74c-49,28-127.92,27.89-176.68-.26C82,368.85,82,323.06,130.92,294.81Z" style="fill:#e6e6e6"></path></g><g id="freepik--Glass--inject-6"><g id="freepik--glass--inject-6"><path d="M109.83,313.19v30.43c0,16.52,10.92,33,32.75,45.65,43.66,25.21,114.46,25.21,158.12,0,21.83-12.61,32.75-29.13,32.75-45.65V313.19h0c0-16.52-10.92-33-32.75-45.64-43.66-25.21-114.46-25.21-158.12,0-21.83,12.6-32.75,29.12-32.75,45.64Zm212.8,0c0,13.22-9.71,26.1-27.34,36.28-19.5,11.26-45.65,17.46-73.65,17.46s-54.15-6.2-73.65-17.46c-17.63-10.18-27.34-23.06-27.34-36.28s9.71-26.1,27.34-36.28c19.5-11.26,45.65-17.46,73.65-17.46s54.16,6.2,73.65,17.46C312.93,287.09,322.63,300,322.63,313.19Z" style="fill:#479CE1"></path><path d="M109.83,313.19v30.43c0,16.52,10.92,33,32.75,45.65,43.66,25.21,114.46,25.21,158.12,0,21.83-12.61,32.75-29.13,32.75-45.65V313.19h0c0-16.52-10.92-33-32.75-45.64-43.66-25.21-114.46-25.21-158.12,0-21.83,12.6-32.75,29.12-32.75,45.64Zm212.8,0c0,13.22-9.71,26.1-27.34,36.28-19.5,11.26-45.65,17.46-73.65,17.46s-54.15-6.2-73.65-17.46c-17.63-10.18-27.34-23.06-27.34-36.28s9.71-26.1,27.34-36.28c19.5-11.26,45.65-17.46,73.65-17.46s54.16,6.2,73.65,17.46C312.93,287.09,322.63,300,322.63,313.19Z" style="fill:#fff;opacity:0.2"></path><path d="M333.34,346.46c-1.74,10.47-6.35,18.35-24.92,32.84-26.25,20.5-92.72,28.87-131.3,16.14-36.39-12-48-35.49-48-51.6l.1-9.47c-5.62-6.69-8.58-13.88-8.58-21.18,0-7.48,3.11-14.85,9-21.68l.13-13.34H127.7c-11.91,10.63-17.87,22.82-17.87,35v30.43c0,16.52,10.92,33,32.75,45.65,43.66,25.21,114.46,25.21,158.12,0C321.28,377.39,332.16,362,333.34,346.46Z" style="fill:#479CE1;opacity:0.6000000000000001"></path><path d="M300.71,267.55c-43.67-25.21-114.46-25.21-158.12,0s-43.67,66.08,0,91.29,114.45,25.21,158.12,0S344.37,292.76,300.71,267.55Zm-5.41,81.92c-19.5,11.26-45.66,17.46-73.65,17.46s-54.15-6.2-73.66-17.46c-17.63-10.18-27.34-23.06-27.34-36.28s9.71-26.1,27.34-36.28c19.5-11.26,45.66-17.46,73.66-17.46s54.15,6.2,73.65,17.46c17.63,10.18,27.34,23.07,27.34,36.28S312.93,339.29,295.3,349.47Z" style="fill:#479CE1"></path><path d="M300.71,267.55c-43.67-25.21-114.46-25.21-158.12,0s-43.67,66.08,0,91.29,114.45,25.21,158.12,0S344.37,292.76,300.71,267.55Zm-5.41,81.92c-19.5,11.26-45.66,17.46-73.65,17.46s-54.15-6.2-73.66-17.46c-17.63-10.18-27.34-23.06-27.34-36.28s9.71-26.1,27.34-36.28c19.5-11.26,45.66-17.46,73.66-17.46s54.15,6.2,73.65,17.46c17.63,10.18,27.34,23.07,27.34,36.28S312.93,339.29,295.3,349.47Z" style="fill:#fff;opacity:0.5"></path><path d="M322.65,313.19a29.94,29.94,0,0,1-4.37,15.22c-4.43-7.67-12.24-14.87-23-21.06-19.48-11.27-45.65-17.47-73.65-17.47s-54.15,6.2-73.64,17.47c-10.75,6.19-18.55,13.39-23,21.06a30.2,30.2,0,0,1-4.34-15.22c0-13.21,9.71-26.1,27.35-36.29,19.49-11.24,45.65-17.45,73.64-17.45s54.17,6.21,73.65,17.45C312.94,287.09,322.65,300,322.65,313.19Z" style="fill:#479CE1"></path><path d="M322.65,313.19a29.94,29.94,0,0,1-4.37,15.22c-4.43-7.67-12.24-14.87-23-21.06-19.48-11.27-45.65-17.47-73.65-17.47s-54.15,6.2-73.64,17.47c-10.75,6.19-18.55,13.39-23,21.06a30.2,30.2,0,0,1-4.34-15.22c0-13.21,9.71-26.1,27.35-36.29,19.49-11.24,45.65-17.45,73.64-17.45s54.17,6.21,73.65,17.45C312.94,287.09,322.65,300,322.65,313.19Z" style="fill:#fff;opacity:0.30000000000000004"></path><path d="M148,276.9c-17.64,10.19-27.35,23.08-27.35,36.29A30.2,30.2,0,0,0,125,328.41c4.46-7.67,12.26-14.87,23-21.06a111.81,111.81,0,0,1,14.12-6.81c-4.26,1.65-17.34,5.86-12.57-6.61,5.67-14.81,33.34-30.85,53.67-33.51v0C182.31,262.49,163.14,268.17,148,276.9Z" style="fill:#479CE1;opacity:0.6000000000000001"></path><path d="M295.3,290.69c-19.5-11.26-45.66-17.46-73.65-17.46s-54.16,6.2-73.66,17.46c-14.54,8.4-23.68,18.64-26.44,29.39,2.76,10.75,11.9,21,26.44,29.39,19.51,11.26,45.66,17.46,73.66,17.46s54.15-6.2,73.65-17.46c14.55-8.4,23.69-18.64,26.44-29.39C319,309.33,309.85,299.09,295.3,290.69Z" style="fill:#fff;opacity:0.4"></path><path d="M140.52,327.06c6.25,4.9,13.34,8,20.57,10.46A147,147,0,0,0,183.3,343a219.87,219.87,0,0,0,45.56,2.6c7.61-.34,15.23-1.05,22.8-2.07a187.33,187.33,0,0,0,22.39-4.41,96.94,96.94,0,0,0,21.13-8,48.07,48.07,0,0,0,4.8-2.93,37.85,37.85,0,0,0,4.39-3.5,25.11,25.11,0,0,0,3.69-4.27,18.28,18.28,0,0,0,2.49-5.23,16.88,16.88,0,0,1-1,6,26.23,26.23,0,0,1-2.86,5.48,32.86,32.86,0,0,1-3.92,4.8,48.7,48.7,0,0,1-4.59,4.15,82.11,82.11,0,0,1-21.43,11.76,137,137,0,0,1-23.37,6.51,175.66,175.66,0,0,1-24,2.85,153.12,153.12,0,0,1-48-5.11,107.59,107.59,0,0,1-22.51-9,69.89,69.89,0,0,1-10.1-6.74c-.79-.63-1.53-1.32-2.29-2s-1.48-1.37-2.17-2.1A36.34,36.34,0,0,1,140.52,327.06Z" style="fill:#fff"></path><path d="M297.38,378.21a17.29,17.29,0,0,1,7.78-13.6c2.14-1.25,4.09-1.38,5.51-.58h0l0,0h0l24.92,14.25h0c1.41.81,2.29,2.56,2.3,5a17.32,17.32,0,0,1-7.78,13.6c-2.16,1.26-4.12,1.39-5.54.57h0l-24.91-14.24h0C298.28,382.47,297.39,380.72,297.38,378.21Z" style="fill:#37474f"></path><path d="M299.71,383.28c-1.43-.81-2.32-2.56-2.33-5.07a14.72,14.72,0,0,1,1.33-5.86l35.81,20.52a15,15,0,0,1-4.36,4.08c-2.16,1.26-4.12,1.39-5.54.57l-24.91-14.24Z" style="fill:#263238"></path><path d="M420.44,418.81h0l0,0L341.14,378.4h0l-.1-.06v0c-1.84-1-4.34-.82-7.09.78-5.62,3.28-10.15,11.2-10.12,17.7,0,3.26,1.17,5.54,3,6.6l74.53,48h0a18.9,18.9,0,1,0,19.07-32.61Z" style="fill:#455a64"></path><path d="M326.84,403.44l74.53,48a18.88,18.88,0,0,0,28.88-14.79c-1.43,6.21-11.69,11.49-24.41,4.38S346,404.13,324.59,391.8a17.37,17.37,0,0,0-.78,5C323.82,400.1,325,402.38,326.84,403.44Z" style="fill:#37474f"></path><path d="M326.84,403.44c-1.86-1.06-3-3.34-3-6.6,0-6.5,4.5-14.42,10.12-17.7,2.75-1.6,5.25-1.77,7.09-.78l7,3.56c-1.89-1-4.44-.84-7.27.8-5.76,3.36-10.41,11.49-10.38,18.16,0,3.34,1.15,5.73,3.05,6.81" style="fill:#479CE1"></path><path d="M333.44,407.69c-1.9-1.08-3-3.47-3.05-6.81a17.86,17.86,0,0,1,.81-5.21c-2.39-1.42-4.62-2.72-6.61-3.87a19.94,19.94,0,0,0-.59,2.55q-.09.63-.15,1.26c0,.42-.05.83,0,1.23,0,3.26,1.17,5.54,3,6.6Z" style="opacity:0.2"></path></g></g></svg>