<svg id="visual" viewBox="0 0 900 600" width="900" height="600" xmlns="http://www.w3.org/2000/svg" xmlns:xlink="http://www.w3.org/1999/xlink" version="1.1"><rect width="900" height="600" fill="#f8f9fa"></rect><g><g transform="translate(710 95)"><path d="M79.8 -86.4C101.3 -77 115.4 -49.9 121.3 -20.7C127.2 8.4 125 39.7 111.5 65.7C98 91.7 73.3 112.4 46.2 118.7C19.1 125 -10.2 116.8 -40 107.2C-69.9 97.5 -100.3 86.5 -115.8 64.5C-131.3 42.5 -132 9.5 -126.7 -22.7C-121.4 -54.9 -110.2 -86.4 -88.1 -95.7C-65.9 -105 -33 -92.2 -1.9 -89.9C29.1 -87.6 58.2 -95.8 79.8 -86.4Z" fill="#9de1ff"></path></g><g transform="translate(379 356)"><path d="M55 -59.9C70.1 -52.8 80.5 -34.4 81.9 -16C83.3 2.4 75.7 20.9 66.3 39.3C56.9 57.6 45.6 75.9 31.1 77.9C16.6 80 -1.1 65.8 -17.5 56.3C-34 46.8 -49.2 42 -58.7 31.1C-68.3 20.3 -72.3 3.4 -71.2 -14.3C-70.2 -32.1 -64.2 -50.7 -51.5 -58.2C-38.8 -65.7 -19.4 -62.2 0.3 -62.5C19.9 -62.8 39.8 -67 55 -59.9Z" fill="#9de1ff"></path></g><g transform="translate(738 451)"><path d="M50.1 -67.3C59.5 -51.7 58.2 -30.9 58.7 -12.6C59.2 5.6 61.5 21.2 57.2 37C52.8 52.8 41.9 68.8 26.4 75.8C11 82.7 -8.8 80.7 -24.6 72.7C-40.5 64.8 -52.3 50.9 -58.2 35.9C-64 20.9 -64 4.8 -59.4 -8.7C-54.9 -22.2 -45.9 -33.1 -35.2 -48.4C-24.6 -63.8 -12.3 -83.6 4 -88.4C20.3 -93.1 40.6 -82.8 50.1 -67.3Z" fill="#9de1ff"></path></g><g transform="translate(47 580)"><path d="M74.6 -80.5C96.1 -70.9 112.6 -46.8 112.8 -23.2C113.1 0.4 97.1 23.6 83.3 48.6C69.5 73.6 57.9 100.5 36.2 115.3C14.4 130.1 -17.5 132.9 -36.5 118.2C-55.5 103.5 -61.5 71.3 -69.5 45.8C-77.6 20.3 -87.6 1.5 -85 -15.4C-82.5 -32.3 -67.5 -47.5 -51.3 -58.1C-35 -68.7 -17.5 -74.7 4.5 -80.1C26.5 -85.5 53.1 -90.2 74.6 -80.5Z" fill="#9de1ff"></path></g><g transform="translate(210 62)"><path d="M59.8 -66.6C76.5 -57.3 88.2 -37.5 91.3 -16.6C94.4 4.3 88.9 26.2 79.1 48C69.3 69.9 55.3 91.6 35.3 100.3C15.4 109 -10.5 104.5 -33.1 94.7C-55.6 84.8 -74.8 69.5 -83.1 50.3C-91.4 31.1 -88.8 7.9 -82.4 -12.1C-76 -32.2 -65.8 -49.3 -51.5 -59C-37.1 -68.7 -18.6 -71.1 1.5 -72.9C21.6 -74.7 43.1 -75.9 59.8 -66.6Z" fill="#9de1ff"></path></g></g></svg>