<svg id="visual" viewBox="0 0 900 600" width="900" height="600" xmlns="http://www.w3.org/2000/svg" xmlns:xlink="http://www.w3.org/1999/xlink" version="1.1"><rect width="900" height="600" fill="#f8f9fa"></rect><g><g transform="translate(528 290)"><path d="M55 -71.6C71.6 -51.7 85.5 -34.6 89.8 -15.2C94 4.3 88.5 26.1 76.5 41.4C64.4 56.8 45.7 65.6 25.7 74.6C5.7 83.6 -15.8 92.9 -40.4 92.1C-65.1 91.4 -93 80.6 -109.5 59.5C-126.1 38.5 -131.3 7.2 -126.8 -23.1C-122.3 -53.3 -108.1 -82.6 -85.3 -101.4C-62.6 -120.2 -31.3 -128.7 -6 -121.5C19.2 -114.3 38.5 -91.5 55 -71.6Z" fill="#9de1ff"></path></g><g transform="translate(104 135)"><path d="M81.4 -90.8C105.5 -76.8 125.1 -51.1 129.6 -23.2C134.1 4.7 123.5 35 105.1 54.7C86.6 74.5 60.2 83.7 33.4 94.9C6.5 106.1 -20.8 119.3 -40.8 112C-60.8 104.8 -73.3 77.2 -82.6 52.1C-91.9 27 -97.8 4.3 -91.6 -13.6C-85.5 -31.6 -67.2 -44.9 -49.9 -60.1C-32.6 -75.3 -16.3 -92.4 6.2 -99.7C28.6 -107.1 57.3 -104.7 81.4 -90.8Z" fill="#9de1ff"></path></g><g transform="translate(150 455)"><path d="M57 -66C69.2 -57.7 71.2 -35.3 75.2 -13.2C79.3 9 85.4 30.9 79 49.2C72.7 67.5 54 82.2 34 86.6C13.9 91 -7.4 85.1 -23.5 74.8C-39.5 64.5 -50.3 49.9 -62.4 33.7C-74.5 17.5 -88.1 -0.2 -87.2 -17.1C-86.3 -34 -70.9 -50 -53.9 -57.5C-37 -64.9 -18.5 -63.8 2 -66.1C22.4 -68.5 44.8 -74.3 57 -66Z" fill="#9de1ff"></path></g><g transform="translate(806 526)"><path d="M62.9 -78.9C75.3 -64.5 74.9 -38.8 78.1 -14.7C81.3 9.5 88.1 32.1 82 51.8C76 71.5 57.1 88.3 35.7 94.7C14.2 101.1 -9.9 97.1 -27 85.8C-44.1 74.5 -54.4 55.9 -61.6 38.1C-68.8 20.3 -73 3.4 -71.6 -14C-70.2 -31.4 -63.1 -49.1 -50.3 -63.3C-37.4 -77.6 -18.7 -88.3 3.3 -92.2C25.2 -96.1 50.5 -93.2 62.9 -78.9Z" fill="#9de1ff"></path></g><g transform="translate(846 162)"><path d="M55.6 -61.6C73.1 -51.5 89.2 -35 97.2 -13.6C105.1 7.8 104.9 34.1 92.2 50.6C79.6 67.2 54.5 73.9 30.8 81C7 88.2 -15.3 95.7 -36 91.4C-56.7 87.1 -75.8 70.9 -88 50.5C-100.2 30 -105.6 5.2 -102.8 -19.5C-100.1 -44.2 -89.3 -68.9 -70.8 -78.9C-52.3 -88.8 -26.2 -84.1 -3.6 -79.8C19 -75.5 38 -71.7 55.6 -61.6Z" fill="#9de1ff"></path></g></g></svg>