<svg xmlns="http://www.w3.org/2000/svg" viewBox="0 0 500 500"><g id="freepik--background-complete--inject-26"><polygon points="464.68 244 464.68 357.32 215.68 357.32 215.68 266.83 237.28 266.83 237.28 293.07 242.84 293.07 242.84 247.22 270.31 247.22 270.31 290.74 273.94 290.74 273.94 235.54 297.81 235.54 297.81 250.69 310.06 250.69 310.06 269.54 313.76 269.54 313.76 257.69 335.47 257.69 335.47 293.06 341.81 293.06 341.81 264.31 361.66 264.31 361.66 242.46 375.16 242.46 375.16 230.03 390.77 230.03 390.77 285.19 396.02 285.19 396.02 262.17 421.74 262.17 421.74 295.13 425.3 295.13 425.3 268.23 451.38 268.23 451.38 244 464.68 244" style="fill:#ebebeb"></polygon><rect x="218.32" y="270.13" width="3.65" height="5.02" style="fill:#fff"></rect><rect x="224.66" y="270.13" width="3.65" height="5.02" style="fill:#fff"></rect><rect x="230.99" y="270.13" width="3.65" height="5.02" style="fill:#fff"></rect><rect x="218.32" y="277.68" width="3.65" height="5.02" style="fill:#fff"></rect><rect x="224.66" y="277.68" width="3.65" height="5.02" style="fill:#fff"></rect><rect x="230.99" y="277.68" width="3.65" height="5.02" style="fill:#fff"></rect><rect x="218.32" y="285.23" width="3.65" height="5.02" style="fill:#fff"></rect><rect x="224.66" y="285.23" width="3.65" height="5.02" style="fill:#fff"></rect><rect x="230.99" y="285.23" width="3.65" height="5.02" style="fill:#fff"></rect><rect x="218.32" y="292.77" width="3.65" height="5.02" style="fill:#fff"></rect><rect x="224.66" y="292.77" width="3.65" height="5.02" style="fill:#fff"></rect><rect x="230.99" y="292.77" width="3.65" height="5.02" style="fill:#fff"></rect><rect x="344.86" y="267.89" width="3.65" height="4.18" style="fill:#fff"></rect><rect x="351.2" y="267.89" width="3.65" height="4.18" style="fill:#fff"></rect><rect x="357.53" y="267.89" width="3.65" height="4.18" style="fill:#fff"></rect><rect x="344.86" y="274.18" width="3.65" height="4.18" style="fill:#fff"></rect><rect x="351.2" y="274.18" width="3.65" height="4.18" style="fill:#fff"></rect><rect x="357.53" y="274.18" width="3.65" height="4.18" style="fill:#fff"></rect><rect x="344.86" y="280.48" width="3.65" height="4.18" style="fill:#fff"></rect><rect x="351.2" y="280.48" width="3.65" height="4.18" style="fill:#fff"></rect><rect x="357.53" y="280.48" width="3.65" height="4.18" style="fill:#fff"></rect><rect x="344.86" y="286.77" width="3.65" height="4.18" style="fill:#fff"></rect><rect x="351.2" y="286.77" width="3.65" height="4.18" style="fill:#fff"></rect><rect x="357.53" y="286.77" width="3.65" height="4.18" style="fill:#fff"></rect><rect x="344.86" y="293.23" width="3.65" height="4.18" style="fill:#fff"></rect><rect x="351.2" y="293.23" width="3.65" height="4.18" style="fill:#fff"></rect><rect x="357.53" y="293.23" width="3.65" height="4.18" style="fill:#fff"></rect><rect x="344.86" y="299.68" width="3.65" height="4.18" style="fill:#fff"></rect><rect x="351.2" y="299.68" width="3.65" height="4.18" style="fill:#fff"></rect><rect x="357.53" y="299.68" width="3.65" height="4.18" style="fill:#fff"></rect><rect x="344.86" y="306.13" width="3.65" height="4.18" style="fill:#fff"></rect><rect x="351.2" y="306.13" width="3.65" height="4.18" style="fill:#fff"></rect><rect x="357.53" y="306.13" width="3.65" height="4.18" style="fill:#fff"></rect><rect x="344.86" y="312.58" width="3.65" height="4.18" style="fill:#fff"></rect><rect x="351.2" y="312.58" width="3.65" height="4.18" style="fill:#fff"></rect><rect x="357.53" y="312.58" width="3.65" height="4.18" style="fill:#fff"></rect><rect x="245.96" y="250.43" width="21.04" height="3.14" style="fill:#fff"></rect><rect x="245.96" y="256.52" width="21.04" height="3.14" style="fill:#fff"></rect><rect x="245.96" y="262.61" width="21.04" height="3.14" style="fill:#fff"></rect><rect x="245.96" y="268.69" width="21.04" height="3.14" style="fill:#fff"></rect><rect x="245.96" y="274.78" width="21.04" height="3.14" style="fill:#fff"></rect><rect x="245.96" y="280.87" width="21.04" height="3.14" style="fill:#fff"></rect><rect x="245.96" y="286.95" width="21.04" height="3.14" style="fill:#fff"></rect><rect x="245.96" y="293.04" width="21.04" height="3.14" style="fill:#fff"></rect><rect x="399.13" y="265.1" width="19.34" height="3.14" style="fill:#fff"></rect><rect x="399.13" y="271.18" width="19.34" height="3.14" style="fill:#fff"></rect><rect x="399.13" y="277.27" width="19.34" height="3.14" style="fill:#fff"></rect><rect x="399.13" y="283.36" width="19.34" height="3.14" style="fill:#fff"></rect><rect x="399.13" y="289.44" width="19.34" height="3.14" style="fill:#fff"></rect><rect x="399.13" y="295.53" width="19.34" height="3.14" style="fill:#fff"></rect><rect x="399.13" y="301.62" width="19.34" height="3.14" style="fill:#fff"></rect><rect x="399.13" y="307.7" width="19.34" height="3.14" style="fill:#fff"></rect><rect x="399.13" y="313.48" width="19.34" height="3.14" style="fill:#fff"></rect><rect x="399.13" y="319.27" width="19.34" height="3.14" style="fill:#fff"></rect><rect x="399.13" y="325.05" width="19.34" height="3.14" style="fill:#fff"></rect><rect x="399.13" y="330.83" width="19.34" height="3.14" style="fill:#fff"></rect><rect x="399.13" y="336.62" width="19.34" height="3.14" style="fill:#fff"></rect><rect x="429.32" y="272.45" width="20.43" height="3.14" style="fill:#fff"></rect><rect x="429.32" y="278.53" width="20.43" height="3.14" style="fill:#fff"></rect><rect x="429.32" y="284.62" width="20.43" height="3.14" style="fill:#fff"></rect><rect x="429.32" y="290.71" width="20.43" height="3.14" style="fill:#fff"></rect><rect x="429.32" y="296.79" width="20.43" height="3.14" style="fill:#fff"></rect><rect x="429.32" y="302.88" width="20.43" height="3.14" style="fill:#fff"></rect><rect x="429.32" y="308.97" width="20.43" height="3.14" style="fill:#fff"></rect><rect x="429.32" y="315.05" width="20.43" height="3.14" style="fill:#fff"></rect><rect x="429.32" y="320.5" width="20.43" height="3.14" style="fill:#fff"></rect><rect x="429.32" y="325.95" width="20.43" height="3.14" style="fill:#fff"></rect><rect x="429.32" y="331.4" width="20.43" height="3.14" style="fill:#fff"></rect><rect x="320.11" y="260.53" width="6.5" height="3.03" style="fill:#fff"></rect><rect x="320.11" y="266.4" width="6.5" height="3.03" style="fill:#fff"></rect><rect x="320.11" y="272.28" width="6.5" height="3.03" style="fill:#fff"></rect><rect x="320.11" y="278.16" width="6.5" height="3.03" style="fill:#fff"></rect><rect x="320.11" y="284.04" width="6.5" height="3.03" style="fill:#fff"></rect><rect x="320.11" y="289.92" width="6.5" height="3.03" style="fill:#fff"></rect><rect x="320.11" y="295.79" width="6.5" height="3.03" style="fill:#fff"></rect><rect x="320.11" y="301.67" width="6.5" height="3.03" style="fill:#fff"></rect><rect x="328.95" y="260.53" width="6.5" height="3.03" style="fill:#fff"></rect><rect x="328.95" y="266.4" width="6.5" height="3.03" style="fill:#fff"></rect><rect x="328.95" y="272.28" width="6.5" height="3.03" style="fill:#fff"></rect><rect x="328.95" y="278.16" width="6.5" height="3.03" style="fill:#fff"></rect><rect x="328.95" y="284.04" width="6.5" height="3.03" style="fill:#fff"></rect><rect x="328.95" y="289.92" width="6.5" height="3.03" style="fill:#fff"></rect><rect x="328.95" y="295.79" width="6.5" height="3.03" style="fill:#fff"></rect><rect x="328.95" y="301.67" width="6.5" height="3.03" style="fill:#fff"></rect><rect x="277.56" y="238.72" width="6.77" height="4.78" style="fill:#fff"></rect><rect x="287.66" y="238.72" width="6.77" height="4.78" style="fill:#fff"></rect><rect x="277.56" y="245.74" width="6.77" height="4.78" style="fill:#fff"></rect><rect x="287.66" y="245.74" width="6.77" height="4.78" style="fill:#fff"></rect><rect x="277.56" y="252.76" width="6.77" height="4.78" style="fill:#fff"></rect><rect x="287.66" y="252.76" width="6.77" height="4.78" style="fill:#fff"></rect><rect x="277.56" y="259.77" width="6.77" height="4.78" style="fill:#fff"></rect><rect x="287.66" y="259.77" width="6.77" height="4.78" style="fill:#fff"></rect><rect x="277.56" y="266.79" width="6.77" height="4.78" style="fill:#fff"></rect><rect x="287.66" y="266.79" width="6.77" height="4.78" style="fill:#fff"></rect><rect x="277.56" y="273.81" width="6.77" height="4.78" style="fill:#fff"></rect><rect x="287.66" y="273.81" width="6.77" height="4.78" style="fill:#fff"></rect><rect x="277.56" y="280.83" width="6.77" height="4.78" style="fill:#fff"></rect><rect x="287.66" y="280.83" width="6.77" height="4.78" style="fill:#fff"></rect><rect x="277.56" y="287.84" width="6.77" height="4.78" style="fill:#fff"></rect><rect x="287.66" y="287.84" width="6.77" height="4.78" style="fill:#fff"></rect><rect x="300.16" y="252.76" width="6.77" height="4.78" style="fill:#fff"></rect><rect x="300.16" y="259.77" width="6.77" height="4.78" style="fill:#fff"></rect><rect x="300.16" y="266.79" width="6.77" height="4.78" style="fill:#fff"></rect><rect x="300.16" y="273.81" width="6.77" height="4.78" style="fill:#fff"></rect><rect x="300.16" y="280.83" width="6.77" height="4.78" style="fill:#fff"></rect><rect x="300.16" y="287.84" width="6.77" height="4.78" style="fill:#fff"></rect><rect x="277.56" y="294.78" width="6.77" height="4.78" style="fill:#fff"></rect><rect x="287.66" y="294.78" width="6.77" height="4.78" style="fill:#fff"></rect><rect x="300.16" y="294.78" width="6.77" height="4.78" style="fill:#fff"></rect><rect x="277.56" y="301.71" width="6.77" height="4.78" style="fill:#fff"></rect><rect x="287.66" y="301.71" width="6.77" height="4.78" style="fill:#fff"></rect><rect x="300.16" y="301.71" width="6.77" height="4.78" style="fill:#fff"></rect><rect x="277.56" y="308.65" width="6.77" height="4.78" style="fill:#fff"></rect><rect x="287.66" y="308.65" width="6.77" height="4.78" style="fill:#fff"></rect><rect x="300.16" y="308.65" width="6.77" height="4.78" style="fill:#fff"></rect><rect x="277.56" y="315.58" width="6.77" height="4.78" style="fill:#fff"></rect><rect x="287.66" y="315.58" width="6.77" height="4.78" style="fill:#fff"></rect><rect x="300.16" y="315.58" width="6.77" height="4.78" style="fill:#fff"></rect><rect x="277.56" y="322.52" width="6.77" height="4.78" style="fill:#fff"></rect><rect x="287.66" y="322.52" width="6.77" height="4.78" style="fill:#fff"></rect><rect x="300.16" y="322.52" width="6.77" height="4.78" style="fill:#fff"></rect><rect x="364.42" y="245.54" width="3.65" height="4.18" style="fill:#fff"></rect><rect x="370.76" y="245.54" width="3.65" height="4.18" style="fill:#fff"></rect><rect x="364.42" y="251.84" width="3.65" height="4.18" style="fill:#fff"></rect><rect x="370.76" y="251.84" width="3.65" height="4.18" style="fill:#fff"></rect><rect x="364.42" y="258.13" width="3.65" height="4.18" style="fill:#fff"></rect><rect x="370.76" y="258.13" width="3.65" height="4.18" style="fill:#fff"></rect><rect x="364.42" y="264.43" width="3.65" height="4.18" style="fill:#fff"></rect><rect x="370.76" y="264.43" width="3.65" height="4.18" style="fill:#fff"></rect><rect x="364.42" y="270.88" width="3.65" height="4.18" style="fill:#fff"></rect><rect x="370.76" y="270.88" width="3.65" height="4.18" style="fill:#fff"></rect><rect x="364.42" y="277.33" width="3.65" height="4.18" style="fill:#fff"></rect><rect x="370.76" y="277.33" width="3.65" height="4.18" style="fill:#fff"></rect><rect x="364.42" y="283.78" width="3.65" height="4.18" style="fill:#fff"></rect><rect x="370.76" y="283.78" width="3.65" height="4.18" style="fill:#fff"></rect><rect x="364.42" y="290.23" width="3.65" height="4.18" style="fill:#fff"></rect><rect x="370.76" y="290.23" width="3.65" height="4.18" style="fill:#fff"></rect><rect x="364.42" y="296.76" width="3.65" height="4.18" style="fill:#fff"></rect><rect x="370.76" y="296.76" width="3.65" height="4.18" style="fill:#fff"></rect><rect x="364.42" y="303.28" width="3.65" height="4.18" style="fill:#fff"></rect><rect x="370.76" y="303.28" width="3.65" height="4.18" style="fill:#fff"></rect><rect x="364.42" y="309.8" width="3.65" height="4.18" style="fill:#fff"></rect><rect x="370.76" y="309.8" width="3.65" height="4.18" style="fill:#fff"></rect><rect x="364.42" y="316.32" width="3.65" height="4.18" style="fill:#fff"></rect><rect x="370.76" y="316.32" width="3.65" height="4.18" style="fill:#fff"></rect><rect x="453.67" y="246.22" width="3.65" height="4.93" style="fill:#fff"></rect><rect x="460" y="246.22" width="3.65" height="4.93" style="fill:#fff"></rect><rect x="453.67" y="253.64" width="3.65" height="4.93" style="fill:#fff"></rect><rect x="460" y="253.64" width="3.65" height="4.93" style="fill:#fff"></rect><rect x="453.67" y="261.05" width="3.65" height="4.93" style="fill:#fff"></rect><rect x="460" y="261.05" width="3.65" height="4.93" style="fill:#fff"></rect><rect x="453.67" y="268.47" width="3.65" height="4.93" style="fill:#fff"></rect><rect x="460" y="268.47" width="3.65" height="4.93" style="fill:#fff"></rect><rect x="453.67" y="276.07" width="3.65" height="4.93" style="fill:#fff"></rect><rect x="460" y="276.07" width="3.65" height="4.93" style="fill:#fff"></rect><rect x="453.67" y="283.67" width="3.65" height="4.93" style="fill:#fff"></rect><rect x="460" y="283.67" width="3.65" height="4.93" style="fill:#fff"></rect><rect x="453.67" y="291.27" width="3.65" height="4.93" style="fill:#fff"></rect><rect x="460" y="291.27" width="3.65" height="4.93" style="fill:#fff"></rect><rect x="453.67" y="298.88" width="3.65" height="4.93" style="fill:#fff"></rect><rect x="460" y="298.88" width="3.65" height="4.93" style="fill:#fff"></rect><rect x="453.67" y="306.56" width="3.65" height="4.93" style="fill:#fff"></rect><rect x="460" y="306.56" width="3.65" height="4.93" style="fill:#fff"></rect><rect x="453.67" y="314.24" width="3.65" height="4.93" style="fill:#fff"></rect><rect x="460" y="314.24" width="3.65" height="4.93" style="fill:#fff"></rect><rect x="453.67" y="321.92" width="3.65" height="4.93" style="fill:#fff"></rect><rect x="460" y="321.92" width="3.65" height="4.93" style="fill:#fff"></rect><rect x="453.67" y="329.6" width="3.65" height="4.93" style="fill:#fff"></rect><rect x="460" y="329.6" width="3.65" height="4.93" style="fill:#fff"></rect><rect x="377.97" y="245.54" width="3.65" height="4.18" style="fill:#fff"></rect><rect x="384.3" y="245.54" width="3.65" height="4.18" style="fill:#fff"></rect><rect x="377.97" y="239.08" width="3.65" height="4.18" style="fill:#fff"></rect><rect x="384.3" y="239.08" width="3.65" height="4.18" style="fill:#fff"></rect><rect x="377.97" y="232.63" width="3.65" height="4.18" style="fill:#fff"></rect><rect x="384.3" y="232.63" width="3.65" height="4.18" style="fill:#fff"></rect><rect x="377.97" y="251.84" width="3.65" height="4.18" style="fill:#fff"></rect><rect x="384.3" y="251.84" width="3.65" height="4.18" style="fill:#fff"></rect><rect x="377.97" y="258.13" width="3.65" height="4.18" style="fill:#fff"></rect><rect x="384.3" y="258.13" width="3.65" height="4.18" style="fill:#fff"></rect><rect x="377.97" y="264.43" width="3.65" height="4.18" style="fill:#fff"></rect><rect x="384.3" y="264.43" width="3.65" height="4.18" style="fill:#fff"></rect><rect x="377.97" y="270.88" width="3.65" height="4.18" style="fill:#fff"></rect><rect x="384.3" y="270.88" width="3.65" height="4.18" style="fill:#fff"></rect><rect x="377.97" y="277.33" width="3.65" height="4.18" style="fill:#fff"></rect><rect x="384.3" y="277.33" width="3.65" height="4.18" style="fill:#fff"></rect><rect x="377.97" y="283.78" width="3.65" height="4.18" style="fill:#fff"></rect><rect x="384.3" y="283.78" width="3.65" height="4.18" style="fill:#fff"></rect><rect x="377.97" y="290.23" width="3.65" height="4.18" style="fill:#fff"></rect><rect x="384.3" y="290.23" width="3.65" height="4.18" style="fill:#fff"></rect><rect x="377.97" y="296.76" width="3.65" height="4.18" style="fill:#fff"></rect><rect x="384.3" y="296.76" width="3.65" height="4.18" style="fill:#fff"></rect><rect x="377.97" y="303.28" width="3.65" height="4.18" style="fill:#fff"></rect><rect x="384.3" y="303.28" width="3.65" height="4.18" style="fill:#fff"></rect><rect x="377.97" y="309.8" width="3.65" height="4.18" style="fill:#fff"></rect><rect x="384.3" y="309.8" width="3.65" height="4.18" style="fill:#fff"></rect><rect x="377.97" y="316.32" width="3.65" height="4.18" style="fill:#fff"></rect><rect x="384.3" y="316.32" width="3.65" height="4.18" style="fill:#fff"></rect><polygon points="215.68 357.32 35.32 357.32 35.32 255.83 56.92 255.83 56.92 282.07 62.48 282.07 62.48 267.22 89.95 267.22 89.95 290.74 93.59 290.74 93.59 235.54 117.46 235.54 117.46 250.69 129.7 250.69 129.7 269.54 133.41 269.54 133.41 257.69 155.11 257.69 155.11 293.06 161.46 293.06 161.46 264.31 181.31 264.31 181.31 242.46 194.8 242.46 210.41 242.53 210.41 285.19 215.67 285.19 215.68 357.32" style="fill:#ebebeb"></polygon><rect x="37.97" y="259.13" width="3.65" height="5.02" style="fill:#fff"></rect><rect x="44.3" y="259.13" width="3.65" height="5.02" style="fill:#fff"></rect><rect x="50.64" y="259.13" width="3.65" height="5.02" style="fill:#fff"></rect><rect x="37.97" y="266.68" width="3.65" height="5.02" style="fill:#fff"></rect><rect x="44.3" y="266.68" width="3.65" height="5.02" style="fill:#fff"></rect><rect x="50.64" y="266.68" width="3.65" height="5.02" style="fill:#fff"></rect><rect x="37.97" y="274.23" width="3.65" height="5.02" style="fill:#fff"></rect><rect x="44.3" y="274.23" width="3.65" height="5.02" style="fill:#fff"></rect><rect x="50.64" y="274.23" width="3.65" height="5.02" style="fill:#fff"></rect><rect x="37.97" y="281.77" width="3.65" height="5.02" style="fill:#fff"></rect><rect x="44.3" y="281.77" width="3.65" height="5.02" style="fill:#fff"></rect><rect x="50.64" y="281.77" width="3.65" height="5.02" style="fill:#fff"></rect><rect x="164.51" y="267.89" width="3.65" height="4.18" style="fill:#fff"></rect><rect x="170.84" y="267.89" width="3.65" height="4.18" style="fill:#fff"></rect><rect x="177.18" y="267.89" width="3.65" height="4.18" style="fill:#fff"></rect><rect x="164.51" y="274.18" width="3.65" height="4.18" style="fill:#fff"></rect><rect x="170.84" y="274.18" width="3.65" height="4.18" style="fill:#fff"></rect><rect x="177.18" y="274.18" width="3.65" height="4.18" style="fill:#fff"></rect><rect x="164.51" y="280.48" width="3.65" height="4.18" style="fill:#fff"></rect><rect x="170.84" y="280.48" width="3.65" height="4.18" style="fill:#fff"></rect><rect x="177.18" y="280.48" width="3.65" height="4.18" style="fill:#fff"></rect><rect x="164.51" y="286.77" width="3.65" height="4.18" style="fill:#fff"></rect><rect x="170.84" y="286.77" width="3.65" height="4.18" style="fill:#fff"></rect><rect x="177.18" y="286.77" width="3.65" height="4.18" style="fill:#fff"></rect><rect x="164.51" y="293.23" width="3.65" height="4.18" style="fill:#fff"></rect><rect x="170.84" y="293.23" width="3.65" height="4.18" style="fill:#fff"></rect><rect x="177.18" y="293.23" width="3.65" height="4.18" style="fill:#fff"></rect><rect x="164.51" y="299.68" width="3.65" height="4.18" style="fill:#fff"></rect><rect x="170.84" y="299.68" width="3.65" height="4.18" style="fill:#fff"></rect><rect x="177.18" y="299.68" width="3.65" height="4.18" style="fill:#fff"></rect><rect x="164.51" y="306.13" width="3.65" height="4.18" style="fill:#fff"></rect><rect x="170.84" y="306.13" width="3.65" height="4.18" style="fill:#fff"></rect><rect x="177.18" y="306.13" width="3.65" height="4.18" style="fill:#fff"></rect><rect x="164.51" y="312.58" width="3.65" height="4.18" style="fill:#fff"></rect><rect x="170.84" y="312.58" width="3.65" height="4.18" style="fill:#fff"></rect><rect x="177.18" y="312.58" width="3.65" height="4.18" style="fill:#fff"></rect><rect x="65.6" y="270.43" width="21.04" height="3.14" style="fill:#fff"></rect><rect x="65.6" y="276.52" width="21.04" height="3.14" style="fill:#fff"></rect><rect x="65.6" y="282.61" width="21.04" height="3.14" style="fill:#fff"></rect><rect x="65.6" y="288.69" width="21.04" height="3.14" style="fill:#fff"></rect><rect x="65.6" y="294.78" width="21.04" height="3.14" style="fill:#fff"></rect><rect x="65.6" y="300.87" width="21.04" height="3.14" style="fill:#fff"></rect><rect x="65.6" y="306.95" width="21.04" height="3.14" style="fill:#fff"></rect><rect x="65.6" y="313.04" width="21.04" height="3.14" style="fill:#fff"></rect><rect x="139.76" y="260.53" width="6.5" height="3.03" style="fill:#fff"></rect><rect x="139.76" y="266.4" width="6.5" height="3.03" style="fill:#fff"></rect><rect x="139.76" y="272.28" width="6.5" height="3.03" style="fill:#fff"></rect><rect x="139.76" y="278.16" width="6.5" height="3.03" style="fill:#fff"></rect><rect x="139.76" y="284.04" width="6.5" height="3.03" style="fill:#fff"></rect><rect x="139.76" y="289.92" width="6.5" height="3.03" style="fill:#fff"></rect><rect x="139.76" y="295.79" width="6.5" height="3.03" style="fill:#fff"></rect><rect x="139.76" y="301.67" width="6.5" height="3.03" style="fill:#fff"></rect><rect x="148.6" y="260.53" width="6.5" height="3.03" style="fill:#fff"></rect><rect x="148.6" y="266.4" width="6.5" height="3.03" style="fill:#fff"></rect><rect x="148.6" y="272.28" width="6.5" height="3.03" style="fill:#fff"></rect><rect x="148.6" y="278.16" width="6.5" height="3.03" style="fill:#fff"></rect><rect x="148.6" y="284.04" width="6.5" height="3.03" style="fill:#fff"></rect><rect x="148.6" y="289.92" width="6.5" height="3.03" style="fill:#fff"></rect><rect x="148.6" y="295.79" width="6.5" height="3.03" style="fill:#fff"></rect><rect x="148.6" y="301.67" width="6.5" height="3.03" style="fill:#fff"></rect><rect x="97.21" y="238.72" width="6.77" height="4.78" style="fill:#fff"></rect><rect x="107.3" y="238.72" width="6.77" height="4.78" style="fill:#fff"></rect><rect x="97.21" y="245.74" width="6.77" height="4.78" style="fill:#fff"></rect><rect x="107.3" y="245.74" width="6.77" height="4.78" style="fill:#fff"></rect><rect x="97.21" y="252.76" width="6.77" height="4.78" style="fill:#fff"></rect><rect x="107.3" y="252.76" width="6.77" height="4.78" style="fill:#fff"></rect><rect x="97.21" y="259.77" width="6.77" height="4.78" style="fill:#fff"></rect><rect x="107.3" y="259.77" width="6.77" height="4.78" style="fill:#fff"></rect><rect x="97.21" y="266.79" width="6.77" height="4.78" style="fill:#fff"></rect><rect x="107.3" y="266.79" width="6.77" height="4.78" style="fill:#fff"></rect><rect x="97.21" y="273.81" width="6.77" height="4.78" style="fill:#fff"></rect><rect x="107.3" y="273.81" width="6.77" height="4.78" style="fill:#fff"></rect><rect x="97.21" y="280.83" width="6.77" height="4.78" style="fill:#fff"></rect><rect x="107.3" y="280.83" width="6.77" height="4.78" style="fill:#fff"></rect><rect x="97.21" y="287.84" width="6.77" height="4.78" style="fill:#fff"></rect><rect x="107.3" y="287.84" width="6.77" height="4.78" style="fill:#fff"></rect><rect x="119.81" y="252.76" width="6.77" height="4.78" style="fill:#fff"></rect><rect x="119.81" y="259.77" width="6.77" height="4.78" style="fill:#fff"></rect><rect x="119.81" y="266.79" width="6.77" height="4.78" style="fill:#fff"></rect><rect x="119.81" y="273.81" width="6.77" height="4.78" style="fill:#fff"></rect><rect x="119.81" y="280.83" width="6.77" height="4.78" style="fill:#fff"></rect><rect x="119.81" y="287.84" width="6.77" height="4.78" style="fill:#fff"></rect><rect x="97.21" y="294.78" width="6.77" height="4.78" style="fill:#fff"></rect><rect x="107.3" y="294.78" width="6.77" height="4.78" style="fill:#fff"></rect><rect x="119.81" y="294.78" width="6.77" height="4.78" style="fill:#fff"></rect><rect x="97.21" y="301.71" width="6.77" height="4.78" style="fill:#fff"></rect><rect x="107.3" y="301.71" width="6.77" height="4.78" style="fill:#fff"></rect><rect x="119.81" y="301.71" width="6.77" height="4.78" style="fill:#fff"></rect><rect x="97.21" y="308.65" width="6.77" height="4.78" style="fill:#fff"></rect><rect x="107.3" y="308.65" width="6.77" height="4.78" style="fill:#fff"></rect><rect x="119.81" y="308.65" width="6.77" height="4.78" style="fill:#fff"></rect><rect x="97.21" y="315.58" width="6.77" height="4.78" style="fill:#fff"></rect><rect x="107.3" y="315.58" width="6.77" height="4.78" style="fill:#fff"></rect><rect x="119.81" y="315.58" width="6.77" height="4.78" style="fill:#fff"></rect><rect x="97.21" y="322.52" width="6.77" height="4.78" style="fill:#fff"></rect><rect x="107.3" y="322.52" width="6.77" height="4.78" style="fill:#fff"></rect><rect x="119.81" y="322.52" width="6.77" height="4.78" style="fill:#fff"></rect><rect x="184.06" y="245.54" width="3.65" height="4.18" style="fill:#fff"></rect><rect x="190.4" y="245.54" width="3.65" height="4.18" style="fill:#fff"></rect><rect x="184.06" y="251.84" width="3.65" height="4.18" style="fill:#fff"></rect><rect x="190.4" y="251.84" width="3.65" height="4.18" style="fill:#fff"></rect><rect x="184.06" y="258.13" width="3.65" height="4.18" style="fill:#fff"></rect><rect x="190.4" y="258.13" width="3.65" height="4.18" style="fill:#fff"></rect><rect x="184.06" y="264.43" width="3.65" height="4.18" style="fill:#fff"></rect><rect x="190.4" y="264.43" width="3.65" height="4.18" style="fill:#fff"></rect><rect x="184.06" y="270.88" width="3.65" height="4.18" style="fill:#fff"></rect><rect x="190.4" y="270.88" width="3.65" height="4.18" style="fill:#fff"></rect><rect x="184.06" y="277.33" width="3.65" height="4.18" style="fill:#fff"></rect><rect x="190.4" y="277.33" width="3.65" height="4.18" style="fill:#fff"></rect><rect x="184.06" y="283.78" width="3.65" height="4.18" style="fill:#fff"></rect><rect x="190.4" y="283.78" width="3.65" height="4.18" style="fill:#fff"></rect><rect x="184.06" y="290.23" width="3.65" height="4.18" style="fill:#fff"></rect><rect x="190.4" y="290.23" width="3.65" height="4.18" style="fill:#fff"></rect><rect x="184.06" y="296.76" width="3.65" height="4.18" style="fill:#fff"></rect><rect x="190.4" y="296.76" width="3.65" height="4.18" style="fill:#fff"></rect><rect x="184.06" y="303.28" width="3.65" height="4.18" style="fill:#fff"></rect><rect x="190.4" y="303.28" width="3.65" height="4.18" style="fill:#fff"></rect><rect x="184.06" y="309.8" width="3.65" height="4.18" style="fill:#fff"></rect><rect x="190.4" y="309.8" width="3.65" height="4.18" style="fill:#fff"></rect><rect x="184.06" y="316.32" width="3.65" height="4.18" style="fill:#fff"></rect><rect x="190.4" y="316.32" width="3.65" height="4.18" style="fill:#fff"></rect><rect x="197.61" y="245.54" width="3.65" height="4.18" style="fill:#fff"></rect><rect x="203.95" y="245.54" width="3.65" height="4.18" style="fill:#fff"></rect><rect x="197.61" y="251.84" width="3.65" height="4.18" style="fill:#fff"></rect><rect x="203.95" y="251.84" width="3.65" height="4.18" style="fill:#fff"></rect><rect x="197.61" y="258.13" width="3.65" height="4.18" style="fill:#fff"></rect><rect x="203.95" y="258.13" width="3.65" height="4.18" style="fill:#fff"></rect><rect x="197.61" y="264.43" width="3.65" height="4.18" style="fill:#fff"></rect><rect x="203.95" y="264.43" width="3.65" height="4.18" style="fill:#fff"></rect><rect x="197.61" y="270.88" width="3.65" height="4.18" style="fill:#fff"></rect><rect x="203.95" y="270.88" width="3.65" height="4.18" style="fill:#fff"></rect><rect x="197.61" y="277.33" width="3.65" height="4.18" style="fill:#fff"></rect><rect x="203.95" y="277.33" width="3.65" height="4.18" style="fill:#fff"></rect><rect x="197.61" y="283.78" width="3.65" height="4.18" style="fill:#fff"></rect><rect x="203.95" y="283.78" width="3.65" height="4.18" style="fill:#fff"></rect><rect x="197.61" y="290.23" width="3.65" height="4.18" style="fill:#fff"></rect><rect x="203.95" y="290.23" width="3.65" height="4.18" style="fill:#fff"></rect><rect x="197.61" y="296.76" width="3.65" height="4.18" style="fill:#fff"></rect><rect x="203.95" y="296.76" width="3.65" height="4.18" style="fill:#fff"></rect><rect x="197.61" y="303.28" width="3.65" height="4.18" style="fill:#fff"></rect><rect x="203.95" y="303.28" width="3.65" height="4.18" style="fill:#fff"></rect><rect x="197.61" y="309.8" width="3.65" height="4.18" style="fill:#fff"></rect><rect x="203.95" y="309.8" width="3.65" height="4.18" style="fill:#fff"></rect><rect x="197.61" y="316.32" width="3.65" height="4.18" style="fill:#fff"></rect><rect x="203.95" y="316.32" width="3.65" height="4.18" style="fill:#fff"></rect><path d="M405.72,233.9S371.53,310,427.47,310s19.68-78.72,19.68-78.72,13-5.7-2.07-48.17-21.73-42.47-28-42.47c-7.88,0-15.22,18.39-9.84,46.61C407.27,187.28,387.59,222.5,405.72,233.9Z" style="fill:#ebebeb"></path><polygon points="432.44 360.53 427.04 245.83 421.65 360.53 432.44 360.53" style="fill:#a6a6a6"></polygon><polygon points="429.24 293.92 408.91 270.17 424.85 297.06 429.24 293.92" style="fill:#a6a6a6"></polygon><path d="M84.69,256.82s28,62.36-17.82,62.36S50.75,254.7,50.75,254.7s-10.6-4.66,1.7-39.45,17.8-34.78,22.91-34.78c6.45,0,12.46,15.06,8,38.18C83.41,218.65,99.53,247.49,84.69,256.82Z" style="fill:#dbdbdb"></path><polygon points="62.81 360.53 67.22 266.6 71.64 360.53 62.81 360.53" style="fill:#a6a6a6"></polygon><polygon points="65.43 305.98 82.08 286.53 69.02 308.55 65.43 305.98" style="fill:#a6a6a6"></polygon><path d="M399.64,242.08s15.95-6.33,28.61,15.7c13,22.59-3.29,37.48-16.2,28.62,0,0-10.13,21.26-30.39,16.2s-23.55-21.27-23.55-21.27-18,1.27-18.48-12.15,12.66-25.32,12.66-25.32.76-33.43,22.53-33.17S399.64,242.08,399.64,242.08Z" style="fill:#dbdbdb"></path><polygon points="384.83 360.53 380.27 261.07 375.71 360.53 384.83 360.53" style="fill:#a6a6a6"></polygon><polygon points="382.22 297.25 395.6 270.55 378.31 294.91 382.22 297.25" style="fill:#a6a6a6"></polygon><path d="M446.11,113.66H338.44S349.12,84.5,365.55,84.5s21.57,20.12,21.57,20.12,11.09-10.93,20.2-10.93,17,14.45,17,14.45S437.21,100.37,446.11,113.66Z" style="fill:#ebebeb"></path><path d="M317.34,147.3H267S278.27,131,287.12,131s11.48,10.86,11.48,10.86,6.25-5.06,12-4.16S317.34,147.3,317.34,147.3Z" style="fill:#ebebeb;opacity:0.5"></path><path d="M151.9,131.45h-98s13.42-30,27.78-31.83,21.22,22.26,21.22,22.26,9.26-8.53,16.54-8.53,12.91,11.24,12.91,11.24S146.9,116.89,151.9,131.45Z" style="fill:#ebebeb"></path><path d="M245.05,76.84H178.84s11.37-21.71,23.71-22,18.82,16.43,18.82,16.43S240.56,55.84,245.05,76.84Z" style="fill:#ebebeb;opacity:0.5"></path></g><g id="freepik--Shadow--inject-26"><ellipse cx="250" cy="446.9" rx="170.02" ry="14.57" style="fill:#ebebeb"></ellipse></g><g id="freepik--Character--inject-26"><path d="M244.79,152.45c.41,25.86,6.58,55.09,14.88,55.73,11.18.87,35.78-5.65,48-12.09,3.59-1.89-11.69-29.52-15.53-27.5-4.64,2.44-23.72,8.1-24.24,8.19-1.1.21-7.57-22.15-12.36-31.73C250,133.87,244.61,140.37,244.79,152.45Z" style="fill: rgb(235, 148, 129);"></path><path d="M325.5,185.5c-4.58,4.95-17.92,11.4-21.73,11.72s-15.54-22-13.91-25.56,18.36-19,25.17-20.06S330.25,180.37,325.5,185.5Z" style="fill: rgb(235, 148, 129);"></path><rect x="301.54" y="137.1" width="5.51" height="6.34" transform="translate(-22.03 64.24) rotate(-11.63)" style="fill:#dbdbdb"></rect><rect x="300.76" y="141.29" width="8.98" height="7.24" transform="translate(-22.95 64.53) rotate(-11.63)" style="fill:#c7c7c7"></rect><path d="M318.24,155.07c1.32,6.42,6.68,32.43,6.68,32.43L304,191.81l-6.67-32.44c-1.33-6.41,1.69-12.2,8.11-13.52S316.92,148.65,318.24,155.07Z" style="fill:#4AAEE5"></path><path d="M318.24,155.07c1.32,6.42,6.68,32.43,6.68,32.43L304,191.81l-6.67-32.44c-1.33-6.41,1.69-12.2,8.11-13.52S316.92,148.65,318.24,155.07Z" style="opacity:0.1"></path><path d="M304.81,148.5a.85.85,0,0,1-.65,1,.83.83,0,0,1-.33-1.63A.82.82,0,0,1,304.81,148.5Z" style="fill:#fff"></path><path d="M316.71,153.7a.83.83,0,1,1-1.63.33.82.82,0,0,1,.64-1A.85.85,0,0,1,316.71,153.7Z" style="fill:#fff"></path><path d="M307.62,156.42a.83.83,0,1,1-1-.65A.85.85,0,0,1,307.62,156.42Z" style="fill:#fff"></path><path d="M310,164a.83.83,0,1,1-1.63.33.82.82,0,0,1,.64-1A.85.85,0,0,1,310,164Z" style="fill:#fff"></path><path d="M303.29,173.91a.83.83,0,1,1-1-.65A.83.83,0,0,1,303.29,173.91Z" style="fill:#fff"></path><path d="M301,166.84a.82.82,0,0,1-.64,1,.85.85,0,0,1-1-.65.83.83,0,0,1,1.63-.33Z" style="fill:#fff"></path><path d="M299.61,159.12a.83.83,0,1,1-1-.65A.85.85,0,0,1,299.61,159.12Z" style="fill:#fff"></path><path d="M302.17,153.7a.82.82,0,0,1-.64,1,.85.85,0,0,1-1-.65.83.83,0,1,1,1.63-.33Z" style="fill:#fff"></path><path d="M304.65,161.61a.83.83,0,0,1-.64,1,.85.85,0,0,1-1-.65.83.83,0,0,1,1.63-.33Z" style="fill:#fff"></path><path d="M310.82,151.17a.85.85,0,0,1-.65,1,.83.83,0,0,1-1-.65.82.82,0,0,1,.64-1A.83.83,0,0,1,310.82,151.17Z" style="fill:#fff"></path><path d="M313.43,158.88a.83.83,0,0,1-.65,1,.82.82,0,0,1-1-.64.85.85,0,0,1,.65-1A.83.83,0,0,1,313.43,158.88Z" style="fill:#fff"></path><path d="M306.65,169.1a.83.83,0,1,1-1-.65A.83.83,0,0,1,306.65,169.1Z" style="fill:#fff"></path><path d="M316.75,173.73a.82.82,0,0,1-.64,1,.85.85,0,0,1-1-.65.83.83,0,1,1,1.63-.33Z" style="fill:#fff"></path><path d="M317.89,179.88a.82.82,0,0,1-.64,1,.83.83,0,0,1-1-.64.85.85,0,0,1,.65-1A.83.83,0,0,1,317.89,179.88Z" style="fill:#fff"></path><path d="M308.49,175.58a.82.82,0,0,1-.64,1,.85.85,0,0,1-1-.65.83.83,0,0,1,1.63-.33Z" style="fill:#fff"></path><path d="M306.49,185.94a.85.85,0,0,1-.65,1,.83.83,0,1,1,.65-1Z" style="fill:#fff"></path><path d="M312,171a.83.83,0,1,1-1-.64A.82.82,0,0,1,312,171Z" style="fill:#fff"></path><path d="M313.42,177.64a.83.83,0,0,1-.65,1,.82.82,0,0,1-1-.64.85.85,0,0,1,.65-1A.83.83,0,0,1,313.42,177.64Z" style="fill:#fff"></path><path d="M314.78,184.24a.83.83,0,1,1-1-.65A.83.83,0,0,1,314.78,184.24Z" style="fill:#fff"></path><path d="M319.55,186.44a.83.83,0,0,1-.65,1,.82.82,0,0,1-1-.64.85.85,0,0,1,.65-1A.83.83,0,0,1,319.55,186.44Z" style="fill:#fff"></path><path d="M305.11,179.75a.85.85,0,0,1-.65,1,.83.83,0,0,1-.33-1.63A.82.82,0,0,1,305.11,179.75Z" style="fill:#fff"></path><path d="M309.79,181.85a.83.83,0,1,1-1.63.33.82.82,0,0,1,.64-1A.85.85,0,0,1,309.79,181.85Z" style="fill:#fff"></path><path d="M322.8,182.59a.83.83,0,1,1-1-.65A.83.83,0,0,1,322.8,182.59Z" style="fill:#fff"></path><path d="M311.29,188.21a.83.83,0,0,1-.65,1,.82.82,0,0,1-1-.64.83.83,0,0,1,.64-1A.85.85,0,0,1,311.29,188.21Z" style="fill:#fff"></path><path d="M320.25,169.57a.83.83,0,1,1-1-.65A.83.83,0,0,1,320.25,169.57Z" style="fill:#fff"></path><path d="M321.57,176a.85.85,0,0,1-.65,1,.83.83,0,0,1-1-.65.82.82,0,0,1,.64-1A.83.83,0,0,1,321.57,176Z" style="fill:#fff"></path><path d="M315.55,167a.83.83,0,0,1-.65,1,.82.82,0,0,1-1-.64.85.85,0,0,1,.65-1A.83.83,0,0,1,315.55,167Z" style="fill:#fff"></path><path d="M319.12,162a.83.83,0,0,1-1.62.34.83.83,0,1,1,1.62-.34Z" style="fill:#fff"></path><path d="M304.87,155.27c-.72,3.5,3.81,2.35,3.81,2.35s-6.13,3.23-5.48,7.13,6.08,2.17,6.47,2.06c-.33.17-5.88,3.29-4.83,7.14,1.11,4,6.29,1.47,6.62,1.31-.25.26-3.54,3.75-2.08,6.49,2.53,4.71,11.19-4,15.52-3.82,0,0,.54,7.36.6,7.57,0,0,8.42-8.11,8.32-13.95a3.75,3.75,0,0,0-2.93-3.65s3-2.31,2.27-5.37c-.39-1.57-3.24-2.35-3.24-2.35s2.33-2,1.51-4.63C330.77,153.41,328,153,328,153s1.36-2.91,0-4.88C325.24,144.1,306.42,147.78,304.87,155.27Z" style="fill: rgb(235, 148, 129);"></path><path d="M327.59,152.82c.07,0,.07-.1,0-.1a33.21,33.21,0,0,0-19.16,4.94c-.18.11-.06.46.16.36A68.1,68.1,0,0,1,327.59,152.82Z" style="fill:#263238"></path><path d="M330,160.13c.08,0,.06-.14,0-.14-6.68-.27-14.76,1.82-20.56,6.69-.2.16-.21.51,0,.34C313.57,164.07,323.85,160.79,330,160.13Z" style="fill:#263238"></path><path d="M311.17,175.74c5.75-4.46,12.35-6.62,19.45-7.87.09,0,.06-.14,0-.15-3.64-.33-8.08.93-11.45,2.21a19.14,19.14,0,0,0-8.13,5.61C310.93,175.64,311.05,175.83,311.17,175.74Z" style="fill:#263238"></path><path d="M308.68,157.62a22.15,22.15,0,0,0-3.13,2.48,7.27,7.27,0,0,0-2.11,3.18,2.42,2.42,0,0,0,.16,1.72,3.58,3.58,0,0,0,1.19,1.31,4.28,4.28,0,0,0,3.47.28l2.8-.86-2.33,1.79a11.92,11.92,0,0,0-2.69,2.8,4.25,4.25,0,0,0-.82,3.41,2.44,2.44,0,0,0,2.36,2,7.42,7.42,0,0,0,3.59-.95l3.09-1.59-2.38,2.5a11.49,11.49,0,0,0-1.71,2.32,4.62,4.62,0,0,0-.66,2.59,2.2,2.2,0,0,0,1.38,1.87,4.86,4.86,0,0,0,2.73-.15,38,38,0,0,0,5.54-2.35c.92-.44,1.84-.88,2.78-1.28a7.3,7.3,0,0,1,3-.73,7.83,7.83,0,0,0-2.84,1c-.9.46-1.78,1-2.66,1.47a31.93,31.93,0,0,1-5.54,2.7,5.66,5.66,0,0,1-3.26.29,3.13,3.13,0,0,1-2.15-2.68,5.72,5.72,0,0,1,.74-3.24,12.53,12.53,0,0,1,1.86-2.61l.7.91a8.41,8.41,0,0,1-4.23,1.16,3.54,3.54,0,0,1-2.25-.86,3.94,3.94,0,0,1-1.19-2.05,5.37,5.37,0,0,1,1-4.31,12.78,12.78,0,0,1,3-3l.46.92a5.07,5.07,0,0,1-4.27-.57,4.23,4.23,0,0,1-1.38-1.7,3,3,0,0,1-.12-2.2,7.49,7.49,0,0,1,2.49-3.27A17.68,17.68,0,0,1,308.68,157.62Z" style="fill:#263238"></path><path d="M289.36,170.3s8.74-27.25,17.72-18.62c2.67,2.57,10.56,16.29,7.84,17.93-3.52,2.12-7.89-3-10.11-6.64,0,0-1.67,9.69-8.76,10.54A7.11,7.11,0,0,1,289.36,170.3Z" style="fill: rgb(235, 148, 129);"></path><path d="M306.29,151a15,15,0,0,1,3.06,3.11,33.89,33.89,0,0,1,2.43,3.64,50.17,50.17,0,0,1,3.82,7.91,7.7,7.7,0,0,1,.51,2.27,3.19,3.19,0,0,1-.19,1.31,2.44,2.44,0,0,1-.38.64,2.32,2.32,0,0,1-.55.46,3.71,3.71,0,0,1-2.52.43,6.86,6.86,0,0,1-2.22-.87,13.39,13.39,0,0,1-3.35-3,30,30,0,0,1-2.53-3.64l.94-.19a17.88,17.88,0,0,1-1,3.21,16.92,16.92,0,0,1-1.57,2.94,11.16,11.16,0,0,1-2.26,2.44,8.61,8.61,0,0,1-2.9,1.53,9.73,9.73,0,0,0,2.67-1.8,12.16,12.16,0,0,0,1.95-2.51,16.46,16.46,0,0,0,1.34-2.89,17,17,0,0,0,.76-3.07l.19-1.29.75,1.1a31.89,31.89,0,0,0,2.54,3.42,12.9,12.9,0,0,0,3.08,2.75c1.13.66,2.54,1,3.49.45.88-.44.58-2,.16-3.3a41.48,41.48,0,0,0-1.56-4c-.58-1.32-1.17-2.63-1.83-3.91A27.8,27.8,0,0,0,306.29,151Z" style="fill:#263238"></path><path d="M131.61,444.22c-1-.14-18.52-1.76-19.83-3.31-13.19-15.68-29.4-54.24-29.58-56.09-.13-1.16,17.72-12.06,17.81-12.13,1.91-1.59,37.17-25.29,37.17-25.29l26.7,35.81-36.43,23.88-.6.45a113.4,113.4,0,0,0,1.69,19.9c.26,1.34,5.09,7.65,5.31,8.76C134.6,439.89,133,444.41,131.61,444.22Z" style="fill: rgb(235, 148, 129);"></path><path d="M131.62,444.21c-1-.14-18.53-1.75-19.84-3.31-13.19-15.67-29.4-54.23-29.58-56.09-.13-1.16,17.71-12,17.81-12.12.47-.39,3-2.13,6.47-4.53l26.16,35.53-5.2,3.41-.59.44a113.54,113.54,0,0,0,1.69,19.91c.26,1.34,5.09,7.64,5.31,8.75C134.6,439.88,133,444.41,131.62,444.21Z" style="fill:#ebebeb"></path><path d="M132.25,444.58c-.61.3-19.8-2.27-20.91-3.59-10.55-12.64-30.19-54.51-30.15-56.73,0-1.16,9.68-7.7,20.08-12.89l25.82,36.26s.1,12.8,1.58,19.86c.34,1.61,5.14,7.43,5.48,8.61C135.2,439.74,133.14,444.14,132.25,444.58Z" style="fill:#4AAEE5"></path><path d="M132.23,434.34a11.67,11.67,0,0,0-8.53-2.83,9.93,9.93,0,0,0-6.88,3.44c0,.06.07.16.13.11,3.89-3.47,10.62-3.81,15.17-.59A.09.09,0,0,0,132.23,434.34Z" style="fill:#263238"></path><path d="M98.21,383.39c-2.65-4.37-9.45-.25-6.79,4.13S100.87,387.77,98.21,383.39Z" style="fill:#263238"></path><path d="M140.53,410.24c.55-2.95-2.51-4.57-4.92-4.85a24,24,0,0,0-9.79,1.11,13.29,13.29,0,0,0-1.3.46l-.54.22s0,0,0,0l-.13.08-.44.19a.13.13,0,0,0,0,.2.56.56,0,0,0-.15.61.4.4,0,0,0,.22.28c1,.48,2,1,3,1.52.17.1.33.18.51.27a24.77,24.77,0,0,0,7.62,2.85C136.85,413.53,140,413,140.53,410.24Zm-11.17-.16c-.85-.39-1.7-.81-2.54-1.2s-1.43-.68-2.16-1l-.3-.13-.28-.12.28-.06h0c.62-.11,1.23-.21,1.84-.33a44.13,44.13,0,0,1,5-.66,25.42,25.42,0,0,1,3.49-.06c1.79.14,7.3,2.19,3.18,5C135.66,413.06,131.45,411,129.36,410.08Z" style="fill:#263238"></path><path d="M124.12,408.19c.07,0,.14,0,.18-.09a2.33,2.33,0,0,0,.06-.35.23.23,0,0,0,0-.14s0,0,0,0a2.74,2.74,0,0,0,.12-.61,17.55,17.55,0,0,0,.29-2.28,24.1,24.1,0,0,0-1-8.94c-.76-2.32-3-5-5.75-3.83a2.49,2.49,0,0,0-.28.15c-2.32,1.18-2.15,4.23-1.37,6.34a23,23,0,0,0,3.69,6c1,1.29,2.11,2.55,3.12,3.82v0A.56.56,0,0,0,124.12,408.19Zm-3.6-5.36c-1.39-1.86-4.23-5.57-3.19-8.1a3.77,3.77,0,0,1,1.06-1.57c1.84-1.44,4.06,2.23,4.48,3.67a26.7,26.7,0,0,1,.69,3.43c.12.87.2,1.74.24,2.63.1,1.43.12,2.85.18,4.29v0a2.44,2.44,0,0,0,0,.27,1,1,0,0,0-.15-.21c-.13-.19-.25-.37-.39-.55C122.5,405.39,121.48,404.13,120.52,402.83Z" style="fill:#263238"></path><path d="M128.15,413c-2.17-4-6.14-7.83-10.78-8.49-.18,0-.21.23-.09.31a63.15,63.15,0,0,1,10.42,8.52A.28.28,0,0,0,128.15,413Z" style="fill:#263238"></path><path d="M128.67,416.76c-2.17-4-6.15-7.84-10.78-8.49-.18,0-.21.23-.09.31a63.47,63.47,0,0,1,10.42,8.52A.28.28,0,0,0,128.67,416.76Z" style="fill:#263238"></path><path d="M129.19,420.5c-2.17-4-6.15-7.84-10.78-8.49-.18,0-.22.23-.09.31a63,63,0,0,1,10.41,8.52A.29.29,0,0,0,129.19,420.5Z" style="fill:#263238"></path><path d="M129.7,424.24c-2.16-4-6.14-7.84-10.78-8.49-.18,0-.21.23-.08.31a63,63,0,0,1,10.41,8.52A.28.28,0,0,0,129.7,424.24Z" style="fill:#263238"></path><path d="M132.78,442c-5.16-1.45-10.56-2.1-15.77-3.37l-1.82-.44a2.77,2.77,0,0,1-1.78-.82,29.13,29.13,0,0,1-1.93-3.35q-1.94-3.44-3.85-6.87-7.71-13.81-15.07-27.81c-1.39-2.63-2.8-5.25-4.2-7.88s-3-5.18-4.38-7.81c0-.09-.2,0-.15.07,1.15,2.45,2.15,5,3.35,7.4s2.39,4.86,3.63,7.27q3.69,7.19,7.53,14.28t7.77,14.15q2,3.54,4,7.08c.65,1.14,1.29,2.28,2,3.42a3.23,3.23,0,0,0,2.23,1.76c6,1.46,12.28,2.19,18.36,3.36C132.92,442.47,133,442.05,132.78,442Z" style="fill:#263238"></path><path d="M260.05,193.84s3.73,31.89-2.85,39.15c0,0-22.3,78-28.11,95.43-6.39,19.15-83.93,67.14-83.93,67.14l-26-36s17.6-14.76,35.45-28c12.92-9.57,28.07-15.95,28.17-16.69,1.32-10.33,24.24-75.38,23.61-77.14-7.27-20.11,4.49-43.92,4.49-43.92Z" style="fill:#263238"></path><path d="M127.52,368.16c9.65-9.69,60.93-47.52,60.93-47.52l.47-.43.23-.22.11-.1,0-.05c0-.08,0-.06.12-.19l.24-.47a11.08,11.08,0,0,0,.49-1c1.32-2.95,2.45-6.2,3.56-9.39s2.16-6.44,3.21-9.68c2.07-6.48,4.16-13,6.16-19.49l12.09-39.12.06,1a35.55,35.55,0,0,1-1.48-6.12l-.23-1.53-.15-1.52c-.13-1-.16-2-.22-3.06a68.4,68.4,0,0,1,.59-12.15c.33-2,.62-4,1.09-6s1-3.91,1.52-5.84c.25-1,.59-1.92.92-2.87l1-2.83c.74-1.87,1.54-3.7,2.31-5.55-.58,1.92-1.2,3.81-1.74,5.73s-1.05,3.84-1.42,5.79-.8,3.89-1,5.85-.49,3.92-.68,5.88a73.25,73.25,0,0,0,.1,11.76c.11,1,.19,1.94.36,2.9l.22,1.44.29,1.43a33.81,33.81,0,0,0,1.52,5.44l.21.51-.15.54c-1.75,6.61-3.53,13.2-5.41,19.77s-3.73,13.15-5.72,19.69-4,13.1-6.1,19.6c-1.07,3.25-2.16,6.5-3.31,9.74s-2.28,6.46-3.78,9.74c-.21.42-.37.81-.64,1.26l-.37.66a8.12,8.12,0,0,1-.64.83l-.18.21-.12.11-.24.22-.48.42S138.11,359.51,127.52,368.16Z" style="fill:#455a64"></path><path d="M257.2,233s-6.59,23.05-13.54,46.89l-37.3-42.13,0-.11c-7.19-20.08,4.53-43.8,4.53-43.8h51S263.77,225.73,257.2,233Z" style="fill:#37474f"></path><path d="M418.31,418.76c-1.57,2-58.89,38.93-62,38.94-1.17,0-29.41-52.16-29.41-52.16l36-20.17,17.19,30.35s27.5-4.21,30.89-3.88S419.88,416.8,418.31,418.76Z" style="fill: rgb(235, 148, 129);"></path><path d="M418.3,418.76c-1.56,2-58.89,38.93-62,38.95-.56,0-7.86-11.64-14.36-24.67l35.7-23.24,2.47,5.92s27.49-4.21,30.88-3.88S419.88,416.81,418.3,418.76Z" style="fill:#ebebeb"></path><path d="M418.53,418.57c-1.56,1.95-59,39.64-62.11,39.67-1.17,0-6.27-9.76-11.77-20l35.82-23s27.45-3.87,30.81-3.54S420.1,416.61,418.53,418.57Z" style="fill:#4AAEE5"></path><path d="M416.24,416.81c-9.71,5.94-48.34,30.81-57.5,37.41-.07.06,0,.11,0,.06,9.76-5.67,48.19-30.85,57.56-37.31C416.54,416.83,416.45,416.69,416.24,416.81Z" style="fill:#263238"></path><path d="M406.29,412a9.16,9.16,0,0,0-4.22,6,8.84,8.84,0,0,0,1.16,6.48c0,.06.14,0,.11-.07a10.59,10.59,0,0,1,3-12.32C406.44,412.06,406.37,412,406.29,412Z" style="fill:#263238"></path><path d="M384.09,414.24c-3.86,2.42-7.43,6.63-7.79,11.3,0,.18.25.2.32.06a62.84,62.84,0,0,1,7.84-10.93A.29.29,0,0,0,384.09,414.24Z" style="fill:#263238"></path><path d="M387.79,413.48c-3.86,2.42-7.43,6.64-7.79,11.3,0,.18.24.2.32.07a62.92,62.92,0,0,1,7.84-10.94A.29.29,0,0,0,387.79,413.48Z" style="fill:#263238"></path><path d="M391.49,412.73c-3.87,2.42-7.43,6.63-7.79,11.3,0,.18.24.19.32.06a62.84,62.84,0,0,1,7.84-10.93A.29.29,0,0,0,391.49,412.73Z" style="fill:#263238"></path><path d="M395.19,412c-3.87,2.42-7.43,6.64-7.79,11.3,0,.18.24.2.32.07a62.92,62.92,0,0,1,7.84-10.94A.29.29,0,0,0,395.19,412Z" style="fill:#263238"></path><path d="M355.32,443.57c-4.29,2.78,0,9.45,4.32,6.66S359.61,440.78,355.32,443.57Z" style="fill:#263238"></path><path d="M381.64,401.35c-3-.36-4.41,2.8-4.53,5.23a24.15,24.15,0,0,0,1.73,9.69c.17.44.35.86.54,1.27.1.17.18.35.26.52,0,0,0,0,0,0l.08.13.22.42a.12.12,0,0,0,.19,0,.59.59,0,0,0,.63.12.43.43,0,0,0,.26-.24c.41-1,.87-2,1.32-3.06.09-.17.16-.34.25-.52a24.68,24.68,0,0,0,2.35-7.79C385.15,404.82,384.45,401.69,381.64,401.35Zm.55,11.16c-.34.88-.7,1.75-1,2.61s-.58,1.48-.86,2.22c0,.1-.08.22-.11.31l-.1.28c0-.09-.05-.18-.07-.28s0,0,0,0c-.14-.61-.28-1.21-.44-1.82a43.18,43.18,0,0,1-1-4.94,27,27,0,0,1-.27-3.48c0-1.8,1.72-7.42,4.78-3.5C384.77,406,383,410.37,382.19,412.51Z" style="fill:#263238"></path><path d="M380.63,417.86a.12.12,0,0,0-.09-.17,1.59,1.59,0,0,0-.36,0,.16.16,0,0,0-.14,0s0,0,0,0a2.7,2.7,0,0,0-.62-.08,14.67,14.67,0,0,0-2.29-.14,23.8,23.8,0,0,0-8.85,1.56c-2.27.91-4.77,3.29-3.46,6,.05.1.11.19.16.28,1.33,2.24,4.36,1.87,6.42,1a23.12,23.12,0,0,0,5.8-4.07c1.22-1.11,2.4-2.27,3.61-3.35l0,0A.55.55,0,0,0,380.63,417.86Zm-5.11,3.94c-1.77,1.5-5.29,4.57-7.88,3.69a3.73,3.73,0,0,1-1.63-.95c-1.56-1.75,2-4.2,3.38-4.71a25.73,25.73,0,0,1,3.37-.9c.86-.19,1.73-.31,2.6-.42,1.43-.18,2.85-.29,4.28-.45h0l.27,0a1.63,1.63,0,0,0-.2.17l-.53.42C378,419.66,376.76,420.75,375.52,421.8Z" style="fill:#263238"></path><path d="M365.81,390.39,330,411.18s-21.81-25.38-31.13-54.78c-6.08-19.2-9.86-36.41-10.64-37.71-2.58-4.31-64.3-63.69-78.64-79.31-18.87-20.54.15-45.57.15-45.57l52.12,0,.26,18.8c4.11,6.63,62,68.17,67.22,83.52C338.4,323,365.81,390.39,365.81,390.39Z" style="fill:#263238"></path><path d="M261.67,262.22l-10.29,19.14-9.78-9.65L252.77,251Z" style="fill:#4AAEE5"></path><path d="M266.94,268.87l-9.8,18.2c-.76-.76-1.53-1.53-2.31-2.29l10-18.59Z" style="fill:#4AAEE5"></path><path d="M251.28,203.72A44.1,44.1,0,0,1,257,207.8a44.76,44.76,0,0,1,5.1,4.84,43.1,43.1,0,0,1-5.74-4.07A44.86,44.86,0,0,1,251.28,203.72Z" style="fill:#37474f"></path><path d="M263.41,185.6l-1.56,8.24h-51s8-41.79,26.65-54.19c9.34-6.2,17.86-3.48,22,3.47,1.05,1.76,11.72,20.2,11.42,29C270.64,180,263.41,185.6,263.41,185.6Z" style="fill: rgb(235, 148, 129);"></path><path d="M270.93,172.17c-.27,7.31-6.66,12.72-7.45,13.37l-.05.05h0l-49.71-3.35c1.16-4.06,2.66-8.83,4.57-13.74a90.08,90.08,0,0,0,14.79-.67c2.17-.41,7-7.63,13.18-6.9s12.36,6.9,12.36,6.9a20,20,0,0,1,10.1-5.83C270.08,165.8,271,169.44,270.93,172.17Z" style="fill:#263238"></path><path d="M259.51,143.12a13.53,13.53,0,0,0-.87-1.31c1.47,4.26,4.25,13.66.67,14.59-3.93,1-13.82-14.34-16.88-19.25a22.18,22.18,0,0,0-4.92,2.5c-13.6,9-22.37,32.35-26.12,44.39l51.53,4.8.48-3.24s7.24-5.64,7.53-13.43C271.23,163.32,260.56,144.88,259.51,143.12Zm-19.43,20.45c-2.64,5.71-8.65,10.13-12.65,9.59-3.27-.44-4.8-4.89-3.5-10.55C226.17,153,235.7,138.71,240,139,245,139.43,244.46,154.05,240.08,163.57Z" style="fill:#4AAEE5"></path><path d="M246.92,178.67a48.34,48.34,0,0,1,8.2,2.16c1.32.5,2.62,1.07,3.92,1.68.64.3,1.29.58,1.95.85a7.9,7.9,0,0,0,2.1.62c.07,0,.06.12,0,.12a11.86,11.86,0,0,1-2.06-.18,12.24,12.24,0,0,1-1.94-.56c-1.35-.5-2.68-1.06-4-1.57-2.72-1-5.43-2-8.2-2.84C246.74,178.91,246.79,178.65,246.92,178.67Z" style="fill:#263238"></path><path d="M239.84,181.23a50.38,50.38,0,0,1,6.95,0,33.6,33.6,0,0,1,3.45.46c.54.1,1.09.21,1.63.33s1.18.35,1.78.47c.07,0,.06.13,0,.12-.56-.09-1.15-.07-1.72-.12l-1.73-.16-3.46-.31c-2.3-.24-4.6-.45-6.91-.59C239.69,181.45,239.72,181.24,239.84,181.23Z" style="fill:#263238"></path><path d="M274.92,95.37a1.55,1.55,0,0,1-1.14,2.8,1.64,1.64,0,0,1,0,.66,1.71,1.71,0,0,1-1.9,1.31,1.46,1.46,0,0,1,0,.55,1.56,1.56,0,0,1-2.74.62,1.56,1.56,0,0,1-1.84,1,1.53,1.53,0,0,1-.59-.28.59.59,0,0,1,0,.14,1.56,1.56,0,0,1-3,.24,1.53,1.53,0,0,1-1.75.86,1.56,1.56,0,0,1-1.15-1.08,1.74,1.74,0,0,1-1.13.12,1.69,1.69,0,0,1-1.07-.78,1.74,1.74,0,0,1-1.29.22A1.7,1.7,0,0,1,256,100.2a1.57,1.57,0,0,1-.61,0,1.55,1.55,0,0,1-1.2-1.66,1.77,1.77,0,0,1-.76,0,1.71,1.71,0,0,1-1.28-2.06,2,2,0,0,1,.21-.52.89.89,0,0,1-.27,0,1.56,1.56,0,0,1-1.17-1.86,1.54,1.54,0,0,1,.41-.74,1.72,1.72,0,0,1-1.13-2,1.66,1.66,0,0,1,.46-.82,1.73,1.73,0,0,1-.73-1.82,1.7,1.7,0,0,1,1-1.17,1.54,1.54,0,0,1,.53-2.24,1.73,1.73,0,0,1-.36-1.48,1.71,1.71,0,0,1,1.54-1.32,1.58,1.58,0,0,1,0-.75,1.55,1.55,0,0,1,1.66-1.2,1.5,1.5,0,0,1,0-.73,1.72,1.72,0,0,1,2.06-1.29,1.49,1.49,0,0,1,.37.14,1.26,1.26,0,0,1,0-.27,1.7,1.7,0,0,1,2.05-1.28,1.28,1.28,0,0,1,.4.15,1.65,1.65,0,0,1,0-.49,1.71,1.71,0,0,1,2.06-1.28,1.69,1.69,0,0,1,1.09.8,1.68,1.68,0,0,1,1.61-.49,1.72,1.72,0,0,1,1.05.73,1.56,1.56,0,0,1,1.72-.78,1.58,1.58,0,0,1,1.13,1,1.55,1.55,0,0,1,2.48,1.09,1.71,1.71,0,0,1,1.36-.27A1.73,1.73,0,0,1,273,79.27a1.38,1.38,0,0,1,.57,0,1.56,1.56,0,0,1,.94,2.38l.1,0a1.71,1.71,0,0,1,1.28,2.06,1.83,1.83,0,0,1-.18.46,1.12,1.12,0,0,1,.41,0,1.55,1.55,0,0,1,.47,2.83,1.56,1.56,0,0,1,.48,1.51,1.6,1.6,0,0,1-.68,1,1.71,1.71,0,0,1-.66,3.18,1.52,1.52,0,0,1,.42,1.45A1.56,1.56,0,0,1,274.92,95.37Z" style="fill:#263238"></path><path d="M248.33,107.32a1.55,1.55,0,0,1-1.14,2.8,1.64,1.64,0,0,1,0,.66,1.71,1.71,0,0,1-1.9,1.31,1.46,1.46,0,0,1,0,.55,1.56,1.56,0,0,1-2.74.62,1.55,1.55,0,0,1-1.83,1,1.47,1.47,0,0,1-.59-.28l0,.14a1.55,1.55,0,0,1-1.87,1.16,1.56,1.56,0,0,1-1.09-.92,1.53,1.53,0,0,1-1.75.86,1.57,1.57,0,0,1-1.15-1.08,1.71,1.71,0,0,1-2.2-.66,1.74,1.74,0,0,1-1.29.22,1.7,1.7,0,0,1-1.32-1.58,1.57,1.57,0,0,1-.61,0,1.55,1.55,0,0,1-1.2-1.66,1.77,1.77,0,0,1-.76,0,1.71,1.71,0,0,1-1.28-2.06,1.6,1.6,0,0,1,.22-.52.92.92,0,0,1-.28,0,1.55,1.55,0,0,1-1.16-1.86,1.52,1.52,0,0,1,.4-.75,1.7,1.7,0,0,1-1.13-2,1.66,1.66,0,0,1,.46-.82,1.74,1.74,0,0,1-.73-1.83,1.71,1.71,0,0,1,1-1.16,1.52,1.52,0,0,1-.24-1.23,1.54,1.54,0,0,1,.77-1A1.71,1.71,0,0,1,226,94.4a1.58,1.58,0,0,1,0-.75,1.55,1.55,0,0,1,1.66-1.2,1.64,1.64,0,0,1,0-.73,1.72,1.72,0,0,1,2.06-1.29,1.49,1.49,0,0,1,.37.14,1.26,1.26,0,0,1,0-.27,1.7,1.7,0,0,1,2-1.28,1.28,1.28,0,0,1,.4.15,1.65,1.65,0,0,1,0-.49,1.72,1.72,0,0,1,2.06-1.28,1.64,1.64,0,0,1,1.09.8,1.69,1.69,0,0,1,1.62-.49,1.73,1.73,0,0,1,1,.73,1.56,1.56,0,0,1,1.72-.78,1.58,1.58,0,0,1,1.13,1,1.56,1.56,0,0,1,2.49,1.09,1.7,1.7,0,0,1,1.36-.27,1.73,1.73,0,0,1,1.33,1.72,1.38,1.38,0,0,1,.57,0,1.56,1.56,0,0,1,.94,2.38h.1a1.72,1.72,0,0,1,1.28,2.07,1.3,1.3,0,0,1-.18.46,1.2,1.2,0,0,1,.42,0A1.55,1.55,0,0,1,250,99a1.55,1.55,0,0,1-.2,2.47,1.72,1.72,0,0,1,.81,1.88,1.7,1.7,0,0,1-1.47,1.31,1.52,1.52,0,0,1,.42,1.45A1.55,1.55,0,0,1,248.33,107.32Z" style="fill:#263238"></path><path d="M246.24,137.77c.19,1.14,5.06,8.72,10.18,8.81,1.66,0,2.21-9.07,2.21-9.07l.19-.66,2.7-9.27-10.59-7.79-1.54-1s-.57,2.59-1.25,5.81c0,.15-.06.3-.1.46l-.12.53c-.1.48-.21,1-.31,1.46s-.15.74-.21,1.13-.14.78-.22,1.17A63.14,63.14,0,0,0,246.24,137.77Z" style="fill: rgb(235, 148, 129);"></path><path d="M248.14,124.56a19.36,19.36,0,0,0,10.68,12.29l2.7-9.27-10.59-7.79-1.54-1S248.82,121.34,248.14,124.56Z" style="fill:#263238"></path><path d="M276.5,112.51c1.65,16.86-8.26,19.75-11.89,20.1-3.3.32-14.58,1-18-15.61s3.94-22.7,11.45-23.83S274.85,95.65,276.5,112.51Z" style="fill: rgb(235, 148, 129);"></path><path d="M273.29,109.77a11.11,11.11,0,0,1-1.16-.12,2,2,0,0,1-1.16-.36.6.6,0,0,1-.07-.73,1.49,1.49,0,0,1,1.43-.5,2.27,2.27,0,0,1,1.45.64A.64.64,0,0,1,273.29,109.77Z" style="fill:#263238"></path><path d="M262.22,110.93a11,11,0,0,0,1.12-.32,1.93,1.93,0,0,0,1.09-.55.59.59,0,0,0-.06-.73,1.48,1.48,0,0,0-1.49-.25,2.23,2.23,0,0,0-1.32.88A.64.64,0,0,0,262.22,110.93Z" style="fill:#263238"></path><path d="M264.82,114.23s-.08.06-.08.11c.18,1.14.19,2.48-.8,3,0,0,0,.08,0,.07C265.2,117.05,265.17,115.28,264.82,114.23Z" style="fill:#263238"></path><path d="M263.65,113.16c-1.86.08-1.55,3.79.17,3.71S265.21,113.09,263.65,113.16Z" style="fill:#263238"></path><path d="M262.94,113.41c-.31.24-.59.64-1,.71s-.82-.28-1.15-.63c0,0-.06,0-.06.05.05.71.38,1.42,1.15,1.46s1.15-.63,1.27-1.36C263.19,113.5,263.06,113.32,262.94,113.41Z" style="fill:#263238"></path><path d="M271.1,113.3s.1,0,.1.1c.05,1.15.3,2.46,1.37,2.77a0,0,0,0,1,0,.06C271.28,116.15,271,114.4,271.1,113.3Z" style="fill:#263238"></path><path d="M272,112c1.84-.28,2.26,3.42.56,3.67S270.5,112.26,272,112Z" style="fill:#263238"></path><path d="M272.84,112.18c.31.16.64.49,1,.47s.66-.45.87-.87c0,0,.06,0,.06,0,.1.7,0,1.46-.71,1.68s-1.13-.36-1.38-1C272.64,112.33,272.71,112.11,272.84,112.18Z" style="fill:#263238"></path><path d="M265.62,123.31c.29.26.58.62,1,.64a3,3,0,0,0,1.23-.34,0,0,0,0,1,0,.06,1.56,1.56,0,0,1-1.44.68,1.23,1.23,0,0,1-.95-1C265.49,123.3,265.58,123.27,265.62,123.31Z" style="fill:#263238"></path><path d="M270,118.7s.4,1.69.48,2.5c0,.08-.19.13-.46.18,0,0,0,0,0,0a3.86,3.86,0,0,1-3.87-1.08c-.07-.08,0-.17.11-.13a5.74,5.74,0,0,0,3.6.68c0-.23-.78-2.88-.65-2.9a7.23,7.23,0,0,1,1.88.24c-.73-3.55-2-7-2.7-10.5a.11.11,0,0,1,.21-.07A59.42,59.42,0,0,1,272,118.8C272.09,119.26,270.37,118.81,270,118.7Z" style="fill:#263238"></path><path d="M269.2,121.24a3.91,3.91,0,0,1-1.47,1.32,1.7,1.7,0,0,1-1.05.14c-.79-.14-.86-.84-.76-1.46a3.86,3.86,0,0,1,.27-.94A5.08,5.08,0,0,0,269.2,121.24Z" style="fill:#263238"></path><path d="M267.73,122.56a1.7,1.7,0,0,1-1.05.14c-.79-.14-.86-.84-.76-1.46A1.81,1.81,0,0,1,267.73,122.56Z" style="fill:#ff9cbd"></path><path d="M263.39,96.82a7.53,7.53,0,0,1,.1,4.44c-1.56,3.95-6.23,3.27-7.7,4.89s-.65,4.41-1.89,5.92c-1.71,2.09-3.06.77-3.28,2.12s-.79,5.6-2.44,6.25S236.86,93.69,258.91,93c0,0,3-1.61,7.78.59,6.8,3.13,8.52,11.7,8.52,11.7a5.47,5.47,0,0,1-2.15-.8c-1.13-.86-1.7-1.53-2.52-2.08-1.29-.87-2-.14-3.33-1C265.17,100.18,263.39,96.82,263.39,96.82Z" style="fill:#263238"></path><path d="M263.12,95.9a14.79,14.79,0,0,1,.88,3.32,6.14,6.14,0,0,1-.24,3.3,4.61,4.61,0,0,1-2.39,2.14c-1,.46-2.16.65-3.25,1.18a3.39,3.39,0,0,0-1.4,1.21,4.68,4.68,0,0,0-.53,1.73,6,6,0,0,1-1,3.13,3.79,3.79,0,0,1-2.86,1.45c-1.11.08-2.35-.15-3.4.41,1.09-.47,2.25-.16,3.41-.15a4.14,4.14,0,0,0,3.18-1.44,6.13,6.13,0,0,0,1.17-3.32,4.15,4.15,0,0,1,.48-1.54,2.89,2.89,0,0,1,1.2-1c1-.49,2.14-.71,3.22-1.21a6.17,6.17,0,0,0,1.51-1,3.61,3.61,0,0,0,1.06-1.46,6.56,6.56,0,0,0,.12-3.51A14.94,14.94,0,0,0,263.12,95.9Z" style="fill:#263238"></path><path d="M263.61,96.87a12.69,12.69,0,0,0,1.28,3,5.73,5.73,0,0,0,2.38,2.27,8.4,8.4,0,0,0,1.56.48,2.63,2.63,0,0,1,1.24.71,8,8,0,0,0,1.05,1.23,3.57,3.57,0,0,0,1.46.72,3.93,3.93,0,0,1-1.27-.91,7.77,7.77,0,0,1-.9-1.29,2.79,2.79,0,0,0-1.43-1,8.56,8.56,0,0,1-1.48-.48,6,6,0,0,1-2.24-2A23,23,0,0,1,263.61,96.87Z" style="fill:#263238"></path><path d="M250,117.8s-3.5-5.42-5.95-4.19,0,9,2.83,10.14a2.87,2.87,0,0,0,3.89-1.4Z" style="fill: rgb(235, 148, 129);"></path><path d="M244.82,115.81s0,.06,0,.08c1.94.87,2.91,2.74,3.57,4.66A1.59,1.59,0,0,0,246,120a.06.06,0,0,0,.05.11,1.76,1.76,0,0,1,1.91.69,8,8,0,0,1,.87,1.6c.09.18.41.1.35-.11a.43.43,0,0,1,0,0C249.34,119.76,247.52,116.17,244.82,115.81Z" style="fill:#263238"></path><path d="M232.94,139c-25.69,5-48.85,22.47-50.62,30.08-2.54,10.92,15.28,40.87,21,52.58,1.77,3.65,25-18.6,23.08-22.49-1.83-3.72-16.23-24.5-16.22-25,0-1.13,22.54-19.42,28.3-24C243.6,146.1,246.91,136.31,232.94,139Z" style="fill: rgb(235, 148, 129);"></path><path d="M253.41,228c-1.32,3.09-4.78,2.74-4.78,2.74a7.19,7.19,0,0,1-.94,4.79c-1.64,2.45-6.21,1-6.21,1a8.8,8.8,0,0,1-1.79,4.89c-1.8,2.19-6.63,1.34-6.63,1.34a7.75,7.75,0,0,1-4.28,3.31c-4.81,1.28-10.36-3.91-13.92-7.18s-10.61-15.86-12.2-18.12l20.75-23s20.14,10.09,23.79,14.52C250.27,216,254.89,224.54,253.41,228Z" style="fill: rgb(235, 148, 129);"></path><path d="M248.81,230.24c-2.32-4.75-5.91-8.56-9.27-12.57-.08-.09-.22,0-.14.12,3.39,3.94,6,8.51,9.19,12.59A.13.13,0,0,0,248.81,230.24Z" style="fill:#263238"></path><path d="M241.68,236.13a14.09,14.09,0,0,0-2.26-2.8c-.87-.93-1.76-1.85-2.66-2.76-1.8-1.81-3.64-3.59-5.53-5.3-.09-.08-.22,0-.14.11,1.79,1.81,3.56,3.65,5.27,5.54q1.29,1.41,2.55,2.85a16.19,16.19,0,0,0,2.51,2.59A.18.18,0,0,0,241.68,236.13Z" style="fill:#263238"></path><path d="M233,242.66a9.82,9.82,0,0,0-2.18-2.42l-2.5-2.44c-1.65-1.64-3.31-3.28-4.91-5-.08-.08-.22,0-.14.12,1.62,1.73,3.21,3.48,4.84,5.2.8.84,1.61,1.68,2.42,2.51a8.94,8.94,0,0,0,2.39,2.08C233,242.77,233,242.7,233,242.66Z" style="fill:#263238"></path><path d="M219.32,187.18c-.83-1.18-1.68-2.36-2.53-3.53a43.59,43.59,0,0,0-3-3.51s-.09,0-.06,0c.8,1.22,1.51,2.48,2.37,3.67s1.73,2.43,2.56,3.67c1.63,2.45,3.39,4.81,5,7.25,0,.08.19,0,.15-.08A83.85,83.85,0,0,0,219.32,187.18Z" style="fill:#263238"></path><path d="M232.24,156.17l-1.22.64q2.53-2.15,4.89-4.49a0,0,0,0,0,0-.07c-2,1.5-4,3-6,4.63-.92.76-1.86,1.5-2.75,2.29s-1.95,1.82-3,2.65c-.12.1,0,.3.14.2,1-.8,2.06-1.49,3.09-2.25s1.75-1.37,2.61-2.08c.31-.13.63-.26.93-.42.49-.26,1-.53,1.45-.83.94-.59,1.86-1.21,2.79-1.82,0,0,0,0,0,0C234.2,155.17,233.23,155.68,232.24,156.17Z" style="fill:#263238"></path><path d="M261.85,193.84a13.17,13.17,0,0,1,.95-5,13.17,13.17,0,0,1-.95,5Z" style="fill:#263238"></path></g></svg>